SplineFontDB: 3.0
FontName: LinBiolinumOBSl
FullName: Linux Biolinum O Bold Slanted
FamilyName: Linux Biolinum O
Weight: Bold
Copyright: Linux Libertine by Philipp H. Poll,\nOpen Font under Terms of following Free Software Licenses:\nGPL (General Public License) with font-exception and OFL (Open Font License).\nCreated with FontForge (http://fontforge.sf.net)\nSept 2003, 2004, 2005, 2006, 2007, 2008, 2009
UComments: "2003-08-29: Created.+AAoA-2004-07-25: v(1.0) release candidate+AAoA-2005-12-28: v(1.1.0) stable+AAoA-2006-01-01: v(2.0.0) stable+AAoA-2006-09-05: v(2.2.0) stable+AAoA-2006-12-04: v(2.3.0) stable+AAoA-2007-03-11: v(2.4.0) stable+AAoA-2007-12-00: v(2.7.0) stable+AAoA-2008-06-00: v(2.8.14) stable+AAoA" 
Version: 0.4.8
ItalicAngle: 0
UnderlinePosition: -98
UnderlineWidth: 40
Ascent: 754
Descent: 246
LayerCount: 2
Layer: 0 0 "Back"  0
Layer: 1 0 "Fore"  0
NeedsXUIDChange: 1
XUID: [1021 993 1524925707 2876416]
FSType: 0
OS2Version: 0
OS2_WeightWidthSlopeOnly: 0
OS2_UseTypoMetrics: 0
CreationTime: 1156455862
ModificationTime: 1249676383
PfmFamily: 17
TTFWeight: 700
TTFWidth: 5
LineGap: 0
VLineGap: 0
OS2TypoAscent: 894
OS2TypoAOffset: 0
OS2TypoDescent: -246
OS2TypoDOffset: 0
OS2TypoLinegap: 0
OS2WinAscent: 894
OS2WinAOffset: 0
OS2WinDescent: 246
OS2WinDOffset: 0
HheadAscent: 894
HheadAOffset: 0
HheadDescent: -246
HheadDOffset: 0
OS2FamilyClass: 261
OS2Vendor: 'PfEd'
Lookup: 3 0 0 "'aalt' Alle Alternativen zeigen"  {"'aalt' Alle Alternativen zeigen 1"  } ['aalt' ('DFLT' <'dflt' > 'cyrl' <'dflt' > 'grek' <'dflt' > 'latn' <'AZE ' 'CRT ' 'DEU ' 'MOL ' 'ROM ' 'TRK ' 'dflt' > ) ]
Lookup: 1 0 0 "'locl' Localized Forms Romaenisch"  {"'locl' Localized Forms Romaenisch 1"  } ['locl' ('latn' <'MOL ' 'ROM ' > ) ]
Lookup: 1 0 0 "'smcp' Gemeine nach Kapitaelchen i > i.sc"  {"'smcp' Gemeine nach Kapitaelchen i > i.sc 1"  } ['smcp' ('DFLT' <'dflt' > 'cyrl' <'dflt' > 'grek' <'dflt' > 'latn' <'DEU ' 'MOL ' 'ROM ' 'dflt' > ) ]

StartChar: exclam
Encoding: 33 33 0
Width: 250
VWidth: 999
Flags: HW
HStem: -11 123<86.5638 163.965> 638 20G<110 137>
VStem: 63 121<439.802 641.75> 63 124<9.77582 88.1892>
LayerCount: 2
Fore
SplineSet
261.862 658 m 0
 291.862 658 318.974 635 308.346 585 c 0
 294.529 520 267.702 478 238.322 392 c 0
 201.466 284 187.612 224 182.637 210 c 0
 179.299 199 173.386 190 162.386 190 c 0
 150.386 190 149.874 197 150.149 203 c 0
 152.612 224 165.643 314 173.322 392 c 0
 181.927 480 172.467 515 187.346 585 c 0
 198.823 639 237.862 658 261.862 658 c 0
74.2031 48 m 1
 75.2656 53 l 1
 93.6426 83 113.468 101 151.444 115 c 1
 155.444 115 l 1
 186.894 103 200.28 86 205.266 53 c 1
 204.203 48 l 1
 183.338 11 162.725 -6 128.024 -14 c 1
 124.024 -14 l 1
 88.7246 -6 76.126 10 74.2031 48 c 1
EndSplineSet
Colour: ff80cc
EndChar

StartChar: quotedbl
Encoding: 34 34 1
Width: 375
VWidth: 999
Flags: HW
HStem: 421 223<94 126 108 126> 422 223<237 269 251 269>
LayerCount: 2
Fore
SplineSet
340.699 422 m 1
 326.549 426 l 1
 326.549 426 328.559 586 329.834 592 c 0
 334.723 615 363.312 646 406.312 646 c 0
 448.312 646 447.273 627 443.447 609 c 0
 440.259 594 367.975 428 367.975 428 c 1
 340.699 422 l 1
197.486 421 m 1
 183.337 425 l 1
 183.337 425 185.346 585 186.621 591 c 0
 191.51 614 220.099 645 263.099 645 c 0
 305.099 645 304.061 626 300.234 608 c 0
 297.046 593 224.762 427 224.762 427 c 1
 197.486 421 l 1
EndSplineSet
Colour: ff00ff
EndChar

StartChar: numbersign
Encoding: 35 35 2
Width: 478
Flags: HW
HStem: 181 56<32 117 187 260 326 420> 337 57<57 142 211 284 351 444>
DStem2: 91 13 151 13 0.158553 0.987351<9.51316 169.997 236.388 327.988 395.207 554.862> 233 13 291 13 0.155037 0.987909<8.99213 170.155 235.71 327.989 394.688 554.707>
LayerCount: 2
Fore
SplineSet
318.376 237 m 1
 355.632 337 l 1
 275.632 337 l 1
 262.192 302 250.815 272 237.376 237 c 1
 318.376 237 l 1
413.632 337 m 1
 376.376 237 l 1
 478.376 237 l 1
 458.473 181 l 1
 356.473 181 l 1
 335.569 125 314.241 67 293.764 13 c 1
 235.764 13 l 1
 298.473 181 l 1
 217.473 181 l 1
 195.569 125 175.241 67 153.764 13 c 1
 93.7637 13 l 1
 155.473 181 l 1
 62.4727 181 l 1
 82.376 237 l 1
 176.376 237 l 1
 189.815 272 201.192 302 213.632 337 c 1
 119.632 337 l 1
 140.747 394 l 1
 234.747 394 l 1
 255.226 448 276.767 507 297.244 561 c 1
 358.244 561 l 1
 294.747 394 l 1
 376.747 394 l 1
 397.226 448 417.767 507 438.244 561 c 1
 496.244 561 l 1
 434.747 394 l 1
 535.747 394 l 1
 515.632 337 l 1
 413.632 337 l 1
EndSplineSet
EndChar

StartChar: dollar
Encoding: 36 36 3
Width: 500
VWidth: 999
Flags: HW
HStem: -10 47<136.956 306.906> 528 44<177.316 332.971>
VStem: 47 104<386.624 491.591> 224 44<-81 627> 338 112<87.6685 202.152>
LayerCount: 2
Back
SplineSet
94.5508 12 m 0
 78.5508 12 79.2129 1 58.2129 1 c 1x6e
 66.0771 38 69.1299 90 73.0332 146 c 1
 99.6709 149 l 1
 102.643 83 140.889 23 218.889 23 c 0
 255.889 23 336.928 42 354.995 127 c 0xb6
 376.676 229 289.502 247 258.689 262 c 0
 205.216 288 116.781 333 138.25 434 c 0
 158.229 528 268.582 572 336.582 572 c 0
 393.582 572 426.882 564 467.882 564 c 1
 461.316 519 459.901 470 457.486 421 c 1
 430.636 417 l 1xad
 429.462 435 l 2
 422.767 507 396.206 542 330.206 542 c 0
 276.206 542 217.129 504 203.1 438 c 0
 190.559 379 261.119 344 295.144 330 c 0
 344.893 310 455.689 262 433.159 156 c 0
 425.932 122 388.874 -10 211.874 -10 c 0xae
 146.874 -10 115.551 12 94.5508 12 c 0
169.759 578.125 m 25
 470.053 578.125 l 25
121.585 572.012 m 1
 560.55 572.012 l 1
 438.965 0 l 1
 0 0 l 1
 121.585 572.012 l 1
EndSplineSet
Fore
SplineSet
231.907 37.2002 m 1
 278.074 254.4 l 1
 207.307 285.6 117.653 332.4 136.699 422 c 0
 156.127 513.4 258.629 561.4 345.242 570.4 c 1
 357.273 627 l 1
 401.273 627 l 1
 389.519 571.7 l 1
 484.996 568.3 527.293 533 527.293 533 c 1
 528.655 530 l 1
 515.129 504 499.351 458 489.762 427 c 1
 480.549 426 l 1
 469.604 473.3 431.5 516.1 379.783 525.9 c 1
 338.016 329.4 l 1
 405.805 303 504.946 258.5 484.435 162 c 0
 465.262 71.7998 367.771 8.7998 266.64 -6.40039 c 1
 250.783 -81 l 1
 206.783 -81 l 1
 221.874 -10 l 2
 221.175 -10 220.574 -10 219.874 -10 c 0
 121.874 -10 50.377 30 50.377 30 c 1
 49.0146 33 l 1
 61.541 59 78.7432 107 89.333 138 c 1
 97.5449 139 l 1
 110.55 86.7998 175.266 40.2998 231.907 37.2002 c 1
297.778 347.1 m 1
 335.911 526.5 l 1
 289.608 519.9 255.408 491.2 245.588 445 c 0
 234.301 391.9 266.428 363.8 297.778 347.1 c 1
318.291 236.6 m 1
 276.715 41 l 1
 320.677 50.7002 354.707 78.5996 365.845 131 c 0
 379.746 196.4 355.665 218.6 318.291 236.6 c 1
EndSplineSet
EndChar

StartChar: percent
Encoding: 37 37 4
Width: 637
VWidth: 999
Flags: HW
HStem: -19 33<453.996 514.769> 214 36<488.444 553.487> 297 33<132.028 189.396> 474 45<280.914 457.718> 529 36<164.255 232.725>
VStem: 53 69<335.932 482.725> 240 43<388.136 494.674> 375 68<21.6638 161.631> 562 42<68.5516 208.803>
DStem2: 96 -4 150 -16 0.588938 0.808178<22.1045 620.449 651.051 709.262>
LayerCount: 2
Back
SplineSet
462.165 492.438 m 4
 465.272 492.438 466.254 492.881 467.586 492.881 c 4
 495.268 491.548 571.418 496.875 621.69 541.265 c 5
 634.637 518.628 l 5
 578.791 468.911 523.276 466.691 462.758 461.809 c 6
 455.561 461.365 l 6
 418.273 461.365 368.448 487.998 355.015 499.985 c 5
 374.288 521.733 l 5
 374.288 521.733 413.78 492.438 462.165 492.438 c 4
468.787 37.0049 m 4
 480.972 31.6777 495.487 35.2285 513.731 45.8828 c 4
 535.811 57.8672 551.721 80.5059 566.516 106.252 c 4
 581.026 130.666 591.381 156.411 593.972 179.05 c 4
 596.095 199.469 591.121 213.674 575.321 220.775 c 4
 574.971 221.22 l 4
 559.077 227.878 540.414 219.443 525.625 208.347 c 4
 505.105 193.254 491.66 175.942 478.065 153.748 c 4
 461.213 126.67 451.301 100.925 450.201 76.9551 c 4
 449.412 56.5352 455.016 43.2188 468.787 37.0049 c 4
622.119 200.801 m 4
 625.941 172.836 611.616 134.66 591.003 98.2617 c 4
 570.867 64.082 542.792 34.3408 514.92 20.1367 c 4
 482.573 3.71289 455.618 6.37598 437.275 16.1416 c 4
 418.232 26.7949 410.854 40.1123 406.777 68.9648 c 4
 403.183 93.8223 410.381 129.777 431.757 163.514 c 4
 452.877 198.137 479.75 224.326 512.982 240.751 c 4
 539.594 253.18 566.443 256.287 592.492 245.189 c 4
 616.419 234.536 618.743 228.766 622.119 200.801 c 4
661.83 542.153 m 5
 169.203 12.1465 l 5
 128.809 12.1465 l 5
 622.323 542.153 l 5
 661.83 542.153 l 5
237.213 323.759 m 4
 249.304 317.988 263.913 321.982 282.063 332.192 c 4
 304.236 344.621 320.052 366.816 335.384 393.006 c 4
 349.357 416.977 359.806 443.166 362.4 465.805 c 4
 364.52 486.223 359.55 500.43 343.747 507.529 c 4
 343.303 507.529 l 4
 327.406 514.189 308.746 505.757 294.053 495.103 c 4
 273.438 479.564 260.087 462.697 246.397 440.059 c 4
 229.545 412.98 219.728 387.68 218.532 363.266 c 4
 217.839 343.29 223.349 329.529 237.213 323.759 c 4
390.455 487.111 m 4
 394.276 459.146 379.947 420.971 359.337 384.572 c 4
 339.199 350.393 311.665 321.096 283.249 306.447 c 4
 250.905 290.023 224.045 293.13 206.051 302.451 c 4
 186.565 313.105 179.28 326.865 175.108 355.275 c 4
 171.516 380.133 179.158 416.088 200.184 450.268 c 4
 221.303 484.892 248.084 510.64 281.314 527.061 c 4
 308.022 539.938 334.87 543.042 360.921 531.943 c 4
 384.752 520.845 387.077 515.078 390.455 487.111 c 4
EndSplineSet
Fore
SplineSet
459.367 77 m 0
 451.077 38 460.976 14 479.976 14 c 0
 531.976 14 583.681 102 595.371 157 c 0
 606.424 209 582.487 214 568.487 214 c 0
 525.487 214 471.482 134 459.367 77 c 0
394.343 91 m 0
 411.348 171 476.139 250 565.139 250 c 0
 613.139 250 653.101 231 637.797 159 c 0
 616.754 60 545.961 -19 466.961 -19 c 0
 404.961 -19 380.526 26 394.343 91 c 0
474.316 519 m 0
 516.316 519 584.592 525 634.944 569 c 1
 677.481 548 l 1
 146.599 -16 l 1
 95.1494 -4 l 1
 567.641 497 l 1
 525.239 481 484.752 474 454.752 474 c 0
 431.752 474 401.877 484 385.216 495 c 1
 385.515 487 385.452 482 383.752 474 c 0
 365.897 390 294.129 297 207.129 297 c 0
 145.129 297 125.057 339 139.298 406 c 0
 157.365 491 228.095 565 310.095 565 c 0
 338.095 565 365.182 556 372.631 544 c 1
 421.316 519 456.316 519 474.316 519 c 0
205.322 392 m 0
 197.032 353 207.144 330 225.144 330 c 0
 271.144 330 328.211 415 340.539 473 c 0
 350.954 522 331.442 529 313.442 529 c 0
 264.442 529 217.65 450 205.322 392 c 0
EndSplineSet
EndChar

StartChar: parenleft
Encoding: 40 40 5
Width: 338
VWidth: 999
Flags: HW
VStem: 44 121<118.713 387.221>
LayerCount: 2
Back
SplineSet
101.458 -0.488281 m 4
 81.6816 81.0547 78.9219 164.551 97.5 251.953 c 4
 116.804 342.773 153.283 424.805 209.056 503.418 c 4
 240.68 548.828 303.35 632.324 406.632 707.031 c 5
 420.474 689.453 l 5
 333.348 610.352 287.164 533.203 264.67 491.699 c 4
 222.808 416.504 193.403 337.891 175.137 251.953 c 4
 156.974 166.504 152.056 85.9375 162.439 10.7422 c 4
 167.569 -31.7383 180.572 -108.398 234.176 -187.012 c 5
 213.068 -203.613 l 5
 157.652 -145.02 121.267 -79.5898 101.458 -0.488281 c 4
EndSplineSet
Fore
SplineSet
97.5645 252 m 0
 133.699 422 284.597 605 425.277 707 c 1
 451.326 679 l 1
 411.674 643 274.467 515 218.564 252 c 0
 162.662 -11 244.455 -139 269.378 -177 c 1
 231.639 -204 l 1
 75.498 -40 78.8594 164 97.5645 252 c 0
EndSplineSet
Substitution2: "'c2sc' Versale nach Kapitaelchen 1" parenleft.sc
AlternateSubs2: "'aalt' Alle Alternativen zeigen 1" parenleft.sc
Substitution2: "'sinf' Wissenschaftliche Indices 1" parenleft.inferior
Substitution2: "'sups' Hochgestellte 1" parenleft.superior
Substitution2: "'case' Versalformen 1" parenleft.sc
EndChar

StartChar: parenright
Encoding: 41 41 6
Width: 338
VWidth: 999
Flags: HW
VStem: 173 121<116.779 385.287>
LayerCount: 2
Fore
SplineSet
347.564 252 m 0
 311.43 82 160.532 -101 19.8506 -203 c 1
 -6.19727 -175 l 1
 33.4551 -139 170.662 -11 226.564 252 c 0
 282.467 515 200.674 643 175.751 681 c 1
 213.49 708 l 1
 369.631 544 366.27 340 347.564 252 c 0
EndSplineSet
Substitution2: "'c2sc' Versale nach Kapitaelchen 1" parenright.sc
AlternateSubs2: "'aalt' Alle Alternativen zeigen 1" parenright.sc
Substitution2: "'sinf' Wissenschaftliche Indices 1" parenright.inferior
Substitution2: "'sups' Hochgestellte 1" parenright.superior
Substitution2: "'case' Versalformen 1" parenright.sc
Colour: ff00ff
EndChar

StartChar: asterisk
Encoding: 42 42 7
Width: 433
VWidth: 999
Flags: HMW
HStem: 571 69<91 156 274 348>
VStem: 173 78<622 713>
LayerCount: 2
Back
SplineSet
273.694 557.129 m 4
 242.164 558.105 221.199 560.547 212.679 566.406 c 4
 203.67 572.266 199.96 580.078 200.363 588.867 c 4
 200.394 591.309 200.705 592.773 201.12 594.727 c 4
 202.365 600.586 204.972 605.957 209.428 610.84 c 4
 216.563 619.141 224.021 622.07 231.657 623.535 c 4
 235.283 624.512 237.725 624.512 240.654 624.512 c 4
 247.002 624.512 252.165 623.535 257.121 621.582 c 4
 266.648 618.164 279.117 607.91 294.278 594.238 c 4
 304.409 584.473 315.268 578.125 325.948 573.242 c 5
 327.597 587.891 327.085 601.562 325.285 613.77 c 4
 321.478 637.207 320.509 653.32 322.096 663.086 c 4
 322.096 663.086 322.303 664.062 322.406 664.551 c 4
 324.379 673.828 327.992 681.641 333.353 688.477 c 4
 339.407 696.289 346.201 700.684 354.532 703.125 c 4
 358.157 704.102 360.703 704.59 363.528 704.102 c 4
 368.899 704.102 372.599 703.125 376.474 700.684 c 4
 384.609 695.312 387.728 687.012 387.709 677.734 c 4
 387.575 674.805 387.057 672.363 386.434 669.434 c 4
 383.631 656.25 375.188 637.207 364.066 614.746 c 4
 356.247 598.633 349.819 584.473 346.352 572.754 c 5
 361.269 578.613 374.441 585.449 386.947 593.75 c 4
 409.696 608.887 425.829 618.164 435.24 621.094 c 4
 442.106 623.535 447.581 624.023 452.952 624.023 c 4
 456.37 624.023 458.812 624.023 461.535 623.047 c 4
 470.5 621.582 475.426 617.188 478.367 610.352 c 4
 480.644 604.98 481.07 600.098 479.825 594.238 c 4
 479.307 591.797 478.995 590.332 478.091 588.379 c 4
 474.062 578.613 466.646 571.289 456.228 565.918 c 4
 443.647 559.57 419.307 557.617 391.37 557.129 c 4
 374.666 556.641 360.194 555.176 348.061 553.223 c 5
 355.927 541.992 364.801 533.203 374.09 526.367 c 4
 391.796 513.184 403.288 502.93 407.59 495.605 c 4
 412.277 487.793 414.035 479.98 413.247 471.68 c 4
 413.32 469.727 413.009 468.262 412.697 466.797 c 4
 411.141 459.473 408.045 454.102 403.102 449.219 c 4
 396.766 442.383 389.588 438.477 381.567 437.5 c 4
 379.511 437.012 378.535 437.012 377.069 437.012 c 4
 367.792 437.012 361.298 440.918 356.581 446.289 c 4
 348.579 454.59 342.788 475.586 338.627 501.953 c 4
 335.809 518.555 332.647 531.25 328.479 541.504 c 5
 319.744 530.273 311.187 517.578 302.006 501.953 c 4
 284.548 472.656 270.631 453.125 260.389 446.289 c 4
 251.716 439.941 243.769 437.012 235.956 437.012 c 4
 234.003 437.012 233.026 437.012 231.665 437.5 c 4
 222.7 438.965 218.158 442.871 214.625 449.219 c 4
 211.964 455.078 211.152 460.449 212.991 466.797 c 4
 213.406 468.75 213.717 470.215 214.028 471.68 c 4
 217.361 480.469 222.929 488.281 229.856 495.605 c 4
 238.456 503.906 255.876 514.648 276.922 526.367 c 4
 292.358 534.668 305.072 543.945 315.937 553.711 c 5
 303.272 556.152 288.831 557.129 273.694 557.129 c 4
EndSplineSet
Fore
SplineSet
317.307 566 m 1
 304.732 568 292.795 573 277.37 571 c 0
 230.669 563 194.669 563 204.234 608 c 0
 207.21 622 220.036 640 244.036 640 c 0
 278.036 640 288.021 607 327.983 588 c 1
 332.485 628 311.8 653 317.326 679 c 0
 321.79 700 345.615 718 363.615 718 c 0
 381.615 718 401.277 707 396.176 683 c 0
 390.438 656 359.36 618 350.983 588 c 1
 400.021 607 418.461 642 451.461 642 c 0
 482.461 642 485.36 618 483.234 608 c 0
 476.857 578 440.732 568 405.732 568 c 0
 386.732 568 369.732 568 351.095 565 c 1
 377.442 529 428.867 531 418.027 480 c 0
 414.201 462 393.863 451 379.863 451 c 0
 330.863 451 347.041 513 330.331 552 c 1
 295.767 507 297.863 451 238.863 451 c 0
 221.863 451 212.626 464 215.814 479 c 0
 227.293 533 276.229 528 317.307 566 c 1
EndSplineSet
EndChar

StartChar: plus
Encoding: 43 43 8
Width: 537
Flags: HMW
HStem: 195 73<61 232 306 477> 423 10G<232 306>
VStem: 232 73<32 195 269 433>
LayerCount: 2
Back
SplineSet
-3.37305 257 m 29
 619.627 257 l 29
121.582 572 m 5
 648.582 572 l 5
 527 0 l 5
 0 0 l 5
 121.582 572 l 5
EndSplineSet
Fore
SplineSet
363.178 269 m 1
 534.178 269 l 1
 518.448 195 l 1
 347.448 195 l 1
 312.802 32 l 1
 238.802 32 l 1
 273.448 195 l 1
 102.448 195 l 1
 118.178 269 l 1
 289.178 269 l 1
 324.037 433 l 1
 398.037 433 l 1
 363.178 269 l 1
EndSplineSet
AlternateSubs2: "'aalt' Alle Alternativen zeigen 1" plus.superior plus.inferior uni2098
Substitution2: "'sinf' Wissenschaftliche Indices 1" plus.inferior
Substitution2: "'sups' Hochgestellte 1" plus.superior
EndChar

StartChar: slash
Encoding: 47 47 9
Width: 342
VWidth: 999
Flags: HW
HStem: 626 20G<245.277 312>
VStem: 15 297
DStem2: 15 -59 75 -59 0.318647 0.947874<19.1188 743.77>
LayerCount: 2
Back
SplineSet
408.533 661.299 m 1
 53.7715 17.6553 l 1
 18.2598 17.6553 l 1
 373.021 661.299 l 1
 408.533 661.299 l 1
EndSplineSet
Fore
SplineSet
449.312 646 m 1
 62.459 -59 l 1
 2.45898 -59 l 1
 389.312 646 l 1
 449.312 646 l 1
EndSplineSet
Ligature2: "'frac' Brueche 1" uni2215
AlternateSubs2: "'aalt' Alle Alternativen zeigen 1" uni2215
EndChar

StartChar: one
Encoding: 49 49 10
Width: 478
VWidth: 999
Flags: HW
HStem: -3 21G<218 286 286 354> 466 41<108 184.331> 558 20G<316 348.75>
VStem: 228 115<2.66453 469.974>
LayerCount: 2
Back
SplineSet
454.295 575.534 m 5
 447.536 578.852 l 5
 390.282 563.095 303.774 542.362 196.763 526.605 c 5
 189.535 492.604 l 5
 312.271 492.604 l 5
 274.373 314.305 l 6
 263.973 265.376 250.275 204.837 236.278 146.786 c 4
 222.28 88.7354 207.807 32.3428 197.262 -1.6582 c 5
 219.829 -0.829102 246.543 0 265.616 0 c 4
 286.35 0 309.393 -0.829102 331.608 -1.6582 c 5
 340.609 68.0029 353.582 136.835 369.976 213.959 c 6
 399.766 354.111 l 6
 407.521 390.601 416.988 431.236 426.278 471.042 c 4
 435.393 510.02 445.637 546.509 454.295 575.534 c 5
169.759 578.125 m 25
 470.053 578.125 l 25
121.585 572.012 m 1
 560.55 572.012 l 1
 438.965 0 l 1
 0 0 l 1
 121.585 572.012 l 1
EndSplineSet
Fore
SplineSet
381.048 179 m 2
 365.063 103.8 357.615 57 354 0 c 1
 351.362 -3 l 1
 351.362 -3 320.3 0 286 0 c 0
 251 0 218.362 -3 218.362 -3 c 1
 218 0 l 1
 237.872 53.5 250.318 105 266.048 179 c 2
 315.148 410 l 2
 322.375 444 327.827 472 311.327 472 c 0
 292.327 472 250.327 472 207.052 466 c 1
 213.767 507 l 1
 306.018 527 403.606 558 469.857 578 c 1
 473.357 578 475.815 577.8 474.795 573 c 0
 470.332 560 453.742 521 432.062 419 c 2
 381.048 179 l 2
EndSplineSet
AlternateSubs2: "'aalt' Alle Alternativen zeigen 1" one.oldstyle one.superior one.fitted
Substitution2: "'sups' Hochgestellte 1" one.superior
Substitution2: "'sinf' Wissenschaftliche Indices 1" one.inferior
Substitution2: "'pnum' Proportionalziffern 1" one.fitted
Substitution2: "'onum' Minuskelziffern 1" one.taboldstyle
EndChar

StartChar: two
Encoding: 50 50 11
Width: 478
VWidth: 487
Flags: HW
HStem: 0 95<174 422.926> 527 51<146.3 263.954>
VStem: 293 131<347.782 496.509>
DStem2: 167 194 238 176 0.718358 0.695673<-62.1088 181.122>
LayerCount: 2
Back
SplineSet
435.957 -1.6582 m 5
 437.418 9.12207 439.356 18.2441 441.296 27.3672 c 4
 443.235 36.4893 444.998 44.7822 446.584 52.2461 c 4
 448.171 59.71 450.109 68.832 452.049 77.9541 c 4
 454.164 87.9062 456.279 97.8574 459.048 106.979 c 5
 429.317 103.662 394.964 102.004 360.962 102.004 c 5
 343.37 101.175 326.784 101.175 311.027 101.175 c 4
 294.267 100.346 279.338 100.346 265.24 100.346 c 4
 255.288 100.346 242.85 100.346 227.922 100.346 c 4
 213.823 100.346 199.726 100.346 185.804 101.175 c 5
 225.021 133.518 280.628 176.641 342.039 219.765 c 4
 439.602 288.597 496.246 348.306 513.168 427.919 c 4
 523.744 477.677 513.607 515.824 486.553 540.703 c 4
 458.669 565.583 415.702 578.021 360.139 578.021 c 4
 270.574 578.021 194.287 539.045 154.862 490.116 c 5
 164.481 476.848 176.027 445.334 176.492 416.309 c 5
 197.4 417.138 l 5
 205.353 442.846 218.811 471.042 239.979 492.604 c 4
 260.318 514.166 286.536 528.264 319.708 528.264 c 4
 350.391 528.264 369.134 514.995 378.172 495.092 c 4
 387.033 474.359 386.846 446.163 380.5 416.309 c 4
 370.1 367.38 346.907 316.793 294.887 255.425 c 4
 242.864 194.057 162.014 121.907 36.6494 31.5137 c 5
 29.5986 -1.6582 l 5
 97.3008 0.829102 158.669 0.829102 227.501 0.829102 c 4
 293.017 0.829102 363.506 0.829102 435.957 -1.6582 c 5
169.759 578.125 m 25
 470.053 578.125 l 25
121.585 572.012 m 1
 560.55 572.012 l 1
 438.965 0 l 1
 0 0 l 1
 121.585 572.012 l 1
EndSplineSet
Fore
SplineSet
326.018 527 m 0
 280.018 527 232.703 502 189.8 446 c 1
 167.013 447 l 1
 162.954 522 l 1
 166.805 526 l 1
 195.269 547 276.857 578 344.857 578 c 0
 457.857 578 536.867 531 515.187 429 c 0
 499.883 357 454.961 320.2 389.965 268 c 2
 275.41 176 l 2
 251.407 156.7 197.381 110 194.193 95 c 1
 272.193 95 l 2
 367.193 95 394.043 99 449.894 103 c 1
 444.343 91 434.266 53 431.715 41 c 0
 429.164 29 426.7 8 427.149 -4 c 1
 356.787 -1 334 0 263 0 c 0
 191 0 124.575 -2 36.1494 -4 c 1
 36 0 l 1
 47.9033 56 95.043 99 208.236 194 c 1
 292.902 263 l 1
 361.019 320 371.434 369 384.399 430 c 0
 398.854 498 360.018 527 326.018 527 c 0
EndSplineSet
AlternateSubs2: "'aalt' Alle Alternativen zeigen 1" two.oldstyle two.superior two.fitted
Substitution2: "'sups' Hochgestellte 1" two.superior
Substitution2: "'sinf' Wissenschaftliche Indices 1" two.inferior
Substitution2: "'pnum' Proportionalziffern 1" two.fitted
Substitution2: "'onum' Minuskelziffern 1" two.taboldstyle
EndChar

StartChar: three
Encoding: 51 51 12
Width: 478
VWidth: 487
Flags: HW
HStem: -10 49<129.249 263.835> 277 43<164 200.572> 529 49<153.242 271.627>
VStem: 295 111<375.318 505.037> 305 128<86.7836 245.772>
LayerCount: 2
Back
SplineSet
463.973 165.03 m 4
 474.725 215.618 461.872 248.79 439.088 270.352 c 4
 416.305 291.914 381.102 301.865 347.981 306.012 c 5
 348.687 309.329 l 5
 379.122 315.963 413.104 327.573 441.912 349.965 c 4
 469.892 372.355 494.006 403.869 503.877 450.31 c 4
 513.925 497.58 498.408 529.923 468.638 549.826 c 4
 438.867 569.729 395.018 578.021 351.065 578.021 c 4
 283.892 578.021 221.911 555.631 177.365 521.63 c 5
 186.403 501.727 191.844 472.701 193.844 446.993 c 5
 214.575 446.993 l 5
 222.829 470.213 236.357 490.945 254.635 506.702 c 4
 272.91 522.459 294.93 532.41 321.467 532.41 c 4
 378.688 532.41 397.771 493.434 385.784 437.041 c 4
 379.438 407.188 368.293 378.161 348.129 357.429 c 4
 327.965 336.695 299.261 322.598 256.138 322.598 c 4
 251.161 322.598 246.186 322.598 241.21 322.598 c 4
 237.063 322.598 232.088 322.598 228.117 323.427 c 5
 228.241 320.109 227.36 315.963 226.479 311.816 c 4
 225.598 307.67 224.716 303.523 224.011 300.207 c 4
 223.13 296.061 222.248 291.914 221.19 286.938 c 4
 220.133 281.962 219.251 277.815 217.541 273.669 c 5
 228.85 276.157 240.637 276.986 253.076 276.986 c 4
 320.25 276.986 352.3 240.497 336.788 167.519 c 4
 328.327 127.712 311.978 93.7109 287.968 70.4902 c 4
 262.953 46.4404 230.756 31.5137 190.948 31.5137 c 4
 138.702 31.5137 108.383 60.5391 112.48 122.736 c 5
 92.4014 121.907 l 5
 88.9805 113.614 85.3828 104.492 81.6084 94.54 c 4
 77.834 84.5889 74.2373 75.4658 69.8096 66.3438 c 4
 65.3838 57.2217 61.7852 48.0996 58.541 40.6357 c 4
 54.29 32.3428 51.2217 25.708 48.5049 20.7324 c 5
 79.4053 -1.6582 140.617 -14.0977 200.326 -14.0977 c 4
 260.865 -14.0977 321.26 0.829102 368.242 30.6846 c 4
 415.223 60.5391 451.28 105.321 463.973 165.03 c 4
169.759 578.125 m 25
 470.053 578.125 l 25
121.585 572.012 m 1
 560.55 572.012 l 1
 438.965 0 l 1
 0 0 l 1
 121.585 572.012 l 1
EndSplineSet
Fore
SplineSet
210.29 39 m 0
 139.189 39 132.241 67 113.145 123 c 1
 89.9316 122 l 1
 53.9902 47 l 1
 56.1396 43 l 1
 75.6758 22 125.874 -10 197.874 -10 c 0
 311.874 -10 441.29 39 469.348 171 c 0
 488.711 262.1 427.192 302 358.68 309 c 1
 359.317 312 l 1
 432.144 330 486.304 377.8 503.139 457 c 0
 522.056 546 444.857 578 357.857 578 c 0
 285.857 578 207.056 546 178.592 525 c 1
 174.742 521 l 1
 178.8 446 l 1
 201.588 445 l 1
 244.491 501 271.442 529 338.442 529 c 0
 375.442 529 399.578 492 388.95 442 c 0
 372.158 363 325.081 325 232.019 320 c 1
 222.878 277 l 1
 234.304 279 251.304 279 260.304 279 c 0
 314.304 279 359.84 258 340.71 168 c 0
 317.307 57.9004 243.29 39 210.29 39 c 0
EndSplineSet
AlternateSubs2: "'aalt' Alle Alternativen zeigen 1" three.oldstyle three.superior three.fitted
Substitution2: "'sups' Hochgestellte 1" three.superior
Substitution2: "'sinf' Wissenschaftliche Indices 1" three.inferior
Substitution2: "'pnum' Proportionalziffern 1" three.fitted
Substitution2: "'onum' Minuskelziffern 1" three.taboldstyle
EndChar

StartChar: four
Encoding: 52 52 13
Width: 478
VWidth: 487
Flags: HMW
HStem: -3 21G<255 321 321 387> 140 62<94 266 377 452.651> 552 20G<274 321 321 387>
VStem: 266 111<2.62554 140 202 473.656>
LayerCount: 2
Back
SplineSet
366.342 469.384 m 5
 309.758 203.179 l 5
 134.776 203.179 l 5
 162.559 236.351 205.654 286.938 249.579 337.525 c 4
 292.498 387.283 335.417 437.041 364.683 469.384 c 5
 366.342 469.384 l 5
491.194 136.005 m 5
 492.48 145.957 494.066 153.421 495.301 159.226 c 4
 496.534 165.03 497.416 169.177 498.121 172.494 c 4
 498.649 174.982 499.531 179.129 500.589 184.104 c 4
 501.646 189.08 503.232 196.544 506.354 207.325 c 5
 483.435 204.837 454.885 203.179 419.225 203.179 c 5
 425.57 233.033 432.27 264.547 439.144 296.89 c 4
 446.195 330.062 453.069 362.404 460.774 394.747 c 4
 475 457.773 489.702 519.142 502.238 566.412 c 5
 484.647 565.583 459.591 564.753 445.493 564.753 c 4
 432.225 564.753 411.668 565.583 397.746 566.412 c 5
 356.486 516.654 297.073 447.822 235.472 376.502 c 4
 173.873 305.183 110.085 231.375 58.1152 174.153 c 5
 50.1826 136.835 l 5
 117.057 139.322 181.742 139.322 233.986 139.322 c 6
 296.185 139.322 l 5
 292.131 120.248 l 6
 283.141 77.9541 271.787 32.3428 260.413 -1.6582 c 5
 280.493 -0.829102 298.084 0 320.476 0 c 4
 341.208 0 361.764 -0.829102 380.662 -1.6582 c 5
 385.048 30.6846 392.255 76.2959 401.598 120.248 c 6
 405.651 139.322 l 5
 441.312 139.322 469.333 138.493 491.194 136.005 c 5
169.759 578.125 m 25
 470.053 578.125 l 25
-3.51367 256.836 m 25
 620.022 256.836 l 25
121.585 572.012 m 1
 560.55 572.012 l 1
 438.965 0 l 1
 0 0 l 1
 121.585 572.012 l 1
EndSplineSet
Fore
SplineSet
295.758 140 m 1
 102.758 140 l 2
 68.7578 140 51.5449 139 52.5215 153 c 0
 52.7334 154 49.8145 173.2 71.6611 196 c 0
 146.24 274 325.665 483 394.944 569 c 1
 396.582 572 l 1
 396.582 572 406.944 569 441.944 569 c 0
 475.944 569 506.582 572 506.582 572 c 1
 507.944 569 l 1
 487.829 512 483.916 503 467.975 428 c 2
 419.937 202 l 1
 487.937 202 l 2
 497.937 202 499.811 192 497.897 183 c 0
 495.56 172 474.758 140 461.758 140 c 2
 406.758 140 l 1
 391.008 65.9004 391.052 56.7002 387 0 c 1
 384.362 -3 l 1
 384.362 -3 355 0 321 0 c 0
 286 0 255.362 -3 255.362 -3 c 1
 255 0 l 1
 274.436 53.7998 280.22 66.9004 295.758 140 c 1
366.965 475 m 1
 136.937 202 l 1
 308.937 202 l 1
 366.965 475 l 1
EndSplineSet
AlternateSubs2: "'aalt' Alle Alternativen zeigen 1" four.oldstyle four.superior four.fitted
Substitution2: "'sups' Hochgestellte 1" four.superior
Substitution2: "'sinf' Wissenschaftliche Indices 1" four.inferior
Substitution2: "'pnum' Proportionalziffern 1" four.fitted
Substitution2: "'onum' Minuskelziffern 1" four.taboldstyle
EndChar

StartChar: five
Encoding: 53 53 14
Width: 478
VWidth: 487
Flags: HW
HStem: -10 49<144.865 262.543> 304 56<149.907 264.537> 476 92<162.515 390.731>
VStem: 298 123<94.728 266.467>
DStem2: 86.7671 288 149 345 0.108937 0.994049<63.4402 202.674>
LayerCount: 2
Back
SplineSet
458.503 182.446 m 4
 469.256 233.033 457.46 271.181 429.929 297.719 c 4
 402.223 323.427 358.601 336.695 303.039 336.695 c 4
 269.867 336.695 230.308 330.062 204.444 317.622 c 5
 208.499 336.695 215.798 363.233 223.272 390.601 c 4
 230.749 417.967 237.571 446.163 244.467 466.896 c 5
 262.711 466.896 283.442 466.896 306.664 466.896 c 5
 328.877 466.066 352.099 466.066 376.148 466.066 c 4
 422.412 465.237 467.673 463.579 496.998 461.091 c 5
 500.224 480.165 503.8 500.897 506.797 514.995 c 4
 510.322 531.581 515.559 552.312 519.208 565.583 c 5
 509.91 564.753 499.129 564.753 486.513 563.924 c 4
 462.287 563.095 434.743 562.266 407.377 562.266 c 4
 393.279 562.266 380.839 562.266 368.4 562.266 c 4
 312.008 562.266 268.23 563.095 219.832 565.583 c 5
 210.479 560.606 l 5
 209.547 552.312 207.432 542.362 205.97 531.581 c 5
 201.034 508.361 196.223 481.823 190.582 455.286 c 4
 187.761 442.017 185.117 429.577 182.649 417.967 c 4
 173.659 375.673 159.662 317.622 142.751 265.376 c 5
 156.092 257.912 l 5
 177.033 274.498 213.201 288.597 247.203 288.597 c 4
 320.183 288.597 345.846 245.473 329.1 166.689 c 4
 310.592 79.6133 251.614 32.3428 181.954 32.3428 c 4
 125.562 32.3428 99.3164 68.832 107.333 126.054 c 5
 86.4238 125.225 l 5
 81.1152 111.955 72.7383 92.0527 64.5371 72.9785 c 4
 56.1602 53.0752 46.125 33.1719 40.5156 22.3906 c 5
 65.9639 1.6582 123.982 -14.0977 187.011 -14.0977 c 4
 246.72 -14.0977 306.938 0 356.937 32.3428 c 4
 406.104 64.6855 443.696 112.785 458.503 182.446 c 4
169.759 578.125 m 25
 500.814 578.125 l 25
121.585 572.012 m 1
 560.55 572.012 l 1
 438.965 0 l 1
 0 0 l 1
 121.585 572.012 l 1
EndSplineSet
Fore
SplineSet
207.874 -10 m 0
 321.874 -10 434.391 63 460.535 186 c 0
 480.091 278 418.521 360 312.521 360 c 0
 273.521 360 245.032 353 222.332 345 c 1
 265.771 483.5 l 1
 297.163 479.7 330.977 476 374.177 476 c 0
 402.177 476 453.39 477 493.239 481 c 1
 528.22 575 l 1
 522.857 578 l 1
 467.582 572 395.732 568 345.732 568 c 0
 310.732 568 272.157 570 239.795 573 c 1
 148.017 288 l 1
 167.729 281 l 1
 210.129 297 229.617 304 275.617 304 c 0
 333.617 304 351.798 253.1 333.922 169 c 0
 314.154 76 263.29 39 220.29 39 c 0
 164.29 39 142.241 67 123.145 123 c 1
 99.9316 122 l 1
 63.9902 47 l 1
 66.1396 43 l 1
 85.6758 22 135.874 -10 207.874 -10 c 0
EndSplineSet
AlternateSubs2: "'aalt' Alle Alternativen zeigen 1" five.oldstyle five.superior five.fitted
Substitution2: "'sups' Hochgestellte 1" five.superior
Substitution2: "'sinf' Wissenschaftliche Indices 1" five.inferior
Substitution2: "'pnum' Proportionalziffern 1" five.fitted
Substitution2: "'onum' Minuskelziffern 1" five.taboldstyle
EndChar

StartChar: six
Encoding: 54 54 15
Width: 478
VWidth: 487
Flags: HMW
HStem: -10 38<206.73 304.204> 298 41<180.007 294.084> 543 35<334.813 414.6>
VStem: 44 113<109.686 306.748> 330 113<86.4142 259.76>
LayerCount: 2
Back
SplineSet
356.502 171.665 m 4
 347.864 131.029 331.815 94.54 312.253 68.832 c 4
 292.513 42.2939 267.603 26.5381 241.065 26.5381 c 4
 212.039 26.5381 195.185 44.7822 186.428 73.8076 c 4
 177.67 102.833 178.491 141.811 187.128 182.446 c 4
 192.769 208.983 205.272 240.497 224.658 265.376 c 4
 244.046 290.255 270.138 307.67 303.31 307.67 c 4
 333.994 307.67 352.383 292.743 359.534 267.864 c 4
 366.685 242.985 364.434 208.983 356.502 171.665 c 4
479.095 186.593 m 4
 490.376 239.668 483.962 283.621 462.94 313.476 c 4
 441.918 343.33 405.814 360.745 356.056 360.745 c 4
 296.347 360.745 249.894 333.379 218.016 304.354 c 5
 214.699 304.354 l 5
 223.989 344.159 245.627 403.04 278.896 450.31 c 4
 312.162 497.58 359.248 535.729 419.787 535.729 c 4
 467.058 535.729 480.262 504.215 479.317 468.555 c 5
 500.402 470.213 l 5
 503.046 482.652 508.405 500.068 515.426 517.483 c 4
 521.438 534.069 527.628 551.484 533.766 564.753 c 5
 511.655 573.876 471.071 578.021 428.777 578.021 c 4
 332.578 578.021 255.285 538.216 196.276 475.188 c 4
 137.269 412.162 97.375 325.915 77.4561 232.204 c 4
 59.2998 146.786 66.1592 85.418 93.3574 45.6113 c 4
 120.38 4.97559 168.571 -14.0977 231.599 -14.0977 c 4
 298.772 -14.0977 355.777 8.29297 397.535 44.7822 c 4
 439.292 81.2715 467.284 131.029 479.095 186.593 c 4
169.759 578.125 m 25
 529.135 578.125 l 25
121.585 572.012 m 1
 560.55 572.012 l 1
 438.965 0 l 1
 0 0 l 1
 121.585 572.012 l 1
EndSplineSet
Fore
SplineSet
233.495 316.6 m 1
 263.357 334.3 299.294 342 327.694 342 c 0
 475.694 342 495.927 249 479.348 171 c 0
 462.556 92 385.874 -10 247.874 -10 c 0
 216.074 -10 170.107 -4.2002 136.464 21 c 0
 92.8145 53.7002 67.0176 117.7 90.8877 230 c 0
 121.433 373.7 283.857 578 536.857 578 c 1
 532.418 543 l 1
 471.149 537.5 316.135 525.2 233.495 316.6 c 1
216.488 271.4 m 1
 213.165 260 207.206 236.2 205.25 227 c 0
 169.541 59 210.951 28 260.951 28 c 0
 293.951 28 340.07 70.9004 359.859 164 c 0
 369.85 211 387.342 298 298.342 298 c 0
 280.842 298 253.444 296.6 216.488 271.4 c 1
EndSplineSet
AlternateSubs2: "'aalt' Alle Alternativen zeigen 1" six.oldstyle six.superior six.fitted
Substitution2: "'sups' Hochgestellte 1" six.superior
Substitution2: "'sinf' Wissenschaftliche Indices 1" six.inferior
Substitution2: "'pnum' Proportionalziffern 1" six.fitted
Substitution2: "'onum' Minuskelziffern 1" six.taboldstyle
EndChar

StartChar: seven
Encoding: 55 55 16
Width: 478
VWidth: 487
Flags: HMW
HStem: -12 21G<136 223> 483.9 84.1<114.132 340.241>
LayerCount: 2
Back
SplineSet
553.273 534.898 m 5
 558.262 562.266 l 5
 528.707 559.777 478.12 559.777 434.996 559.777 c 4
 415.922 559.777 394.36 559.777 372.146 560.606 c 5
 348.926 560.606 325.704 560.606 301.831 561.438 c 5
 253.732 561.438 204.326 563.095 164.22 565.583 c 5
 161.348 548.167 157.946 528.264 154.597 512.508 c 4
 151.776 499.238 146.717 479.335 140.775 455.286 c 5
 244.189 461.92 332.624 464.408 435.457 464.408 c 5
 394.321 411.333 334.856 338.354 267.647 256.254 c 4
 200.438 174.153 126.49 83.7598 56.4404 0 c 5
 59.2285 -2.48828 l 5
 66.04 -1.6582 73.5039 -1.6582 82.8027 -0.829102 c 5
 100.218 -0.829102 119.468 0 135.225 0 c 4
 143.518 0 150.151 0 155.128 0 c 5
 161.918 12.4395 169.715 25.708 178.992 38.1475 c 4
 227.802 107.809 289.382 190.739 354.154 276.986 c 4
 418.928 363.233 488.553 452.798 553.273 534.898 c 5
169.759 578.125 m 25
 470.053 578.125 l 25
121.585 572.012 m 1
 560.55 572.012 l 1
 438.965 0 l 1
 0 0 l 1
 121.585 572.012 l 1
EndSplineSet
Fore
SplineSet
443.056 483.9 m 1
 386.771 483.5 302.41 481.8 179.965 475 c 1
 184.94 489 191.829 512 194.805 526 c 0
 197.78 540 200.031 560 201.008 574 c 1
 240.103 568.8 342.732 568 483.732 568 c 0
 512.732 568 531.37 571 546.22 575 c 1
 555.182 556 l 1
 394.342 298 309.309 152 221.087 -9 c 1
 136.449 -12 l 1
 134.725 -6 l 1
 224.645 131 334.188 308.1 443.056 483.9 c 1
EndSplineSet
AlternateSubs2: "'aalt' Alle Alternativen zeigen 1" seven.oldstyle seven.superior seven.fitted
Substitution2: "'sups' Hochgestellte 1" seven.superior
Substitution2: "'sinf' Wissenschaftliche Indices 1" seven.inferior
Substitution2: "'pnum' Proportionalziffern 1" seven.fitted
Substitution2: "'onum' Minuskelziffern 1" seven.taboldstyle
EndChar

StartChar: nine
Encoding: 57 57 17
Width: 478
VWidth: 487
Flags: HW
HStem: -10 35<70.4 150.187> 229 41<190.916 304.993> 540 38<180.796 278.27>
VStem: 42 113<308.24 481.586> 328 113<261.252 458.314>
LayerCount: 2
Back
SplineSet
412.26 394.747 m 4
 406.619 368.209 394.417 334.208 375.506 307.67 c 4
 355.593 280.304 327.788 258.741 293.787 258.741 c 4
 263.103 258.741 245.72 274.498 238.091 301.036 c 4
 230.287 326.744 232.539 360.745 240.295 397.234 c 4
 248.933 437.87 264.151 474.359 284.367 499.238 c 4
 304.584 524.117 327.483 538.216 356.509 538.216 c 4
 387.192 538.216 405.883 520.801 414.339 494.263 c 4
 421.967 467.726 420.192 432.065 412.26 394.747 c 4
518.282 331.72 m 4
 533.971 405.527 533.747 466.896 510.57 510.02 c 4
 486.564 553.143 440.436 578.021 364.97 578.021 c 4
 296.138 578.021 241.797 556.46 199.386 520.801 c 4
 156.977 485.141 129.16 436.212 117.35 380.648 c 4
 94.6104 273.669 146.252 212.301 253.23 212.301 c 4
 282.258 212.301 308.724 219.765 330.741 229.716 c 4
 351.93 239.668 369.502 252.107 379.61 264.547 c 5
 382.926 264.547 l 5
 371.097 220.594 351.294 162.543 319.032 116.102 c 4
 285.764 68.832 239.029 32.3428 178.49 32.3428 c 4
 132.88 32.3428 105.296 54.7334 106.75 104.492 c 5
 85.665 102.833 l 5
 81.4873 87.0762 75.1211 68.832 68.9316 51.417 c 4
 65.334 42.2939 61.9131 34.001 59.4971 26.5381 c 4
 56.9043 18.2441 53.8359 11.6104 51.7725 5.80469 c 5
 92.7295 -8.29297 133.789 -14.0977 171.107 -14.0977 c 4
 263.989 -14.0977 341.936 24.8789 400.115 87.9062 c 4
 458.117 150.104 498.011 236.351 518.282 331.72 c 4
169.759 578.125 m 25
 470.053 578.125 l 25
121.585 572.012 m 1
 560.55 572.012 l 1
 438.965 0 l 1
 0 0 l 1
 121.585 572.012 l 1
EndSplineSet
Fore
SplineSet
372.236 251.4 m 1
 342.374 233.7 306.438 226 278.038 226 c 0
 130.038 226 109.806 319 126.385 397 c 0
 143.177 476 219.857 578 357.857 578 c 0
 389.657 578 435.625 572.2 469.269 547 c 0
 512.918 514.3 538.714 450.3 514.844 338 c 0
 484.3 194.3 321.874 -10 68.874 -10 c 1
 73.3135 25 l 1
 134.583 30.5 289.598 42.7998 372.236 251.4 c 1
389.244 296.6 m 1
 392.567 308 398.526 331.8 400.481 341 c 0
 436.191 509 394.78 540 344.78 540 c 0
 311.78 540 265.662 497.1 245.873 404 c 0
 235.883 357 218.391 270 307.391 270 c 0
 324.891 270 352.288 271.4 389.244 296.6 c 1
EndSplineSet
AlternateSubs2: "'aalt' Alle Alternativen zeigen 1" nine.oldstyle nine.superior nine.fitted
Substitution2: "'sups' Hochgestellte 1" nine.superior
Substitution2: "'sinf' Wissenschaftliche Indices 1" nine.inferior
Substitution2: "'pnum' Proportionalziffern 1" nine.fitted
Substitution2: "'onum' Minuskelziffern 1" nine.taboldstyle
Colour: ff00ff
EndChar

StartChar: colon
Encoding: 58 58 18
Width: 246
VWidth: 999
Flags: HW
HStem: 35 129<93.7166 171.842 93.7166 171.842> 298 129<93.7166 171.842 93.7166 171.842>
VStem: 67 130<57.9991 138.027 57.9991 138.027 320.999 401.027 320.999 401.027>
LayerCount: 2
Fore
SplineSet
143.521 360 m 1
 144.583 365 l 1
 162.96 395 182.786 413 220.762 427 c 1
 224.762 427 l 1
 256.211 415 269.598 398 274.583 365 c 1
 273.521 360 l 1
 252.656 323 232.042 306 197.342 298 c 1
 193.342 298 l 1
 158.042 306 145.443 322 143.521 360 c 1
87.6182 97 m 1
 88.6807 102 l 1
 107.058 132 126.884 150 164.859 164 c 1
 168.859 164 l 1
 200.309 152 213.695 135 218.681 102 c 1
 217.618 97 l 1
 196.753 60 176.14 43 141.439 35 c 1
 137.439 35 l 1
 102.14 43 89.541 59 87.6182 97 c 1
EndSplineSet
Colour: ff00ff
EndChar

StartChar: less
Encoding: 60 60 19
Width: 512
Flags: HW
DStem2: 42 262 153 240 0.939793 0.341743<96.7987 435.295> 153 240 42 218 0.939793 -0.341743<0 338.496>
LayerCount: 2
Fore
SplineSet
204.014 240 m 1
 497.357 124 l 1
 484.179 62 l 1
 88.3369 218 l 1
 97.6895 262 l 1
 559.849 418 l 1
 546.67 356 l 1
 204.014 240 l 1
EndSplineSet
EndChar

StartChar: equal
Encoding: 61 61 20
Width: 551
Flags: HW
HStem: 142 56<59 493> 266 57<59 493>
LayerCount: 2
Back
SplineSet
-3.37305 257 m 25
 619.627 257 l 25
121.582 572 m 1
 648.582 572 l 1
 527 0 l 1
 0 0 l 1
 121.582 572 l 1
EndSplineSet
Fore
SplineSet
535.086 198 m 1
 523.183 142 l 1
 89.1826 142 l 1
 101.086 198 l 1
 535.086 198 l 1
561.656 323 m 1
 549.54 266 l 1
 115.54 266 l 1
 127.656 323 l 1
 561.656 323 l 1
EndSplineSet
AlternateSubs2: "'aalt' Alle Alternativen zeigen 1" equal.superior
Substitution2: "'sinf' Wissenschaftliche Indices 1" equal.inferior
Substitution2: "'sups' Hochgestellte 1" equal.superior
EndChar

StartChar: greater
Encoding: 62 62 21
Width: 512
Flags: HW
HStem: 60 356<42 42>
VStem: 42 429<259 354>
DStem2: 42 416 42 354 0.939669 -0.342086<21.2134 359.494> 42 122 42 60 0.940012 0.341142<0 338.447>
LayerCount: 2
Fore
SplineSet
409.589 238 m 1
 117.245 354 l 1
 130.424 416 l 1
 526.052 259 l 1
 516.699 215 l 1
 54.7529 60 l 1
 67.9316 122 l 1
 409.589 238 l 1
EndSplineSet
Colour: ff00ff
EndChar

StartChar: question
Encoding: 63 63 22
Width: 424
VWidth: 487
Flags: HW
HStem: -11 123<141.564 218.965> 610 49<134.252 249.962>
VStem: 118 124<9.77582 88.1892> 157 46<174.052 312.285> 275 113<440.546 581.583>
LayerCount: 2
Back
SplineSet
577.373 375.775 m 0
 595.431 395.306 619.829 412.618 650.561 427.71 c 0
 671.64 437.771 696.76 454.344 725.933 477.426 c 128
 753.244 498.73 769.626 522.847 775.047 549.78 c 0
 781.419 581.152 779.46 603.936 769.163 618.14 c 128
 752.807 640.034 732.785 650.986 709.113 650.986 c 0
 683.669 650.986 658.559 640.776 633.8 620.361 c 128
 614.001 603.789 600.304 585.293 592.712 564.873 c 1
 555.425 564.873 l 1
 566.274 615.918 l 1
 575.452 625.684 595.446 639.004 626.258 655.869 c 128
 650.458 669.487 681.2 676.289 718.49 676.289 c 0
 770.277 676.289 804.773 661.787 821.988 632.788 c 128
 835.902 609.116 839.521 581.597 832.852 550.225 c 0
 826.625 520.928 809.278 492.222 780.812 464.109 c 128
 756.484 440.139 721.857 416.465 676.937 393.086 c 0
 651.973 380.065 632.28 364.678 617.852 346.922 c 0
 604.329 330.646 595.809 314.221 592.286 297.65 c 0
 589.016 282.261 590.928 269.685 598.025 259.919 c 0
 608.15 246.307 622.652 239.352 641.531 239.056 c 0
 661.888 238.76 689.007 242.459 722.902 250.152 c 1
 720.167 237.281 l 1
 711.746 231.066 700.068 224.852 685.13 218.637 c 0
 668.658 212.127 649.591 208.724 627.921 208.428 c 0
 596.423 207.836 571.376 215.974 552.763 232.842 c 0
 534.618 249.117 528.931 271.756 535.684 300.758 c 8
 541.871 327.095 555.774 352.101 577.373 375.775 c 0
EndSplineSet
Fore
SplineSet
324.659 610 m 0
 268.659 610 217.244 561 181.679 516 c 1
 168.892 517 l 1
 169.046 593 l 1
 172.896 597 l 1
 201.754 617.5 271.575 659 344.075 659 c 0
 446.075 659 515.321 599 495.979 508 c 0
 479.187 429 391.834 385 337.607 351 c 0
 304.158 329.6 267.192 302 251.463 228 c 2
 243.173 189 l 2
 241.686 182 224.984 174 216.984 174 c 0
 208.984 174 195.686 182 197.173 189 c 2
 205.888 230 l 2
 215.028 273 240.041 331.4 317.109 391 c 0
 364.975 428 372.139 457 382.129 504 c 0
 395.944 569 381.659 610 324.659 610 c 0
129.203 48 m 1
 130.266 53 l 1
 148.643 83 168.468 101 206.444 115 c 1
 210.444 115 l 1
 241.894 103 255.28 86 260.266 53 c 1
 259.203 48 l 1
 238.338 11 217.725 -6 183.024 -14 c 1
 179.024 -14 l 1
 143.725 -6 131.126 10 129.203 48 c 1
EndSplineSet
Colour: ff80cc
EndChar

StartChar: at
Encoding: 64 64 23
Width: 988
Flags: HMW
HStem: -160 39<407.274 632.859> 19 42<603 706.824> 30 42<431.029 515.602> 382 33<504.201 588.744> 584 37<401.936 597.238>
VStem: 92 94<102.389 345.27> 317 97<85.6604 259.227> 805 85<185.117 389.903>
LayerCount: 2
Back
SplineSet
668.654 46.875 m 0xbf
 666.268 35.6445 676.003 33.2031 678.444 33.2031 c 0
 799.05 33.2031 888.469 77.1484 933.512 289.062 c 0
 989.35 551.758 809.32 648.926 661.859 648.926 c 0
 483.148 648.926 252.935 521.484 193.672 242.676 c 0
 163.366 100.098 180.257 -187.988 494.222 -187.988 c 0
 594.319 -187.988 673.582 -159.668 747.644 -109.863 c 1
 758.702 -131.348 l 1
 676.589 -184.57 596.863 -226.562 464.05 -226.562 c 0
 197.447 -226.562 53.7158 -22.9492 107.062 228.027 c 0
 160.928 481.445 396.487 684.57 669.924 684.57 c 0
 922.365 684.57 1055.77 505.859 1008.85 285.156 c 0
 980.416 151.367 881.183 -5.37109 625.812 -5.37109 c 0xdf
 591.631 -5.37109 588.936 20.9961 592.983 40.0391 c 0
 596.928 58.5938 607.103 83.4961 623.511 114.746 c 1
 533.387 14.6484 473.498 -2.92969 442.248 -2.92969 c 0
 325.062 -2.92969 324.896 92.7734 334.756 139.16 c 0
 370.666 308.105 542.658 441.895 667.17 441.895 c 0
 706.721 441.895 742.017 421.875 747.3 391.602 c 1
 759.18 419.922 l 1
 818.444 434.57 l 1
 835.267 428.711 l 1
 700.886 125 l 2
 686.815 93.2617 670.73 56.6406 668.654 46.875 c 0xbf
719.147 334.961 m 0
 728.384 378.418 705.553 411.133 664.049 411.133 c 0
 643.541 411.133 594.121 410.645 541.677 363.77 c 0
 471.472 302.246 433.069 222.656 417.709 150.391 c 0
 405.773 94.2383 412.6 39.0625 486.33 39.0625 c 0xbf
 518.069 39.0625 604.034 103.516 651.713 183.105 c 0
 673.865 220.703 713.023 306.152 719.147 334.961 c 0
EndSplineSet
Fore
SplineSet
674.019 320 m 0
 681.458 355 663.196 382 638.196 382 c 0
 624.196 382 592.142 380.8 548.907 343 c 0
 493.861 294.8 462.25 227 448.859 164 c 0
 438.869 117 438.304 72 485.304 72 c 0
 515.304 72 572.743 107 618.023 193 c 0
 635.038 226 668.917 296 674.019 320 c 0
655.941 75 m 0
 653.179 62 659.966 61 670.966 61 c 0
 707.966 61 832.42 129 863.028 273 c 0
 910.003 494 745.133 584 628.133 584 c 0
 473.133 584 283.563 459 234.463 228 c 0
 203.005 80 251.28 -121 495.28 -121 c 0
 572.28 -121 648.382 -97 721.223 -46 c 1
 732.372 -50 736.821 -62 736.059 -75 c 1
 661.643 -124 590.991 -160 467.991 -160 c 0
 230.991 -160 90.5117 -7 138.975 221 c 0
 182.975 428 391.998 621 644.998 621 c 0
 870.998 621 991.177 476 951.004 287 c 0
 921.246 147 776.039 19 642.039 19 c 0
 572.039 19 561.69 55 566.154 76 c 1
 517.077 38 474.377 30 450.377 30 c 0
 334.377 30 341.869 117 350.584 158 c 0
 381.404 303 527.211 415 642.211 415 c 0
 690.211 415 715.598 398 728.134 377 c 1
 772.148 410 l 1
 796.811 399 l 1
 682.971 141 l 2
 671.544 115 658.28 86 655.941 75 c 0
EndSplineSet
EndChar

StartChar: A
Encoding: 65 65 24
Width: 669
Flags: HW
HStem: -3 21G<24 68.5 113 136.444 500.087 513.5 632 648.5> 221 53<210.237 444.333> 638 20G<265 429>
AnchorPoint: "unten_punkt" 247.044 -108 basechar 0
AnchorPoint: "unten_anhang" 59.7002 8 basechar 0
AnchorPoint: "top_akzent" 511.62 798 basechar 0
AnchorPoint: "top_punkt" 490.79 700 basechar 0
LayerCount: 2
Back
SplineSet
148.792 79 m 6
 133.371 53.5967 141.253 31.583 178.164 29 c 6
 206.739 27 l 6
 210.672 26.7246 214.102 24 213.039 19 c 6
 209 0 l 5
 206.575 -2 l 5
 206.575 -2 98 0 74 0 c 4
 48 0 -16.4248 -2 -16.4248 -2 c 5
 -18 0 l 5
 -13.9609 19 l 6
 -12.8984 24 -9.32227 26.6562 -4.26074 27 c 4
 39.877 30 67.2002 37.7783 108.664 102 c 6
 441.614 622.333 l 6
 454.646 642.698 471.529 658 483.862 658 c 4
 494.862 658 500.151 648.121 503.485 628 c 6
 593.28 86 l 6
 598.99 47 615.914 31.6191 654.951 28 c 6
 665.739 27 l 6
 670.623 26.5469 675.102 24 674.039 19 c 6
 670 0 l 5
 666.575 -2 l 5
 666.575 -2 590 0 551 0 c 4
 516 0 417.575 -2 417.575 -2 c 5
 417 0 l 5
 421.039 19 l 6
 422.102 24 424.676 26.6436 429.739 27 c 6
 458.164 29 l 6
 496.51 31.6982 513.413 44.3066 509.304 72 c 6
 484.227 241 l 5
 276.227 241 l 6
 252.227 241 245.361 236.649 237.612 224 c 6
 148.792 79 l 6
303.153 283 m 6
 477.153 283 l 5
 435.906 550 l 5
 434.906 550 l 5
 280.813 296.333 l 6
 274.276 285.571 287.118 283 303.153 283 c 6
EndSplineSet
Fore
SplineSet
423.836 499.8 m 1
 280.244 275.9 l 1
 311.859 275.5 355.341 274 384.24 274 c 0
 407.94 274 439.447 274.5 467.975 275.1 c 1
 456.842 339.4 442.483 414.4 423.836 499.8 c 1
244.893 219.2 m 1
 192.916 135.1 146.746 56.2002 118.362 -3 c 1
 107 0 85 0 74 0 c 0
 63 0 30 0 17.3623 -3 c 1
 165.337 218 309.675 436 452.862 658 c 1
 522.862 658 l 1
 568.312 439 627.83 98 656.362 -3 c 1
 640 0 593 0 576 0 c 0
 559 0 522 0 504.362 -3 c 1
 502.975 18.7002 497.217 93.7002 477.198 219.7 c 1
 444.647 220.4 410.075 221 377.975 221 c 0
 342.275 221 283.084 220.1 244.893 219.2 c 1
EndSplineSet
Position2: "'cpsp' Versalabstaende 1" dx=2 dy=0 dh=5 dv=0
Substitution2: "'c2sc' Versale nach Kapitaelchen 1" a.sc
EndChar

StartChar: B
Encoding: 66 66 25
Width: 645
VWidth: 999
Flags: HW
HStem: -3 53<200.52 424.714> 322 53<225 390.016> 595 53<199.153 388.423>
VStem: 103 122<61.1856 322 375 585.479> 416 129<423.825 565.546> 463 141<106.228 265.94>
AnchorPoint: "unten_punkt" 245.044 -108 basechar 0
AnchorPoint: "unten_anhang" 250 0 basechar 0
AnchorPoint: "top_punkt" 430.79 700 basechar 0
AnchorPoint: "top_akzent" 450.62 798 basechar 0
LayerCount: 2
Fore
SplineSet
341.906 550 m 2
 304.709 375 l 1
 382.709 375 l 2
 465.709 375 500.173 396 518.239 481 c 0
 539.921 583 498.471 595 442.471 595 c 0
 361.471 595 348.921 583 341.906 550 c 2
293.443 322 m 1
 245.618 97 l 2
 238.604 64 252.628 50 322.628 50 c 0
 456.628 50 482.556 92 498.072 165 c 0
 517.202 255 503.443 322 386.443 322 c 2
 293.443 322 l 1
304.099 645 m 0
 359.099 645 411.736 648 446.736 648 c 0
 632.736 648 664.031 560 649.79 493 c 0
 638.1 438 584.834 385 528.521 360 c 1
 610.206 335 663.516 280 643.11 184 c 0
 624.83 98 529.362 -3 330.362 -3 c 0
 241.362 -3 231 0 167 0 c 0
 132 0 93.3623 -3 93.3623 -3 c 1
 93 0 l 1
 112.479 54 129.569 125 145.512 200 c 2
 197.588 445 l 2
 213.529 520 225.983 588 230.099 645 c 1
 232.736 648 l 1
 232.736 648 270.099 645 304.099 645 c 0
EndSplineSet
Position2: "'cpsp' Versalabstaende 1" dx=2 dy=0 dh=5 dv=0
Substitution2: "'c2sc' Versale nach Kapitaelchen 1" b.sc
EndChar

StartChar: C
Encoding: 67 67 26
Width: 671
VWidth: 999
Flags: HW
HStem: -10 60<294.668 483.017> 602 56<291.215 473.617>
VStem: 37 143<195.035 441.231>
AnchorPoint: "unten_punkt" 345.619 -110 basechar 0
AnchorPoint: "unten_anhang" 360.512 -7 basechar 0
AnchorPoint: "top_punkt" 514.79 700 basechar 0
AnchorPoint: "top_akzent" 535.62 798 basechar 0
LayerCount: 2
Back
SplineSet
709.961 645.508 m 5
 692.056 471.68 l 5
 661.647 468.75 l 5
 663.457 511.719 647.947 606.445 596.188 606.445 c 6
EndSplineSet
Fore
SplineSet
525.862 658 m 0
 647.862 658 734.297 613 734.297 613 c 1
 735.659 610 l 1
 713.381 560.7 702.468 531 688.027 480 c 1
 677.814 479 l 1
 654.244 561 589.959 602 499.959 602 c 0
 417.959 602 294.143 537 250.994 334 c 0
 221.023 193 248.628 50 391.628 50 c 0
 484.628 50 533.241 67 623.545 139 c 1
 640.318 105 l 1
 537.826 18 449.074 -10 359.874 -10 c 0
 144.874 -10 69.7334 154 103.955 315 c 0
 127.315 424.9 193.118 522.3 285.133 584 c 0
 358.006 632.8 434.862 658 525.862 658 c 0
EndSplineSet
Position2: "'cpsp' Versalabstaende 1" dx=2 dy=0 dh=5 dv=0
Substitution2: "'c2sc' Versale nach Kapitaelchen 1" c.sc
EndChar

StartChar: D
Encoding: 68 68 27
Width: 751
VWidth: 999
Flags: HW
HStem: -2 53<198.527 472.703> 595 53<199.347 430.093>
VStem: 101 124<61.1856 585.479> 563 145<184.471 417.062>
LayerCount: 2
Fore
SplineSet
244.343 91 m 2
 237.541 59 250.841 51 348.841 51 c 0
 489.841 51 580.43 82 623.366 284 c 0
 656.1 438 655.471 595 439.471 595 c 0
 390.471 595 350.408 590 342.969 555 c 2
 244.343 91 l 2
302.099 645 m 0
 375.099 645 415.736 648 488.736 648 c 0
 680.736 648 813.003 494 773.468 308 c 0
 721.179 62 509.575 -2 368.575 -2 c 0
 265.575 -2 245 0 165 0 c 0
 130 0 91.3623 -3 91.3623 -3 c 1
 91 0 l 1
 110.479 54 127.569 125 143.512 200 c 2
 195.588 445 l 2
 211.529 520 223.983 588 228.099 645 c 1
 230.736 648 l 1
 230.736 648 268.099 645 302.099 645 c 0
EndSplineSet
Position2: "'cpsp' Versalabstaende 1" dx=2 dy=0 dh=5 dv=0
Substitution2: "'c2sc' Versale nach Kapitaelchen 1" d.sc
EndChar

StartChar: E
Encoding: 69 69 28
Width: 564
VWidth: 999
Flags: HW
HStem: 0 63<224.662 454.553> 316 51<220 436.024> 575 21G<228 506> 587 58<224.662 452.004>
VStem: 96 124<64.202 316 367 585.479>
AnchorPoint: "unten_anhang" 279.851 4 basechar 0
AnchorPoint: "unten_punkt" 256.257 -107 basechar 0
AnchorPoint: "top_punkt" 428.79 700 basechar 0
AnchorPoint: "top_akzent" 454.108 805 basechar 0
LayerCount: 2
Back
SplineSet
129.884 150 m 6x3d
 206.404 510 l 6
 228.51 614 229.698 629 172.186 636 c 6
 156.611 638 l 5
 151.461 642 157.287 660 163.925 663 c 5x3b
 206.5 661 240.287 660 281.287 660 c 6
 469.287 660 l 6x3d
 533.287 660 592.287 660 604.925 663 c 5x3b
 607.312 646 598.008 574 592.655 530 c 5
 587.38 524 570.954 522 567.229 528 c 5
 562.22 575 560.659 610 511.423 623 c 4
 491.485 628 459.698 629 415.698 629 c 6
 343.698 629 l 6
 313.698 629 313.273 627 305.195 589 c 6
 262.685 389 l 6
 256.732 361 259.732 361 289.732 361 c 6
 347.732 361 l 6
 389.732 361 421.158 363 434.008 367 c 4
 446.858 371 455.134 377 465.447 402 c 6
 482.162 443 l 5
 488.438 449 505.438 449 507.95 442 c 5
 502.849 418 490.559 379 482.481 341 c 4
 474.83 305 470.753 267 466.076 245 c 5
 460.589 238 443.589 238 439.864 244 c 5
 439.153 283 l 6
 438.979 301 435.168 316 416.23 321 c 4
 403.081 325 379.293 326 340.293 326 c 6
 282.293 326 l 6
 252.293 326 249.081 325 243.555 299 c 6
 213.584 158 l 6
 202.318 105 198.092 71 210.479 54 c 4
 219.928 42 238.589 31 326.589 31 c 4
 403.589 31 433.439 35 457.777 46 c 4
 477.903 56 512.343 91 549.396 143 c 5
 557.458 148 570.82 145 572.908 136 c 5
 558.468 101 517.102 24 498.362 -3 c 5
 408.787 -1 320 0 231 0 c 6
 141 0 l 6x3d
 98 0 63.7871 -1 4.3623 -3 c 5x9d
 -1 0 0.401367 16 7.67578 22 c 5
 41.3135 25 l 6x5d
 99.377 30 107.565 45 129.884 150 c 6x3d
EndSplineSet
Fore
SplineSet
262.512 200 m 2
 258.897 183 239.492 87 241.391 63 c 1
 375.391 63 529.941 75 529.941 75 c 1
 531.092 71 l 1
 528.391 63 523.777 46 521.652 36 c 0
 519.526 26 517.976 14 516 0 c 1
 513.362 -3 l 1
 497.787 -1 475 0 454 0 c 2
 160 0 l 2
 125 0 86.3623 -3 86.3623 -3 c 1
 86 0 l 1
 105.479 54 122.569 125 138.512 200 c 2
 190.588 445 l 2
 206.529 520 218.983 588 223.099 645 c 1
 225.736 648 l 1
 225.736 648 263.099 645 297.099 645 c 0
 327.099 645 581.099 645 581.099 645 c 2
 602.099 645 625.312 646 641.736 648 c 1
 643.099 645 l 1
 639.123 631 635.36 618 633.659 610 c 0
 631.746 601 629.771 587 629.07 579 c 1
 626.22 575 l 1
 626.22 575 486.771 587 352.771 587 c 1
 340.669 563 318.201 462 314.588 445 c 2
 298.008 367 l 1
 416.008 367 467.071 372 527.134 377 c 1
 529.496 374 l 1
 525.583 365 521.607 351 519.694 342 c 0
 517.781 333 515.593 318 515.68 309 c 1
 512.042 306 l 1
 444.53 313 335.168 316 287.168 316 c 1
 262.512 200 l 2
EndSplineSet
Position2: "'cpsp' Versalabstaende 1" dx=2 dy=0 dh=5 dv=0
Substitution2: "'c2sc' Versale nach Kapitaelchen 1" e.sc
EndChar

StartChar: F
Encoding: 70 70 29
Width: 519
VWidth: 999
Flags: HW
HStem: -3 21G<88 162 162 232> 316 51<222 438.024> 575 21G<230 508> 587 58<226.662 454.004>
VStem: 98 124<2.67992 316 367 585.479>
AnchorPoint: "unten_anhang" 144.787 -1 basechar 0
AnchorPoint: "unten_punkt" 177.406 -111 basechar 0
AnchorPoint: "top_punkt" 435.79 700 basechar 0
AnchorPoint: "top_akzent" 455.62 798 basechar 0
LayerCount: 2
Fore
SplineSet
580.099 645 m 2
 604.099 645 627.312 646 643.736 648 c 1
 645.099 645 l 1
 641.123 631 637.36 618 635.659 610 c 0
 633.746 601 631.771 587 631.07 579 c 1
 628.22 575 l 1
 628.22 575 488.771 587 354.771 587 c 1
 342.669 563 320.201 462 316.588 445 c 2
 300.008 367 l 1
 418.008 367 469.071 372 529.134 377 c 1
 531.496 374 l 1
 527.583 365 523.607 351 521.694 342 c 0
 519.781 333 517.593 318 517.68 309 c 1
 514.042 306 l 1
 446.53 313 337.168 316 289.168 316 c 1
 264.512 200 l 2
 248.569 125 236.115 57 232 0 c 1
 229.362 -3 l 1
 229.362 -3 196 0 162 0 c 0
 127 0 88.3623 -3 88.3623 -3 c 1
 88 0 l 1
 107.479 54 124.569 125 140.512 200 c 2
 192.588 445 l 2
 208.529 520 220.983 588 225.099 645 c 1
 227.736 648 l 1
 227.736 648 265.099 645 299.099 645 c 2
 580.099 645 l 2
EndSplineSet
Position2: "'cpsp' Versalabstaende 1" dx=2 dy=0 dh=5 dv=0
Substitution2: "'c2sc' Versale nach Kapitaelchen 1" f.sc
EndChar

StartChar: G
Encoding: 71 71 30
Width: 750
VWidth: 999
Flags: HW
HStem: -10 55<314.638 521.515> 602 56<298.087 495.993>
VStem: 39 138<204.618 438.594> 546 128<83.3557 304.327>
AnchorPoint: "unten_anhang" 371.425 2 basechar 0
AnchorPoint: "unten_punkt" 347.406 -111 basechar 0
AnchorPoint: "top_punkt" 517.79 700 basechar 0
AnchorPoint: "top_akzent" 538.62 798 basechar 0
LayerCount: 2
Back
SplineSet
723.516 612.793 m 5
 714.953 558.179 713.823 509.766 712.69 458.496 c 5
 681.379 453.613 l 5
 673.768 539.551 633.482 621.094 494.811 621.094 c 4
EndSplineSet
Fore
SplineSet
570.869 117 m 2
 586.811 192 597.139 250 601.255 307 c 1
 603.893 310 l 1
 603.893 310 641.255 307 675.255 307 c 0
 710.255 307 748.893 310 748.893 310 c 1
 749.255 307 l 1
 729.989 254 719.062 212 703.12 137 c 0
 696.233 104.6 697.137 90.5 701.643 83 c 1
 701.005 80 l 1
 621.474 23.4004 501.374 -10 384.874 -10 c 0
 183.874 -10 67.4824 134 104.255 307 c 0
 128.273 420 189.973 515.5 277.22 575 c 0
 357.91 630 441.862 658 541.862 658 c 0
 663.862 658 771.297 613 771.297 613 c 1
 772.659 610 l 1
 750.381 560.7 739.468 531 725.027 480 c 1
 704.814 479 l 1
 681.244 561 605.959 602 515.959 602 c 0
 380.959 602 280.728 488 246.506 327 c 0
 218.448 195 253.565 45 419.565 45 c 0
 473.565 45 522.841 51 563.643 83 c 1
 570.869 117 l 2
EndSplineSet
Position2: "'cpsp' Versalabstaende 1" dx=2 dy=0 dh=5 dv=0
Substitution2: "'c2sc' Versale nach Kapitaelchen 1" g.sc
EndChar

StartChar: grave
Encoding: 96 96 31
Width: 392
VWidth: 999
Flags: HW
LayerCount: 2
Fore
SplineSet
347.215 702 m 1
 389.857 578 l 2
 392.37 571 395.031 560 393.331 552 c 0
 391.418 543 381.931 536 372.931 536 c 0
 364.931 536 356.114 541.1 342.182 556 c 2
 243.5 661 l 1
 247.838 672 l 1
 257.751 681 291.64 704 327.64 704 c 0
 332.64 704 343.428 703 347.215 702 c 1
EndSplineSet
Substitution2: "'case' Versalformen 1" grave.cap
Colour: ff00ff
EndChar

StartChar: ograve
Encoding: 242 242 32
Width: 528
VWidth: 999
Flags: HW
HStem: -10 50<216.893 336.152> 389 50<201.272 329.488>
VStem: 36 128<111.605 310.233> 374 128<119.272 316.433>
LayerCount: 2
Back
SplineSet
52.1992 672.852 m 5
 671.339 672.852 l 5
 636.777 510.254 l 5
 17.6377 510.254 l 5
 52.1992 672.852 l 5
EndSplineSet
Fore
SplineSet
397.263 674 m 1
 439.906 550 l 2
 442.418 543 445.08 532 443.38 524 c 0
 441.467 515 431.979 508 422.979 508 c 0
 414.979 508 406.163 513.1 392.229 528 c 2
 293.548 633 l 1
 297.887 644 l 1
 307.8 653 341.688 676 377.688 676 c 0
 382.688 676 393.476 675 397.263 674 c 1
79.5742 205 m 0
 108.694 342 216.312 439 359.312 439 c 0
 528.312 439 559.593 318 537.487 214 c 0
 514.743 107 414.874 -10 261.874 -10 c 0
 112.874 -10 56.1934 95 79.5742 205 c 0
341.685 389 m 0
 255.685 389 230.955 315 212.463 228 c 0
 196.096 151 182.502 40 286.502 40 c 0
 331.502 40 379.304 72 403.748 187 c 0
 433.293 326 426.685 389 341.685 389 c 0
EndSplineSet
Substitution2: "'smcp' Gemeine nach Kapitaelchen 1" ograve.sc
AlternateSubs2: "'aalt' Alle Alternativen zeigen 1" ograve.sc
Colour: ff00ff
EndChar

StartChar: oacute
Encoding: 243 243 33
Width: 528
VWidth: 999
Flags: HW
HStem: -10 50<216.893 336.152> 389 50<201.272 329.488>
VStem: 36 128<111.605 310.233> 374 128<119.272 316.433>
LayerCount: 2
Back
SplineSet
52.1992 672.852 m 5
 671.339 672.852 l 5
 636.777 510.254 l 5
 17.6377 510.254 l 5
 52.1992 672.852 l 5
EndSplineSet
Fore
SplineSet
435.263 674 m 1
 438.476 675 446.688 676 451.688 676 c 0
 481.688 676 497.713 662 503.587 652 c 1
 508.698 629 l 1
 365.742 521 l 2
 349.191 509 334.341 505 324.341 505 c 0
 316.341 505 310.041 513 311.316 519 c 0
 312.592 525 316.505 534 324.418 543 c 2
 435.263 674 l 1
79.5742 205 m 0
 108.694 342 216.312 439 359.312 439 c 0
 528.312 439 559.593 318 537.487 214 c 0
 514.743 107 414.874 -10 261.874 -10 c 0
 112.874 -10 56.1934 95 79.5742 205 c 0
341.685 389 m 0
 255.685 389 230.955 315 212.463 228 c 0
 196.096 151 182.502 40 286.502 40 c 0
 331.502 40 379.304 72 403.748 187 c 0
 433.293 326 426.685 389 341.685 389 c 0
EndSplineSet
Substitution2: "'smcp' Gemeine nach Kapitaelchen 1" oacute.sc
AlternateSubs2: "'aalt' Alle Alternativen zeigen 1" oacute.sc
Colour: ff00ff
EndChar

StartChar: ocircumflex
Encoding: 244 244 34
Width: 528
VWidth: 999
Flags: HW
HStem: -10 50<216.893 336.152> 389 50<201.272 329.488>
VStem: 36 128<111.605 310.233> 125 253<517 517> 374 128<119.272 316.433>
LayerCount: 2
Back
SplineSet
289.062 645.508 m 1
 307.907 598.633 335.395 555.664 362.529 515.625 c 1
 339.219 502.441 l 1
 306.279 531.25 277.882 556.152 251.871 592.285 c 1
 206.666 554.199 168.658 529.297 125.84 502.441 c 1
 109.111 515.625 l 1
 152.674 555.176 200.205 599.609 239.258 645.508 c 1
 289.062 645.508 l 1
50.5742 664.062 m 1
 669.227 664.062 l 1
 634.51 500.732 l 1
 15.8574 500.732 l 1
 50.5742 664.062 l 1
EndSplineSet
Fore
SplineSet
427.949 649 m 1
 447.534 600 476.182 556 504.467 515 c 1
 475.428 496 l 1
 437.954 522 413.206 542 386.07 579 c 1
 339.78 540 307.954 522 262.428 496 c 1
 241.467 515 l 1
 286.182 556 335.746 601 375.949 649 c 1
 427.949 649 l 1
79.5742 205 m 0
 108.694 342 216.312 439 359.312 439 c 0
 528.312 439 559.593 318 537.487 214 c 0
 514.743 107 414.874 -10 261.874 -10 c 0
 112.874 -10 56.1934 95 79.5742 205 c 0
341.685 389 m 0
 255.685 389 230.955 315 212.463 228 c 0
 196.096 151 182.502 40 286.502 40 c 0
 331.502 40 379.304 72 403.748 187 c 0
 433.293 326 426.685 389 341.685 389 c 0
EndSplineSet
Substitution2: "'smcp' Gemeine nach Kapitaelchen 1" ocircumflex.sc
AlternateSubs2: "'aalt' Alle Alternativen zeigen 1" ocircumflex.sc
Colour: ff00ff
EndChar

StartChar: otilde
Encoding: 245 245 35
Width: 528
VWidth: 999
Flags: HW
HStem: -10 50<216.893 336.152> 389 50<201.272 329.488> 526 44<263 350> 574 46<145 236> 613 10
VStem: 36 128<111.605 310.233> 374 128<119.272 316.433>
LayerCount: 2
Back
SplineSet
44.334 622.07 m 5
 663.475 622.07 l 5
 642.926 525.391 l 5
 23.7852 525.391 l 5
 44.334 622.07 l 5
EndSplineSet
Fore
SplineSet
451.008 574 m 0
 473.008 574 487.921 583 512.336 632 c 1
 538.21 622 l 1
 510.756 554 472.254 514 424.254 514 c 0
 401.254 514 382.442 529 365.631 544 c 1
 348.394 557 331.157 570 313.157 570 c 0
 286.157 570 271.969 555 252.892 517 c 1
 228.592 525 l 1
 257.046 593 289.123 631 334.123 631 c 0
 365.123 631 384.723 615 401.321 599 c 0
 416.346 585 431.008 574 451.008 574 c 0
79.5742 205 m 0
 108.694 342 216.312 439 359.312 439 c 0
 528.312 439 559.593 318 537.487 214 c 0
 514.743 107 414.874 -10 261.874 -10 c 0
 112.874 -10 56.1934 95 79.5742 205 c 0
341.685 389 m 0
 255.685 389 230.955 315 212.463 228 c 0
 196.096 151 182.502 40 286.502 40 c 0
 331.502 40 379.304 72 403.748 187 c 0
 433.293 326 426.685 389 341.685 389 c 0
EndSplineSet
Substitution2: "'smcp' Gemeine nach Kapitaelchen 1" otilde.sc
AlternateSubs2: "'aalt' Alle Alternativen zeigen 1" otilde.sc
Colour: ff00ff
EndChar

StartChar: odieresis
Encoding: 246 246 36
Width: 528
VWidth: 999
Flags: HW
HStem: -10 50<215.541 330.028> 389 50<197.099 323.75> 515 113<125.23 214.003 314.997 403.77>
VStem: 36 128<109.813 311.881> 113 113<527.23 616.003> 303 113<527.23 616.003> 364 128<117.449 318.32>
LayerCount: 2
Back
SplineSet
40.4707 617.676 m 5
 659.611 617.676 l 5
 640.307 526.855 l 5
 21.166 526.855 l 5
 40.4707 617.676 l 5
EndSplineSet
Fore
SplineSet
424.37 571 m 0
 431.172 603 461.485 628 493.485 628 c 0
 523.485 628 544.172 603 537.37 571 c 0
 530.993 541 499.467 515 469.467 515 c 0
 437.467 515 417.993 541 424.37 571 c 0
234.37 571 m 0
 241.172 603 272.485 628 302.485 628 c 0
 334.485 628 354.172 603 347.37 571 c 0
 340.993 541 310.467 515 278.467 515 c 0
 248.467 515 227.993 541 234.37 571 c 0
79.5742 205 m 0
 108.694 342 216.312 439 359.312 439 c 0
 528.312 439 559.593 318 537.487 214 c 0
 514.743 107 414.874 -10 261.874 -10 c 0
 112.874 -10 56.1934 95 79.5742 205 c 0
341.685 389 m 0
 255.685 389 230.955 315 212.463 228 c 0
 196.096 151 182.502 40 286.502 40 c 0
 331.502 40 379.304 72 403.748 187 c 0
 433.293 326 426.685 389 341.685 389 c 0
EndSplineSet
Substitution2: "'smcp' Gemeine nach Kapitaelchen 1" odieresis.sc
AlternateSubs2: "'aalt' Alle Alternativen zeigen 1" odieresis.sc
Colour: ff00ff
EndChar

StartChar: divide
Encoding: 247 247 37
Width: 527
VWidth: 999
Flags: HW
HStem: 52.8 103.1<242.2 307.073> 208 49<66 461> 320.8 103.1<242.2 307.073>
VStem: 222.4 103.9<338.194 403.915> 222.4 103.9<70.1935 135.915>
LayerCount: 2
Back
SplineSet
-3.51367 256.836 m 29
 620.022 256.836 l 29
121.585 572.012 m 5
 648.929 572.012 l 5
 527.344 0 l 5
 0 0 l 5
 121.585 572.012 l 5
EndSplineSet
Fore
SplineSet
301.988 370.2 m 1
 302.881 374.4 l 1
 318.316 399.5 334.947 414.7 366.734 426.4 c 1
 370.034 426.4 l 1
 396.388 416.3 407.569 402.1 411.781 374.4 c 1
 410.889 370.2 l 1
 393.399 339.2 376.181 325 347.057 318.3 c 1
 343.757 318.3 l 1
 314.181 325 303.629 338.4 301.988 370.2 c 1
245.023 102.2 m 1
 245.916 106.4 l 1
 261.352 131.5 277.982 146.7 309.769 158.4 c 1
 313.069 158.4 l 1
 339.422 148.3 350.604 134.1 354.816 106.4 c 1
 353.923 102.2 l 1
 336.434 71.2002 319.216 57 290.092 50.2998 c 1
 286.792 50.2998 l 1
 257.216 57 246.664 70.4004 245.023 102.2 c 1
515.627 257 m 1
 505.212 208 l 1
 110.212 208 l 1
 120.627 257 l 1
 515.627 257 l 1
EndSplineSet
Colour: ff00ff
EndChar

StartChar: ugrave
Encoding: 249 249 38
Width: 563
VWidth: 999
Flags: HW
HStem: -10 64<226.889 326.154> -3 21<401 410.667 514.5 523> 412 20<74 143 143 212 378 447 447 516>
VStem: 84 118<78.6508 426.335> 388 118<106.355 426.335>
LayerCount: 2
Back
SplineSet
52.1992 672.852 m 5
 671.339 672.852 l 5
 636.777 510.254 l 5
 17.6377 510.254 l 5
 52.1992 672.852 l 5
EndSplineSet
Fore
SplineSet
391.263 674 m 1
 433.906 550 l 2
 436.418 543 439.08 532 437.38 524 c 0
 435.467 515 425.979 508 416.979 508 c 0
 408.979 508 400.163 513.1 386.229 528 c 2
 287.548 633 l 1
 291.887 644 l 1
 301.8 653 335.688 676 371.688 676 c 0
 376.688 676 387.476 675 391.263 674 c 1
371.604 64 m 1
 302.851 4 248.874 -10 207.874 -10 c 0
 108.874 -10 82.1152 57 97.7822 126 c 2
 125.927 249 l 2
 143.23 321 150.071 372 156.187 429 c 1
 158.824 432 l 1
 158.824 432 190.187 429 224.187 429 c 0
 259.187 429 289.824 432 289.824 432 c 1
 290.187 429 l 1
 272.559 379 262.368 324 243.927 249 c 2
 222.797 159 l 2
 203.566 77 227.903 56 257.903 56 c 0
 302.703 56 377.13 90 389.458 148 c 2
 410.927 249 l 2
 427.081 325 437.283 373 442.187 429 c 1
 444.824 432 l 1
 444.824 432 474.187 429 508.187 429 c 0
 543.187 429 575.824 432 575.824 432 c 1
 576.187 429 l 1
 555.921 376 544.868 324 528.927 249 c 2
 516.811 192 l 2
 500.869 117 494.14 43 493 0 c 1
 490.362 -3 l 1
 477.787 -1 440.1 0 427.5 0 c 0
 413 0 387.023 -1.2998 373.362 -3 c 0
 367.362 -3 364.575 -2 365 0 c 2
 373.604 64 l 1
 371.604 64 l 1
EndSplineSet
Substitution2: "'smcp' Gemeine nach Kapitaelchen 1" ugrave.sc
AlternateSubs2: "'aalt' Alle Alternativen zeigen 1" ugrave.sc
Colour: ff00ff
EndChar

StartChar: uacute
Encoding: 250 250 39
Width: 563
VWidth: 999
Flags: HW
HStem: -10 64<226.889 326.154> -3 21<401 410.667 514.5 523> 412 20<74 143 143 212 378 447 447 516>
VStem: 84 118<78.6508 426.335> 388 118<106.355 426.335>
LayerCount: 2
Back
SplineSet
52.1992 672.852 m 5
 671.339 672.852 l 5
 636.777 510.254 l 5
 17.6377 510.254 l 5
 52.1992 672.852 l 5
EndSplineSet
Fore
SplineSet
461.263 674 m 1
 464.476 675 472.688 676 477.688 676 c 0
 507.688 676 523.713 662 529.587 652 c 1
 534.698 629 l 1
 391.742 521 l 2
 375.191 509 360.341 505 350.341 505 c 0
 342.341 505 336.041 513 337.316 519 c 0
 338.592 525 342.505 534 350.418 543 c 2
 461.263 674 l 1
371.604 64 m 1
 302.851 4 248.874 -10 207.874 -10 c 0
 108.874 -10 82.1152 57 97.7822 126 c 2
 125.927 249 l 2
 143.23 321 150.071 372 156.187 429 c 1
 158.824 432 l 1
 158.824 432 190.187 429 224.187 429 c 0
 259.187 429 289.824 432 289.824 432 c 1
 290.187 429 l 1
 272.559 379 262.368 324 243.927 249 c 2
 222.797 159 l 2
 203.566 77 227.903 56 257.903 56 c 0
 302.703 56 377.13 90 389.458 148 c 2
 410.927 249 l 2
 427.081 325 437.283 373 442.187 429 c 1
 444.824 432 l 1
 444.824 432 474.187 429 508.187 429 c 0
 543.187 429 575.824 432 575.824 432 c 1
 576.187 429 l 1
 555.921 376 544.868 324 528.927 249 c 2
 516.811 192 l 2
 500.869 117 494.14 43 493 0 c 1
 490.362 -3 l 1
 477.787 -1 440.1 0 427.5 0 c 0
 413 0 387.023 -1.2998 373.362 -3 c 0
 367.362 -3 364.575 -2 365 0 c 2
 373.604 64 l 1
 371.604 64 l 1
EndSplineSet
Substitution2: "'smcp' Gemeine nach Kapitaelchen 1" uacute.sc
AlternateSubs2: "'aalt' Alle Alternativen zeigen 1" uacute.sc
Colour: ff00ff
EndChar

StartChar: ucircumflex
Encoding: 251 251 40
Width: 563
VWidth: 999
Flags: HW
HStem: -10 64<226.889 326.154> -3 21<401 410.667 514.5 523> 412 20<74 143 143 212 378 447 447 516>
VStem: 84 118<78.6508 426.335> 129 253<517 517> 388 118<106.355 426.335>
LayerCount: 2
Fore
SplineSet
461.949 649 m 1
 481.534 600 510.182 556 538.467 515 c 1
 509.428 496 l 1
 471.954 522 447.206 542 420.07 579 c 1
 373.78 540 341.954 522 296.428 496 c 1
 275.467 515 l 1
 320.182 556 369.746 601 409.949 649 c 1
 461.949 649 l 1
371.604 64 m 1
 302.851 4 248.874 -10 207.874 -10 c 0
 108.874 -10 82.1152 57 97.7822 126 c 2
 125.927 249 l 2
 143.23 321 150.071 372 156.187 429 c 1
 158.824 432 l 1
 158.824 432 190.187 429 224.187 429 c 0
 259.187 429 289.824 432 289.824 432 c 1
 290.187 429 l 1
 272.559 379 262.368 324 243.927 249 c 2
 222.797 159 l 2
 203.566 77 227.903 56 257.903 56 c 0
 302.703 56 377.13 90 389.458 148 c 2
 410.927 249 l 2
 427.081 325 437.283 373 442.187 429 c 1
 444.824 432 l 1
 444.824 432 474.187 429 508.187 429 c 0
 543.187 429 575.824 432 575.824 432 c 1
 576.187 429 l 1
 555.921 376 544.868 324 528.927 249 c 2
 516.811 192 l 2
 500.869 117 494.14 43 493 0 c 1
 490.362 -3 l 1
 477.787 -1 440.1 0 427.5 0 c 0
 413 0 387.023 -1.2998 373.362 -3 c 0
 367.362 -3 364.575 -2 365 0 c 2
 373.604 64 l 1
 371.604 64 l 1
EndSplineSet
Substitution2: "'smcp' Gemeine nach Kapitaelchen 1" ucircumflex.sc
AlternateSubs2: "'aalt' Alle Alternativen zeigen 1" ucircumflex.sc
Colour: ff00ff
EndChar

StartChar: ebreve
Encoding: 277 277 41
Width: 459
VWidth: 999
Flags: HW
HStem: -10 68<217.975 371.091> 243 44<161 327.997> 390 49<203.391 308.5> 501 57<156.968 293.898>
VStem: 32 126<127.31 243 287 299.028> 91 26<607.805 639.769> 328 127<254.5 342.567> 334 27<609.333 639.63>
LayerCount: 2
Fore
SplineSet
269.8 653 m 1
 260.321 599 294.819 559 357.819 559 c 0
 404.819 559 468.195 589 484.8 653 c 1
 513.611 638 l 1
 481.293 533 395.216 495 344.216 495 c 0
 263.216 495 223.394 557 233.611 638 c 1
 269.8 653 l 1
210.878 277 m 1
 344.878 277 l 2
 354.878 277 362.066 292 363.979 301 c 0
 379.071 372 355.897 390 319.897 390 c 0
 289.197 390 238.07 364 210.878 277 c 1
421.743 107 m 1
 433.828 99.4004 437.492 87 434.304 72 c 1
 385.251 20 308.874 -10 236.874 -10 c 0
 87.874 -10 53.3428 91 76.2988 199 c 0
 108.607 351 236.312 439 331.312 439 c 0
 463.312 439 495.545 346 475.139 250 c 0
 472.801 239 464.525 233 453.525 233 c 2
 199.525 233 l 1
 168.28 86 214.328 58 271.328 58 c 0
 326.328 58 378.666 69 421.743 107 c 1
EndSplineSet
Colour: ff00ff
EndChar

StartChar: Edotaccent
Encoding: 278 278 42
Width: 564
VWidth: 999
Flags: HW
HStem: 0 63<228.662 460.105> 316 51<224 440.426> 575 21<232 506> 587 58<228.662 453.27> 701 138<249.092 348.908>
VStem: 96 128<64.202 316 367 585.479> 230 138<720.092 819.908>
LayerCount: 2
Fore
SplineSet
397.669 770 m 0
 405.32 806 440.484 835 476.484 835 c 0
 512.484 835 535.32 806 527.669 770 c 0
 520.017 734 484.853 705 448.853 705 c 0
 412.853 705 390.017 734 397.669 770 c 0
262.512 200 m 2
 258.897 183 239.492 87 241.391 63 c 1
 375.391 63 529.941 75 529.941 75 c 1
 531.092 71 l 1
 528.391 63 523.777 46 521.652 36 c 0
 519.526 26 517.976 14 516 0 c 1
 513.362 -3 l 1
 497.787 -1 475 0 454 0 c 2
 160 0 l 2
 125 0 86.3623 -3 86.3623 -3 c 1
 86 0 l 1
 105.479 54 122.569 125 138.512 200 c 2
 190.588 445 l 2
 206.529 520 218.983 588 223.099 645 c 1
 225.736 648 l 1
 225.736 648 263.099 645 297.099 645 c 0
 327.099 645 581.099 645 581.099 645 c 2
 602.099 645 625.312 646 641.736 648 c 1
 643.099 645 l 1
 639.123 631 635.36 618 633.659 610 c 0
 631.746 601 629.771 587 629.07 579 c 1
 626.22 575 l 1
 626.22 575 486.771 587 352.771 587 c 1
 340.669 563 318.201 462 314.588 445 c 2
 298.008 367 l 1
 416.008 367 467.071 372 527.134 377 c 1
 529.496 374 l 1
 525.583 365 521.607 351 519.694 342 c 0
 517.781 333 515.593 318 515.68 309 c 1
 512.042 306 l 1
 444.53 313 335.168 316 287.168 316 c 1
 262.512 200 l 2
EndSplineSet
Position2: "'cpsp' Versalabstaende 1" dx=2 dy=0 dh=5 dv=0
Colour: ff00ff
EndChar

StartChar: edotaccent
Encoding: 279 279 43
Width: 459
VWidth: 999
Flags: HW
HStem: -10 68<217.975 371.091> 243 44<161 327.997> 390 49<203.391 308.5> 532 138<197.092 296.908>
VStem: 32 126<127.31 243 287 299.028> 178 138<551.092 650.908> 328 127<254.5 342.567>
LayerCount: 2
Back
SplineSet
33.1094 618.652 m 5
 651.763 618.652 l 5
 631.664 522.949 l 5
 12.5234 522.949 l 5
 33.1094 618.652 l 5
617.539 502.441 m 5
 598.694 549.316 570.749 594.727 544.072 632.324 c 5
 567.383 645.508 l 5
 600.321 616.699 627.151 591.309 653.651 555.176 c 5
 698.855 593.262 737.943 618.652 780.762 645.508 c 5
 797.003 632.324 l 5
 753.928 592.773 706.397 548.34 667.344 502.441 c 5
 617.539 502.441 l 5
-72.7236 647.949 m 5
 -81.668 596.68 -43.8955 556.152 16.6514 556.152 c 4
 62.5498 556.152 128.451 585.938 144.073 647.949 c 5
 167.534 634.277 l 5
 136.389 533.691 54.3125 499.023 4.50879 499.023 c 4
 -73.1279 499.023 -111.662 556.641 -102.485 634.277 c 5
 -72.7236 647.949 l 5
281.25 645.508 m 5
 300.096 598.633 327.583 555.664 354.717 515.625 c 5
 331.406 502.441 l 5
 298.468 531.25 270.068 556.152 244.058 592.285 c 5
 198.854 554.199 160.846 529.297 118.027 502.441 c 5
 101.299 515.625 l 5
 144.861 555.176 192.393 599.609 231.445 645.508 c 5
 281.25 645.508 l 5
42.7617 664.062 m 5
 661.415 664.062 l 5
 626.698 500.732 l 5
 8.04492 500.732 l 5
 42.7617 664.062 l 5
579.316 662.598 m 21
 583.046 664.062 589.601 665.039 594.483 665.039 c 4
 622.481 665.039 632.627 654.214 639.414 646.704 c 4
 641.28 644.639 642.952 642.856 644.678 641.602 c 5
 644.835 630.859 l 5
 506.944 521.973 l 6
 488.206 507.324 480.332 502.441 473.985 502.441 c 4
 466.172 502.441 460.512 507.974 461.896 514.487 c 4
 463.038 519.858 464.7 527.246 473.053 537.109 c 6
 579.316 662.598 l 21
32.5908 616.211 m 5
 651.244 616.211 l 5
 632.184 525.391 l 5
 13.043 525.391 l 5
 32.5908 616.211 l 5
201.405 570.801 m 4
 206.698 595.703 231.565 616.211 256.468 616.211 c 4
 281.371 616.211 297.519 595.703 292.226 570.801 c 4
 286.933 545.898 262.066 525.391 237.163 525.391 c 4
 212.262 525.391 196.112 545.898 201.405 570.801 c 4
362.051 570.801 m 4
 367.344 595.703 392.21 616.211 417.112 616.211 c 4
 442.015 616.211 458.164 595.703 452.87 570.801 c 4
 447.577 545.898 422.71 525.391 397.809 525.391 c 4
 372.905 525.391 356.757 545.898 362.051 570.801 c 4
EndSplineSet
Fore
SplineSet
309.746 601 m 0
 317.398 637 352.562 666 388.562 666 c 0
 424.562 666 447.398 637 439.746 601 c 0
 432.095 565 396.931 536 360.931 536 c 0
 324.931 536 302.095 565 309.746 601 c 0
210.878 277 m 1
 344.878 277 l 2
 354.878 277 362.066 292 363.979 301 c 0
 379.071 372 355.897 390 319.897 390 c 0
 289.197 390 238.07 364 210.878 277 c 1
421.743 107 m 1
 433.828 99.4004 437.492 87 434.304 72 c 1
 385.251 20 308.874 -10 236.874 -10 c 0
 87.874 -10 53.3428 91 76.2988 199 c 0
 108.607 351 236.312 439 331.312 439 c 0
 463.312 439 495.545 346 475.139 250 c 0
 472.801 239 464.525 233 453.525 233 c 2
 199.525 233 l 1
 168.28 86 214.328 58 271.328 58 c 0
 326.328 58 378.666 69 421.743 107 c 1
EndSplineSet
Colour: ff00ff
EndChar

StartChar: Eogonek
Encoding: 280 280 44
Width: 564
VWidth: 999
Flags: HW
HStem: -224 39<325.181 408.941> 0 25<394.256 430.88> 0 63<228.662 460.105> 316 51<224 440.426> 575 21<232 506> 587 58<228.662 453.27>
VStem: 96 128<64.202 316 367 585.479> 251 60<-173.091 -74.5789>
LayerCount: 2
Fore
SplineSet
296.388 -224 m 0
 243.388 -224 209.977 -193 221.455 -139 c 0
 231.551 -91.5 283.9 -33.4004 351.2 0 c 1
 160 0 l 2
 125 0 86.3623 -3 86.3623 -3 c 1
 86 0 l 1
 105.479 54 122.569 125 138.512 200 c 2
 190.588 445 l 2
 206.529 520 218.983 588 223.099 645 c 1
 225.736 648 l 1
 225.736 648 263.099 645 297.099 645 c 0
 327.099 645 581.099 645 581.099 645 c 2
 602.099 645 625.312 646 641.736 648 c 1
 643.099 645 l 1
 639.123 631 635.36 618 633.659 610 c 0
 631.746 601 629.771 587 629.07 579 c 1
 626.22 575 l 1
 626.22 575 486.771 587 352.771 587 c 1
 340.669 563 318.201 462 314.588 445 c 2
 298.008 367 l 1
 416.008 367 467.071 372 527.134 377 c 1
 529.496 374 l 1
 525.583 365 521.607 351 519.694 342 c 0
 517.781 333 515.593 318 515.68 309 c 1
 512.042 306 l 1
 444.53 313 335.168 316 287.168 316 c 1
 262.512 200 l 2
 258.897 183 239.492 87 241.391 63 c 1
 375.391 63 529.941 75 529.941 75 c 1
 531.092 71 l 1
 528.391 63 523.777 46 521.652 36 c 0
 519.526 26 517.976 14 516 0 c 1
 513.362 -3 l 1
 497.787 -1 475 0 454 0 c 2
 446 0 l 2
 366 0 295.059 -75 284.218 -126 c 0
 277.416 -158 293.677 -185 329.677 -185 c 0
 359.677 -185 382.865 -170 407.329 -149 c 1
 420.629 -157 l 1
 386.639 -204 332.388 -224 296.388 -224 c 0
EndSplineSet
Position2: "'cpsp' Versalabstaende 1" dx=2 dy=0 dh=5 dv=0
Substitution2: "'c2sc' Versale nach Kapitaelchen 1" eogonek.sc
Colour: ff80cc
EndChar

StartChar: eogonek
Encoding: 281 281 45
Width: 459
VWidth: 999
Flags: HW
HStem: -193 44<292.832 361.751> -10 68<217.975 371.091> 243 44<161 327.997> 390 49<203.391 308.5>
VStem: 32 126<127.31 243 287 299.028> 221 66<-143.553 -49.2913> 328 127<254.5 342.567>
LayerCount: 2
Back
SplineSet
270.668 -193.359 m 4
 216.957 -193.359 183.944 -162.598 195.569 -107.91 c 4
 209.373 -42.9688 302.035 41.5039 404.27 56.1523 c 5
 419.868 30.7617 l 5
 339.669 30.7617 269.223 -43.9453 258.222 -95.7031 c 4
 251.476 -127.441 267.844 -153.809 303.977 -153.809 c 4
 333.762 -153.809 357.332 -139.404 381.029 -118.652 c 5
 394.558 -126.221 l 5
 360.86 -173.34 306.11 -193.359 270.668 -193.359 c 4
EndSplineSet
Fore
SplineSet
210.878 277 m 1
 344.878 277 l 2
 354.878 277 362.066 292 363.979 301 c 0
 379.071 372 355.897 390 319.897 390 c 0
 289.197 390 238.07 364 210.878 277 c 1
421.743 107 m 1
 433.828 99.4004 437.492 87 434.304 72 c 1
 412.736 49.0996 385.783 30.5 356.371 16.7998 c 1
 304.725 -26.7002 274.268 -59.9004 264.469 -106 c 0
 260.005 -127 271.329 -149 297.329 -149 c 0
 314.329 -149 339.518 -134 356.706 -119 c 1
 359.493 -120 l 1
 369.88 -137 l 1
 335.865 -170 292.977 -193 258.977 -193 c 0
 209.977 -193 186.141 -164 196.131 -117 c 0
 204.782 -76.2998 235.968 -39.2002 274.549 -7.2998 c 1
 261.966 -9.09961 249.374 -10 236.874 -10 c 0
 87.874 -10 53.3428 91 76.2988 199 c 0
 108.607 351 236.312 439 331.312 439 c 0
 463.312 439 495.545 346 475.139 250 c 0
 472.801 239 464.525 233 453.525 233 c 2
 199.525 233 l 1
 168.28 86 214.328 58 271.328 58 c 0
 326.328 58 378.666 69 421.743 107 c 1
EndSplineSet
AlternateSubs2: "'aalt' Alle Alternativen zeigen 1" eogonek.sc
Substitution2: "'smcp' Gemeine nach Kapitaelchen 1" eogonek.sc
Colour: ff00ff
EndChar

StartChar: Ecaron
Encoding: 282 282 46
Width: 564
VWidth: 999
Flags: HW
HStem: 0 63<228.662 460.105> 316 51<224 440.426> 575 21<232 506> 587 58<228.662 453.27>
VStem: 96 128<64.202 316 367 585.479>
LayerCount: 2
Fore
SplineSet
416.152 697 m 1
 394.017 734 365.394 764 335.345 792 c 1
 355.596 812 l 1
 390.982 795 420.944 776 448.63 751 c 1
 491.156 777 527.195 796 568.596 812 c 1
 579.345 792 l 1
 535.181 763 496.379 731 459.152 697 c 1
 416.152 697 l 1
262.512 200 m 2
 258.897 183 239.492 87 241.391 63 c 1
 375.391 63 529.941 75 529.941 75 c 1
 531.092 71 l 1
 528.391 63 523.777 46 521.652 36 c 0
 519.526 26 517.976 14 516 0 c 1
 513.362 -3 l 1
 497.787 -1 475 0 454 0 c 2
 160 0 l 2
 125 0 86.3623 -3 86.3623 -3 c 1
 86 0 l 1
 105.479 54 122.569 125 138.512 200 c 2
 190.588 445 l 2
 206.529 520 218.983 588 223.099 645 c 1
 225.736 648 l 1
 225.736 648 263.099 645 297.099 645 c 0
 327.099 645 581.099 645 581.099 645 c 2
 602.099 645 625.312 646 641.736 648 c 1
 643.099 645 l 1
 639.123 631 635.36 618 633.659 610 c 0
 631.746 601 629.771 587 629.07 579 c 1
 626.22 575 l 1
 626.22 575 486.771 587 352.771 587 c 1
 340.669 563 318.201 462 314.588 445 c 2
 298.008 367 l 1
 416.008 367 467.071 372 527.134 377 c 1
 529.496 374 l 1
 525.583 365 521.607 351 519.694 342 c 0
 517.781 333 515.593 318 515.68 309 c 1
 512.042 306 l 1
 444.53 313 335.168 316 287.168 316 c 1
 262.512 200 l 2
EndSplineSet
Position2: "'cpsp' Versalabstaende 1" dx=2 dy=0 dh=5 dv=0
Substitution2: "'c2sc' Versale nach Kapitaelchen 1" ecaron.sc
Colour: ff00ff
EndChar

StartChar: ecaron
Encoding: 283 283 47
Width: 459
VWidth: 999
Flags: HW
HStem: -10 68<217.975 371.091> 243 44<161 327.997> 390 49<203.391 308.5>
VStem: 32 126<127.31 243 287 299.028> 328 127<254.5 342.567>
LayerCount: 2
Back
SplineSet
625.353 502.441 m 5
 606.507 549.316 578.562 594.727 551.885 632.324 c 5
 575.195 645.508 l 5
 608.135 616.699 634.964 591.309 661.463 555.176 c 5
 706.668 593.262 745.757 618.652 788.574 645.508 c 5
 804.814 632.324 l 5
 761.74 592.773 714.209 548.34 675.156 502.441 c 5
 625.353 502.441 l 5
-64.9111 647.949 m 5
 -73.8555 596.68 -36.083 556.152 24.4639 556.152 c 4
 70.3623 556.152 136.264 585.938 151.886 647.949 c 5
 175.347 634.277 l 5
 144.201 533.691 62.125 499.023 12.3203 499.023 c 4
 -65.3164 499.023 -103.851 556.641 -94.6719 634.277 c 5
 -64.9111 647.949 l 5
289.062 645.508 m 5
 307.907 598.633 335.395 555.664 362.529 515.625 c 5
 339.219 502.441 l 5
 306.279 531.25 277.882 556.152 251.871 592.285 c 5
 206.666 554.199 168.658 529.297 125.84 502.441 c 5
 109.111 515.625 l 5
 152.674 555.176 200.205 599.609 239.258 645.508 c 5
 289.062 645.508 l 5
50.5742 664.062 m 5
 669.227 664.062 l 5
 634.51 500.732 l 5
 15.8574 500.732 l 5
 50.5742 664.062 l 5
587.129 662.598 m 21
 590.857 664.062 597.413 665.039 602.297 665.039 c 4
 630.295 665.039 640.439 654.214 647.228 646.704 c 4
 649.092 644.639 650.765 642.856 652.489 641.602 c 5
 652.648 630.859 l 5
 514.758 521.973 l 6
 496.02 507.324 488.146 502.441 481.797 502.441 c 4
 473.985 502.441 468.325 507.974 469.71 514.487 c 4
 470.852 519.858 472.513 527.246 480.865 537.109 c 6
 587.129 662.598 l 21
40.4033 616.211 m 5
 659.056 616.211 l 5
 639.803 525.635 l 5
 21.1514 525.635 l 5
 40.4033 616.211 l 5
209.218 570.801 m 4
 214.511 595.703 239.378 616.211 264.28 616.211 c 4
 289.183 616.211 305.332 595.703 300.038 570.801 c 4
 294.745 545.898 269.878 525.391 244.977 525.391 c 4
 220.073 525.391 203.925 545.898 209.218 570.801 c 4
369.862 570.801 m 4
 375.155 595.703 400.022 616.211 424.925 616.211 c 4
 449.828 616.211 465.976 595.703 460.683 570.801 c 4
 455.39 545.898 430.523 525.391 405.62 525.391 c 4
 380.719 525.391 364.569 545.898 369.862 570.801 c 4
EndSplineSet
Fore
SplineSet
364.641 497 m 1
 314.641 497 l 1
 295.418 543 266.559 586 240.061 626 c 1
 267.887 644 l 1
 301.147 617 323.108 598 352.031 560 c 1
 393.684 596 428.147 617 472.887 644 c 1
 493.061 626 l 1
 448.559 586 403.631 544 364.641 497 c 1
210.878 277 m 1
 344.878 277 l 2
 354.878 277 362.066 292 363.979 301 c 0
 379.071 372 355.897 390 319.897 390 c 0
 289.197 390 238.07 364 210.878 277 c 1
421.743 107 m 1
 433.828 99.4004 437.492 87 434.304 72 c 1
 385.251 20 308.874 -10 236.874 -10 c 0
 87.874 -10 53.3428 91 76.2988 199 c 0
 108.607 351 236.312 439 331.312 439 c 0
 463.312 439 495.545 346 475.139 250 c 0
 472.801 239 464.525 233 453.525 233 c 2
 199.525 233 l 1
 168.28 86 214.328 58 271.328 58 c 0
 326.328 58 378.666 69 421.743 107 c 1
EndSplineSet
AlternateSubs2: "'aalt' Alle Alternativen zeigen 1" ecaron.sc
Substitution2: "'smcp' Gemeine nach Kapitaelchen 1" ecaron.sc
Colour: ff00ff
EndChar

StartChar: Gcircumflex
Encoding: 284 284 48
Width: 750
VWidth: 999
Flags: HW
HStem: -10 46<295.106 519.78> 611 47<271.555 476.844>
VStem: 32 103<213.43 430.807> 546 86<83.5114 304.327>
LayerCount: 2
Fore
SplineSet
556.108 805 m 1
 578.456 769 606.867 738 637.128 711 c 1
 616.664 690 l 1
 581.49 708 551.528 727 523.843 752 c 1
 481.104 725 445.277 707 403.664 690 c 1
 394.128 711 l 1
 437.079 739 474.881 771 513.108 805 c 1
 556.108 805 l 1
570.869 117 m 2
 586.811 192 597.139 250 601.255 307 c 1
 603.893 310 l 1
 603.893 310 641.255 307 675.255 307 c 0
 710.255 307 748.893 310 748.893 310 c 1
 749.255 307 l 1
 729.989 254 719.062 212 703.12 137 c 0
 696.233 104.6 697.137 90.5 701.643 83 c 1
 701.005 80 l 1
 621.474 23.4004 501.374 -10 384.874 -10 c 0
 183.874 -10 67.4824 134 104.255 307 c 0
 128.273 420 189.973 515.5 277.22 575 c 0
 357.91 630 441.862 658 541.862 658 c 0
 663.862 658 771.297 613 771.297 613 c 1
 772.659 610 l 1
 750.381 560.7 739.468 531 725.027 480 c 1
 704.814 479 l 1
 681.244 561 605.959 602 515.959 602 c 0
 380.959 602 280.728 488 246.506 327 c 0
 218.448 195 253.565 45 419.565 45 c 0
 473.565 45 522.841 51 563.643 83 c 1
 570.869 117 l 2
EndSplineSet
Position2: "'cpsp' Versalabstaende 1" dx=2 dy=0 dh=5 dv=0
Colour: ff00ff
EndChar

StartChar: gcircumflex
Encoding: 285 285 49
Width: 521
VWidth: 999
Flags: HW
HStem: -238 52<165.403 337.345> -15 71<189.385 255.344> -12 75<193.809 365.944> 136 53<191.222 298.809> 386 53<186.378 295.332>
VStem: 32 108<-160.17 -57.419> 59 110<212.61 356.406> 64 77<60.4446 149.891> 103 253<516 516> 318 108<216.393 350.483> 392 103<-131.841 -37.3755>
LayerCount: 2
Fore
SplineSet
405.736 648 m 1
 425.321 599 453.969 555 482.254 514 c 1
 453.216 495 l 1
 415.742 521 390.993 541 363.857 578 c 1
 317.568 539 285.742 521 240.216 495 c 1
 219.254 514 l 1
 263.969 555 313.534 600 353.736 648 c 1
 405.736 648 l 1
493.429 289 m 0
 473.64 195.9 388.971 141 272.971 141 c 0
 218.471 141 210.949 148.9 197.925 154.9 c 1
 183.312 137.9 177.995 127 173.743 107 c 0
 164.604 64 193.541 59 221.541 59 c 0
 226.541 59 226.753 60 240.966 61 c 0
 264.604 64 288.028 66 305.028 66 c 0
 397.028 66 504.777 46 480.546 -68 c 0
 457.59 -176 283.411 -238 154.411 -238 c 0
 81.4111 -238 -12.8496 -211 5.64258 -124 c 0
 10.9141 -99.2002 22.5459 -68 44.2227 -46 c 1
 71.1982 -32 94.8711 -16.5996 119.362 -3 c 1
 92.0625 5 60.8018 32 69.7295 74 c 0
 76.9561 108 122.608 144 163.072 165 c 1
 139.098 183 l 1
 120.724 201 97.2295 226.9 110.004 287 c 0
 130.409 383 219.312 439 327.312 439 c 0
 348.812 439 378.074 436 394.784 430.4 c 1
 470.213 434.3 526.641 434.9 575.312 439 c 1
 577.675 436 l 1
 573.762 427 570.424 416 568.511 407 c 0
 566.598 398 565.685 389 565.771 380 c 1
 562.134 377 l 1
 527.844 379.4 492.556 385.1 462.861 385.6 c 1
 489.498 364.6 500.762 323.5 493.429 289 c 0
375.304 279 m 0
 391.245 354 378.022 400 318.022 400 c 0
 266.022 400 240.757 347 231.192 302 c 0
 217.589 238 215.473 181 281.473 181 c 0
 316.473 181 360.212 208 375.304 279 c 0
161.812 -15 m 1
 130.072 -42 115.93 -70.9004 108.895 -104 c 0
 94.4404 -172 157.339 -196 191.339 -196 c 0
 277.339 -196 347.691 -152 360.657 -91 c 0
 375.366 -21.7998 308.387 -17 252.387 -17 c 0
 238.587 -17 211.674 -18 182.174 -18 c 0
 173.174 -18 168.042 -15.7998 161.812 -15 c 1
EndSplineSet
Colour: ff00ff
EndChar

StartChar: Gbreve
Encoding: 286 286 50
Width: 750
VWidth: 999
Flags: HW
HStem: -10 46<295.106 519.78> 611 47<271.555 476.844> 693 52<293 449>
VStem: 32 103<213.43 430.807> 236 28<766 804> 480 27<768 806> 546 86<83.5114 304.327>
LayerCount: 2
Fore
SplineSet
678.32 806 m 1
 657.229 735 585.302 693 519.302 693 c 0
 446.302 693 397.441 736 407.32 806 c 1
 435.32 806 l 1
 435.031 767 477.354 745 530.354 745 c 0
 579.354 745 636.031 767 651.32 806 c 1
 678.32 806 l 1
570.869 117 m 2
 586.811 192 597.139 250 601.255 307 c 1
 603.893 310 l 1
 603.893 310 641.255 307 675.255 307 c 0
 710.255 307 748.893 310 748.893 310 c 1
 749.255 307 l 1
 729.989 254 719.062 212 703.12 137 c 0
 696.233 104.6 697.137 90.5 701.643 83 c 1
 701.005 80 l 1
 621.474 23.4004 501.374 -10 384.874 -10 c 0
 183.874 -10 67.4824 134 104.255 307 c 0
 128.273 420 189.973 515.5 277.22 575 c 0
 357.91 630 441.862 658 541.862 658 c 0
 663.862 658 771.297 613 771.297 613 c 1
 772.659 610 l 1
 750.381 560.7 739.468 531 725.027 480 c 1
 704.814 479 l 1
 681.244 561 605.959 602 515.959 602 c 0
 380.959 602 280.728 488 246.506 327 c 0
 218.448 195 253.565 45 419.565 45 c 0
 473.565 45 522.841 51 563.643 83 c 1
 570.869 117 l 2
EndSplineSet
Position2: "'cpsp' Versalabstaende 1" dx=2 dy=0 dh=5 dv=0
Substitution2: "'c2sc' Versale nach Kapitaelchen 1" gbreve.sc
Colour: ff00ff
EndChar

StartChar: gbreve
Encoding: 287 287 51
Width: 521
VWidth: 999
Flags: HW
HStem: -238 52<165.403 337.345> -15 71<189.385 255.344> -12 75<193.809 365.944> 136 53<191.222 298.809> 386 53<186.378 295.332> 497 57<150.968 287.898>
VStem: 32 108<-160.17 -57.419> 59 110<212.61 356.406> 64 77<60.4446 149.891> 85 26<603.805 635.769> 318 108<216.393 350.483> 328 27<605.333 635.63> 392 103<-131.841 -37.3755>
LayerCount: 2
Fore
SplineSet
262.949 649 m 1
 253.471 595 287.969 555 350.969 555 c 0
 397.969 555 461.346 585 477.949 649 c 1
 506.761 634 l 1
 474.442 529 388.365 491 337.365 491 c 0
 256.365 491 216.544 553 226.761 634 c 1
 262.949 649 l 1
493.429 289 m 0
 473.64 195.9 388.971 141 272.971 141 c 0
 218.471 141 210.949 148.9 197.925 154.9 c 1
 183.312 137.9 177.995 127 173.743 107 c 0
 164.604 64 193.541 59 221.541 59 c 0
 226.541 59 226.753 60 240.966 61 c 0
 264.604 64 288.028 66 305.028 66 c 0
 397.028 66 504.777 46 480.546 -68 c 0
 457.59 -176 283.411 -238 154.411 -238 c 0
 81.4111 -238 -12.8496 -211 5.64258 -124 c 0
 10.9141 -99.2002 22.5459 -68 44.2227 -46 c 1
 71.1982 -32 94.8711 -16.5996 119.362 -3 c 1
 92.0625 5 60.8018 32 69.7295 74 c 0
 76.9561 108 122.608 144 163.072 165 c 1
 139.098 183 l 1
 120.724 201 97.2295 226.9 110.004 287 c 0
 130.409 383 219.312 439 327.312 439 c 0
 348.812 439 378.074 436 394.784 430.4 c 1
 470.213 434.3 526.641 434.9 575.312 439 c 1
 577.675 436 l 1
 573.762 427 570.424 416 568.511 407 c 0
 566.598 398 565.685 389 565.771 380 c 1
 562.134 377 l 1
 527.844 379.4 492.556 385.1 462.861 385.6 c 1
 489.498 364.6 500.762 323.5 493.429 289 c 0
375.304 279 m 0
 391.245 354 378.022 400 318.022 400 c 0
 266.022 400 240.757 347 231.192 302 c 0
 217.589 238 215.473 181 281.473 181 c 0
 316.473 181 360.212 208 375.304 279 c 0
161.812 -15 m 1
 130.072 -42 115.93 -70.9004 108.895 -104 c 0
 94.4404 -172 157.339 -196 191.339 -196 c 0
 277.339 -196 347.691 -152 360.657 -91 c 0
 375.366 -21.7998 308.387 -17 252.387 -17 c 0
 238.587 -17 211.674 -18 182.174 -18 c 0
 173.174 -18 168.042 -15.7998 161.812 -15 c 1
EndSplineSet
AlternateSubs2: "'aalt' Alle Alternativen zeigen 1" gbreve.sc
Substitution2: "'smcp' Gemeine nach Kapitaelchen 1" gbreve.sc
Colour: ff00ff
EndChar

StartChar: Gdotaccent
Encoding: 288 288 52
Width: 750
VWidth: 999
Flags: HW
HStem: -10 46<295.106 519.78> 611 47<271.555 476.844> 714 138<344.092 443.908>
VStem: 32 103<213.43 430.807> 325 138<733.092 832.908> 546 86<83.5114 304.327>
LayerCount: 2
Fore
SplineSet
495.432 783 m 0
 503.084 819 538.248 848 574.248 848 c 0
 610.248 848 633.084 819 625.432 783 c 0
 617.779 747 582.615 718 546.615 718 c 0
 510.615 718 487.779 747 495.432 783 c 0
570.869 117 m 2
 586.811 192 597.139 250 601.255 307 c 1
 603.893 310 l 1
 603.893 310 641.255 307 675.255 307 c 0
 710.255 307 748.893 310 748.893 310 c 1
 749.255 307 l 1
 729.989 254 719.062 212 703.12 137 c 0
 696.233 104.6 697.137 90.5 701.643 83 c 1
 701.005 80 l 1
 621.474 23.4004 501.374 -10 384.874 -10 c 0
 183.874 -10 67.4824 134 104.255 307 c 0
 128.273 420 189.973 515.5 277.22 575 c 0
 357.91 630 441.862 658 541.862 658 c 0
 663.862 658 771.297 613 771.297 613 c 1
 772.659 610 l 1
 750.381 560.7 739.468 531 725.027 480 c 1
 704.814 479 l 1
 681.244 561 605.959 602 515.959 602 c 0
 380.959 602 280.728 488 246.506 327 c 0
 218.448 195 253.565 45 419.565 45 c 0
 473.565 45 522.841 51 563.643 83 c 1
 570.869 117 l 2
EndSplineSet
Position2: "'cpsp' Versalabstaende 1" dx=2 dy=0 dh=5 dv=0
Colour: ff00ff
EndChar

StartChar: gdotaccent
Encoding: 289 289 53
Width: 521
VWidth: 999
Flags: HW
HStem: -238 52<165.403 337.345> -15 71<189.385 255.344> -12 75<193.809 365.944> 136 53<191.222 298.809> 386 53<186.378 295.332> 531 138<194.092 293.908>
VStem: 32 108<-160.17 -57.419> 59 110<212.61 356.406> 64 77<60.4446 149.891> 175 138<550.092 649.908> 318 108<216.393 350.483> 392 103<-131.841 -37.3755>
LayerCount: 2
Back
SplineSet
33.1094 618.652 m 5
 651.763 618.652 l 5
 631.664 522.949 l 5
 12.5234 522.949 l 5
 33.1094 618.652 l 5
617.539 502.441 m 5
 598.694 549.316 570.749 594.727 544.072 632.324 c 5
 567.383 645.508 l 5
 600.321 616.699 627.151 591.309 653.651 555.176 c 5
 698.855 593.262 737.943 618.652 780.762 645.508 c 5
 797.003 632.324 l 5
 753.928 592.773 706.397 548.34 667.344 502.441 c 5
 617.539 502.441 l 5
-72.7236 647.949 m 5
 -81.668 596.68 -43.8955 556.152 16.6514 556.152 c 4
 62.5498 556.152 128.451 585.938 144.073 647.949 c 5
 167.534 634.277 l 5
 136.389 533.691 54.3125 499.023 4.50879 499.023 c 4
 -73.1279 499.023 -111.662 556.641 -102.485 634.277 c 5
 -72.7236 647.949 l 5
281.25 645.508 m 5
 300.096 598.633 327.583 555.664 354.717 515.625 c 5
 331.406 502.441 l 5
 298.468 531.25 270.068 556.152 244.058 592.285 c 5
 198.854 554.199 160.846 529.297 118.027 502.441 c 5
 101.299 515.625 l 5
 144.861 555.176 192.393 599.609 231.445 645.508 c 5
 281.25 645.508 l 5
42.7617 664.062 m 5
 661.415 664.062 l 5
 626.698 500.732 l 5
 8.04492 500.732 l 5
 42.7617 664.062 l 5
579.316 662.598 m 21
 583.046 664.062 589.601 665.039 594.483 665.039 c 4
 622.481 665.039 632.627 654.214 639.414 646.704 c 4
 641.28 644.639 642.952 642.856 644.678 641.602 c 5
 644.835 630.859 l 5
 506.944 521.973 l 6
 488.206 507.324 480.332 502.441 473.985 502.441 c 4
 466.172 502.441 460.512 507.974 461.896 514.487 c 4
 463.038 519.858 464.7 527.246 473.053 537.109 c 6
 579.316 662.598 l 21
32.5908 616.211 m 5
 651.244 616.211 l 5
 632.184 525.391 l 5
 13.043 525.391 l 5
 32.5908 616.211 l 5
201.405 570.801 m 4
 206.698 595.703 231.565 616.211 256.468 616.211 c 4
 281.371 616.211 297.519 595.703 292.226 570.801 c 4
 286.933 545.898 262.066 525.391 237.163 525.391 c 4
 212.262 525.391 196.112 545.898 201.405 570.801 c 4
362.051 570.801 m 4
 367.344 595.703 392.21 616.211 417.112 616.211 c 4
 442.015 616.211 458.164 595.703 452.87 570.801 c 4
 447.577 545.898 422.71 525.391 397.809 525.391 c 4
 372.905 525.391 356.757 545.898 362.051 570.801 c 4
EndSplineSet
Fore
SplineSet
306.534 600 m 0
 314.186 636 349.35 665 385.35 665 c 0
 421.35 665 444.186 636 436.534 600 c 0
 428.882 564 393.718 535 357.718 535 c 0
 321.718 535 298.882 564 306.534 600 c 0
493.429 289 m 0
 473.64 195.9 388.971 141 272.971 141 c 0
 218.471 141 210.949 148.9 197.925 154.9 c 1
 183.312 137.9 177.995 127 173.743 107 c 0
 164.604 64 193.541 59 221.541 59 c 0
 226.541 59 226.753 60 240.966 61 c 0
 264.604 64 288.028 66 305.028 66 c 0
 397.028 66 504.777 46 480.546 -68 c 0
 457.59 -176 283.411 -238 154.411 -238 c 0
 81.4111 -238 -12.8496 -211 5.64258 -124 c 0
 10.9141 -99.2002 22.5459 -68 44.2227 -46 c 1
 71.1982 -32 94.8711 -16.5996 119.362 -3 c 1
 92.0625 5 60.8018 32 69.7295 74 c 0
 76.9561 108 122.608 144 163.072 165 c 1
 139.098 183 l 1
 120.724 201 97.2295 226.9 110.004 287 c 0
 130.409 383 219.312 439 327.312 439 c 0
 348.812 439 378.074 436 394.784 430.4 c 1
 470.213 434.3 526.641 434.9 575.312 439 c 1
 577.675 436 l 1
 573.762 427 570.424 416 568.511 407 c 0
 566.598 398 565.685 389 565.771 380 c 1
 562.134 377 l 1
 527.844 379.4 492.556 385.1 462.861 385.6 c 1
 489.498 364.6 500.762 323.5 493.429 289 c 0
375.304 279 m 0
 391.245 354 378.022 400 318.022 400 c 0
 266.022 400 240.757 347 231.192 302 c 0
 217.589 238 215.473 181 281.473 181 c 0
 316.473 181 360.212 208 375.304 279 c 0
161.812 -15 m 1
 130.072 -42 115.93 -70.9004 108.895 -104 c 0
 94.4404 -172 157.339 -196 191.339 -196 c 0
 277.339 -196 347.691 -152 360.657 -91 c 0
 375.366 -21.7998 308.387 -17 252.387 -17 c 0
 238.587 -17 211.674 -18 182.174 -18 c 0
 173.174 -18 168.042 -15.7998 161.812 -15 c 1
EndSplineSet
Colour: ff00ff
EndChar

StartChar: Gcommaaccent
Encoding: 290 290 54
Width: 750
VWidth: 999
Flags: HW
HStem: -231 17<330 351.215> -134 81<329.998 402.485> -10 46<295.106 519.78> 611 47<271.555 476.844>
VStem: 32 103<213.43 430.807> 405 32<-177.598 -107.5> 546 86<83.5114 304.327>
LayerCount: 2
Fore
SplineSet
363.734 -53 m 0
 402.734 -53 417.87 -90 410.431 -125 c 0
 404.904 -151 371.75 -227 280.899 -231 c 1
 280.513 -214 l 1
 359.701 -199 375.029 -141 376.305 -135 c 0
 377.155 -131 376.793 -128 376.431 -125 c 1
 364.155 -131 353.518 -134 345.518 -134 c 0
 304.518 -134 300.831 -109 304.232 -93 c 0
 307.633 -77 327.734 -53 363.734 -53 c 0
570.869 117 m 2
 586.811 192 597.139 250 601.255 307 c 1
 603.893 310 l 1
 603.893 310 641.255 307 675.255 307 c 0
 710.255 307 748.893 310 748.893 310 c 1
 749.255 307 l 1
 729.989 254 719.062 212 703.12 137 c 0
 696.233 104.6 697.137 90.5 701.643 83 c 1
 701.005 80 l 1
 621.474 23.4004 501.374 -10 384.874 -10 c 0
 183.874 -10 67.4824 134 104.255 307 c 0
 128.273 420 189.973 515.5 277.22 575 c 0
 357.91 630 441.862 658 541.862 658 c 0
 663.862 658 771.297 613 771.297 613 c 1
 772.659 610 l 1
 750.381 560.7 739.468 531 725.027 480 c 1
 704.814 479 l 1
 681.244 561 605.959 602 515.959 602 c 0
 380.959 602 280.728 488 246.506 327 c 0
 218.448 195 253.565 45 419.565 45 c 0
 473.565 45 522.841 51 563.643 83 c 1
 570.869 117 l 2
EndSplineSet
Position2: "'cpsp' Versalabstaende 1" dx=2 dy=0 dh=5 dv=0
Colour: ff00ff
EndChar

StartChar: gcommaaccent
Encoding: 291 291 55
Width: 521
VWidth: 999
Flags: HW
HStem: -238 52<165.403 337.345> -15 71<189.385 255.344> -12 75<193.809 365.944> 136 53<191.222 298.809> 386 53<186.378 295.332> 511 82<199.561 272.708> 673 17<251.498 273>
VStem: 32 108<-160.17 -57.419> 59 110<212.61 356.406> 64 77<60.4446 149.891> 166 32<584 635.93> 318 108<216.393 350.483> 392 103<-131.841 -37.3755>
LayerCount: 2
Back
SplineSet
625.353 502.441 m 5
 606.507 549.316 578.562 594.727 551.885 632.324 c 5
 575.195 645.508 l 5
 608.135 616.699 634.964 591.309 661.463 555.176 c 5
 706.668 593.262 745.757 618.652 788.574 645.508 c 5
 804.814 632.324 l 5
 761.74 592.773 714.209 548.34 675.156 502.441 c 5
 625.353 502.441 l 5
-64.9111 647.949 m 5
 -73.8555 596.68 -36.083 556.152 24.4639 556.152 c 4
 70.3623 556.152 136.264 585.938 151.886 647.949 c 5
 175.347 634.277 l 5
 144.201 533.691 62.125 499.023 12.3203 499.023 c 4
 -65.3164 499.023 -103.851 556.641 -94.6719 634.277 c 5
 -64.9111 647.949 l 5
289.062 645.508 m 5
 307.907 598.633 335.395 555.664 362.529 515.625 c 5
 339.219 502.441 l 5
 306.279 531.25 277.882 556.152 251.871 592.285 c 5
 206.666 554.199 168.658 529.297 125.84 502.441 c 5
 109.111 515.625 l 5
 152.674 555.176 200.205 599.609 239.258 645.508 c 5
 289.062 645.508 l 5
50.5742 664.062 m 5
 669.227 664.062 l 5
 634.51 500.732 l 5
 15.8574 500.732 l 5
 50.5742 664.062 l 5
587.129 662.598 m 21
 590.857 664.062 597.413 665.039 602.297 665.039 c 4
 630.295 665.039 640.439 654.214 647.228 646.704 c 4
 649.092 644.639 650.765 642.856 652.489 641.602 c 5
 652.648 630.859 l 5
 514.758 521.973 l 6
 496.02 507.324 488.146 502.441 481.797 502.441 c 4
 473.985 502.441 468.325 507.974 469.71 514.487 c 4
 470.852 519.858 472.513 527.246 480.865 537.109 c 6
 587.129 662.598 l 21
40.4033 616.211 m 5
 659.056 616.211 l 5
 639.803 525.635 l 5
 21.1514 525.635 l 5
 40.4033 616.211 l 5
209.218 570.801 m 4
 214.511 595.703 239.378 616.211 264.28 616.211 c 4
 289.183 616.211 305.332 595.703 300.038 570.801 c 4
 294.745 545.898 269.878 525.391 244.977 525.391 c 4
 220.073 525.391 203.925 545.898 209.218 570.801 c 4
369.862 570.801 m 4
 375.155 595.703 400.022 616.211 424.925 616.211 c 4
 449.828 616.211 465.976 595.703 460.683 570.801 c 4
 455.39 545.898 430.523 525.391 405.62 525.391 c 4
 380.719 525.391 364.569 545.898 369.862 570.801 c 4
EndSplineSet
Fore
SplineSet
336.616 511 m 0
 297.616 511 282.481 548 290.133 584 c 0
 295.659 610 328.813 686 419.664 690 c 1
 420.051 673 l 1
 339.862 658 325.108 598 324.259 594 c 0
 323.408 590 323.771 587 323.133 584 c 1
 336.408 590 347.046 593 355.046 593 c 0
 395.046 593 399.732 568 396.119 551 c 0
 392.718 535 371.616 511 336.616 511 c 0
493.429 289 m 0
 473.64 195.9 388.971 141 272.971 141 c 0
 218.471 141 210.949 148.9 197.925 154.9 c 1
 183.312 137.9 177.995 127 173.743 107 c 0
 164.604 64 193.541 59 221.541 59 c 0
 226.541 59 226.753 60 240.966 61 c 0
 264.604 64 288.028 66 305.028 66 c 0
 397.028 66 504.777 46 480.546 -68 c 0
 457.59 -176 283.411 -238 154.411 -238 c 0
 81.4111 -238 -12.8496 -211 5.64258 -124 c 0
 10.9141 -99.2002 22.5459 -68 44.2227 -46 c 1
 71.1982 -32 94.8711 -16.5996 119.362 -3 c 1
 92.0625 5 60.8018 32 69.7295 74 c 0
 76.9561 108 122.608 144 163.072 165 c 1
 139.098 183 l 1
 120.724 201 97.2295 226.9 110.004 287 c 0
 130.409 383 219.312 439 327.312 439 c 0
 348.812 439 378.074 436 394.784 430.4 c 1
 470.213 434.3 526.641 434.9 575.312 439 c 1
 577.675 436 l 1
 573.762 427 570.424 416 568.511 407 c 0
 566.598 398 565.685 389 565.771 380 c 1
 562.134 377 l 1
 527.844 379.4 492.556 385.1 462.861 385.6 c 1
 489.498 364.6 500.762 323.5 493.429 289 c 0
375.304 279 m 0
 391.245 354 378.022 400 318.022 400 c 0
 266.022 400 240.757 347 231.192 302 c 0
 217.589 238 215.473 181 281.473 181 c 0
 316.473 181 360.212 208 375.304 279 c 0
161.812 -15 m 1
 130.072 -42 115.93 -70.9004 108.895 -104 c 0
 94.4404 -172 157.339 -196 191.339 -196 c 0
 277.339 -196 347.691 -152 360.657 -91 c 0
 375.366 -21.7998 308.387 -17 252.387 -17 c 0
 238.587 -17 211.674 -18 182.174 -18 c 0
 173.174 -18 168.042 -15.7998 161.812 -15 c 1
EndSplineSet
Colour: ff00ff
EndChar

StartChar: Hcircumflex
Encoding: 292 292 56
Width: 748
VWidth: 999
Flags: HW
HStem: -3 21<93 167 167 241 501 575 575 649> 311 52<217 543> 628 20<93 167 167 241 501 575 575 649>
VStem: 103 128<2.67992 642.32> 511 128<2.67992 642.32>
LayerCount: 2
Fore
SplineSet
605.588 445 m 2
 621.529 520 633.983 588 638.099 645 c 1
 640.736 648 l 1
 640.736 648 676.099 645 710.099 645 c 0
 745.099 645 781.736 648 781.736 648 c 1
 782.099 645 l 1
 762.834 592 745.529 520 729.588 445 c 2
 677.512 200 l 2
 661.569 125 649.115 57 645 0 c 1
 642.362 -3 l 1
 642.362 -3 607 0 573 0 c 0
 538 0 501.362 -3 501.362 -3 c 1
 501 0 l 1
 520.479 54 537.569 125 553.512 200 c 2
 577.105 311 l 1
 293.105 311 l 1
 269.512 200 l 2
 253.569 125 241.115 57 237 0 c 1
 234.362 -3 l 1
 234.362 -3 199 0 165 0 c 0
 130 0 93.3623 -3 93.3623 -3 c 1
 93 0 l 1
 112.479 54 129.569 125 145.512 200 c 2
 197.588 445 l 2
 213.529 520 225.983 588 230.099 645 c 1
 232.736 648 l 1
 232.736 648 268.099 645 302.099 645 c 0
 337.099 645 373.736 648 373.736 648 c 1
 374.099 645 l 1
 354.834 592 337.529 520 321.588 445 c 2
 304.158 363 l 1
 588.158 363 l 1
 605.588 445 l 2
538.683 803 m 1
 561.031 767 589.441 736 619.702 709 c 1
 599.239 688 l 1
 564.064 706 534.104 725 506.417 750 c 1
 463.679 723 427.853 705 386.239 688 c 1
 376.702 709 l 1
 419.654 737 457.456 769 495.683 803 c 1
 538.683 803 l 1
EndSplineSet
Position2: "'cpsp' Versalabstaende 1" dx=2 dy=0 dh=5 dv=0
Colour: ff00ff
EndChar

StartChar: hcircumflex
Encoding: 293 293 57
Width: 570
VWidth: 999
Flags: HW
HStem: -3 21<73 142 142 211 366 435 435 504> 373 66<270.645 360.574> 678 20<189.465 205.167>
VStem: 83 118<2.6647 320.474 360 667.98> 376 118<2.66453 358.781>
LayerCount: 2
Fore
SplineSet
462.847 832 m 1
 485.195 796 513.605 765 543.867 738 c 1
 523.403 717 l 1
 488.229 735 458.268 754 430.582 779 c 1
 387.843 752 352.017 734 310.403 717 c 1
 300.867 738 l 1
 343.818 766 381.62 798 419.847 832 c 1
 462.847 832 l 1
414.26 180 m 2
 434.666 276 l 2
 451.883 357 440.384 373 394.283 373 c 0
 365.283 373 318.545 346 264.767 300 c 1
 239.26 180 l 2
 223.105 104 213.903 56 209 0 c 1
 206.362 -3 l 1
 206.362 -3 176.3 0 142 0 c 0
 107 0 73.3623 -3 73.3623 -3 c 1
 73 0 l 1
 92.8721 53.5 105.318 105 121.26 180 c 2
 183.539 473 l 2
 199.693 549 212.336 619.3 213.713 662 c 1
 216.351 665 l 1
 257.488 668 323.139 688 350.364 698 c 1
 356.664 698 358.727 695 357.239 688 c 0
 336.509 626.7 323.22 575 307.491 501 c 2
 277.521 360 l 1
 370.187 429 410.312 439 449.312 439 c 0
 489.312 439 514.597 431.4 536.573 412 c 0
 566.047 386 566.27 340 554.366 284 c 2
 532.26 180 l 2
 516.063 103.8 507.615 57 504 0 c 1
 501.362 -3 l 1
 501.362 -3 469.3 0 435 0 c 0
 400 0 368.362 -3 368.362 -3 c 1
 368 0 l 1
 385.266 53 398.318 105 414.26 180 c 2
EndSplineSet
Colour: ff00ff
EndChar

StartChar: Hbar
Encoding: 294 294 58
Width: 748
VWidth: 999
Flags: HW
HStem: -3 21<93 167 167 241 501 575 575 649> 311 52<217 543> 512 34<41 656> 628 20<93 167 167 241 501 575 575 649>
VStem: 103 128<2.67992 642.32> 511 128<2.67992 642.32>
LayerCount: 2
Fore
SplineSet
588.158 363 m 1
 605.588 445 l 2
 610.477 468 615.038 490.4 619.129 512 c 1
 336.529 512 l 1
 331.396 490.2 326.434 467.8 321.588 445 c 2
 304.158 363 l 1
 588.158 363 l 1
577.105 311 m 1
 293.105 311 l 1
 269.512 200 l 2
 253.569 125 241.115 57 237 0 c 1
 234.362 -3 l 1
 234.362 -3 199 0 165 0 c 0
 130 0 93.3623 -3 93.3623 -3 c 1
 93 0 l 1
 112.479 54 129.569 125 145.512 200 c 2
 197.588 445 l 2
 202.477 468 207.038 490.4 211.129 512 c 1
 149.829 512 l 1
 157.056 546 l 1
 217.256 546 l 1
 223.344 581.7 227.901 614.9 230.099 645 c 1
 232.736 648 l 1
 232.736 648 268.099 645 302.099 645 c 0
 337.099 645 373.736 648 373.736 648 c 1
 374.099 645 l 1
 363.763 616.6 354.078 582.8 344.756 546 c 1
 625.256 546 l 1
 631.344 581.7 635.901 614.9 638.099 645 c 1
 640.736 648 l 1
 640.736 648 676.099 645 710.099 645 c 0
 745.099 645 781.736 648 781.736 648 c 1
 782.099 645 l 1
 771.763 616.6 762.078 582.8 752.756 546 c 1
 772.056 546 l 1
 764.829 512 l 1
 744.529 512 l 1
 739.396 490.2 734.434 467.8 729.588 445 c 2
 677.512 200 l 2
 661.569 125 649.115 57 645 0 c 1
 642.362 -3 l 1
 642.362 -3 607 0 573 0 c 0
 538 0 501.362 -3 501.362 -3 c 1
 501 0 l 1
 520.479 54 537.569 125 553.512 200 c 2
 577.105 311 l 1
EndSplineSet
Position2: "'cpsp' Versalabstaende 1" dx=2 dy=0 dh=5 dv=0
Colour: ff80cc
EndChar

StartChar: hbar
Encoding: 295 295 59
Width: 570
VWidth: 999
Flags: HW
HStem: -3 21<73 142 142 211 386 455 455 524> 373 66<277.694 380.574> 530 39<26 341> 678 20<189.465 205.167>
VStem: 83 118<2.6647 318.568 360 667.98> 396 118<2.66453 358.781>
LayerCount: 2
Fore
SplineSet
414.26 180 m 2
 434.666 276 l 2
 451.883 357 440.384 373 394.283 373 c 0
 365.283 373 318.545 346 264.767 300 c 1
 239.26 180 l 2
 223.105 104 213.903 56 209 0 c 1
 206.362 -3 l 1
 206.362 -3 176.3 0 142 0 c 0
 107 0 73.3623 -3 73.3623 -3 c 1
 73 0 l 1
 92.8721 53.5 105.318 105 121.26 180 c 2
 183.539 473 l 2
 187.685 492.5 191.644 511.6 195.155 530 c 1
 138.655 530 l 1
 146.944 569 l 1
 202.345 569 l 1
 208.709 606 212.975 638.3 213.713 662 c 1
 216.351 665 l 1
 257.488 668 323.139 688 350.364 698 c 1
 356.664 698 358.727 695 357.239 688 c 0
 343.467 647.2 333.008 610.7 322.845 569 c 1
 461.944 569 l 1
 453.655 530 l 1
 313.755 530 l 1
 311.678 520.7 309.638 511.1 307.491 501 c 2
 277.521 360 l 1
 370.187 429 410.312 439 449.312 439 c 0
 489.312 439 514.597 431.4 536.573 412 c 0
 566.047 386 566.27 340 554.366 284 c 2
 532.26 180 l 2
 516.063 103.8 507.615 57 504 0 c 1
 501.362 -3 l 1
 501.362 -3 469.3 0 435 0 c 0
 400 0 368.362 -3 368.362 -3 c 1
 368 0 l 1
 385.266 53 398.318 105 414.26 180 c 2
EndSplineSet
Colour: ff80cc
EndChar

StartChar: Itilde
Encoding: 296 296 60
Width: 331
VWidth: 999
Flags: HW
HStem: -3 21<96 170 170 244> 628 20<96 170 170 244> 697 44<162 249> 745 46<44 135> 784 10
VStem: 106 128<2.67992 642.32>
LayerCount: 2
Fore
SplineSet
386.354 745 m 0
 408.354 745 423.268 754 447.683 803 c 1
 473.558 793 l 1
 446.104 725 407.602 685 359.602 685 c 0
 336.602 685 317.79 700 300.978 715 c 1
 283.741 728 266.504 741 248.505 741 c 0
 221.505 741 207.316 726 188.239 688 c 1
 163.939 696 l 1
 192.394 764 224.471 802 269.471 802 c 0
 300.471 802 320.069 786 336.669 770 c 0
 351.692 756 366.354 745 386.354 745 c 0
200.588 445 m 2
 216.529 520 228.983 588 233.099 645 c 1
 235.736 648 l 1
 235.736 648 271.099 645 305.099 645 c 0
 340.099 645 376.736 648 376.736 648 c 1
 377.099 645 l 1
 357.834 592 340.529 520 324.588 445 c 2
 272.512 200 l 2
 256.569 125 244.115 57 240 0 c 1
 237.362 -3 l 1
 237.362 -3 202 0 168 0 c 0
 133 0 96.3623 -3 96.3623 -3 c 1
 96 0 l 1
 115.479 54 132.569 125 148.512 200 c 2
 200.588 445 l 2
EndSplineSet
Position2: "'cpsp' Versalabstaende 1" dx=2 dy=0 dh=5 dv=0
Colour: ff00ff
EndChar

StartChar: itilde
Encoding: 297 297 61
Width: 306
VWidth: 999
Flags: HW
HStem: -3 21<84 153 153 222> 419 20<200.5 216> 526 44<149.2 227.5> 574 46<43 124.9> 613 10
VStem: 94 118<2.6647 408.973>
LayerCount: 2
Back
SplineSet
44.334 622.07 m 5
 663.475 622.07 l 5
 642.926 525.391 l 5
 23.7852 525.391 l 5
 44.334 622.07 l 5
EndSplineSet
Fore
SplineSet
330.607 574 m 0
 350.407 574 364.021 583 387.036 632 c 1
 410.11 622 l 1
 383.956 554 348.454 514 305.254 514 c 0
 284.554 514 267.942 529 253.131 544 c 1
 237.894 557 222.657 570 206.457 570 c 0
 182.157 570 169.069 555 151.092 517 c 1
 129.393 525 l 1
 156.446 593 186.123 631 226.623 631 c 0
 254.523 631 271.822 615 286.422 599 c 0
 299.646 585 312.607 574 330.607 574 c 0
143.951 235 m 2
 159.893 310 170.221 368 171.36 411 c 1
 173.998 414 l 1
 214.636 417 279.187 429 306.312 439 c 1
 312.312 439 314.675 436 313.187 429 c 0
 292.221 368 281.293 326 265.352 251 c 2
 250.26 180 l 2
 234.105 104 226.115 57 222 0 c 1
 219.362 -3 l 1
 219.362 -3 187 0 153 0 c 0
 118 0 84.3623 -3 84.3623 -3 c 1
 84 0 l 1
 103.479 54 116.318 105 132.26 180 c 2
 143.951 235 l 2
EndSplineSet
Colour: ff00ff
EndChar

StartChar: Imacron
Encoding: 298 298 62
Width: 331
VWidth: 999
Flags: HW
HStem: -3 21<96 170 170 244> 628 20<96 170 170 244> 733 44<9.0876 287.515>
VStem: 8 281<733.205 777> 106 128<2.67992 642.32>
LayerCount: 2
Fore
SplineSet
447.166 730 m 2
 173.166 730 l 2
 162.166 730 160.079 739 161.992 748 c 0
 164.543 760 180.794 780 193.794 780 c 2
 469.794 780 l 2
 479.794 780 481.881 771 480.181 763 c 0
 477.417 750 461.166 730 447.166 730 c 2
200.588 445 m 2
 216.529 520 228.983 588 233.099 645 c 1
 235.736 648 l 1
 235.736 648 271.099 645 305.099 645 c 0
 340.099 645 376.736 648 376.736 648 c 1
 377.099 645 l 1
 357.834 592 340.529 520 324.588 445 c 2
 272.512 200 l 2
 256.569 125 244.115 57 240 0 c 1
 237.362 -3 l 1
 237.362 -3 202 0 168 0 c 0
 133 0 96.3623 -3 96.3623 -3 c 1
 96 0 l 1
 115.479 54 132.569 125 148.512 200 c 2
 200.588 445 l 2
EndSplineSet
Position2: "'cpsp' Versalabstaende 1" dx=2 dy=0 dh=5 dv=0
Colour: ff00ff
EndChar

StartChar: imacron
Encoding: 299 299 63
Width: 306
VWidth: 999
Flags: HW
HStem: -3 21<84 153 153 222> 419 20<200.5 216> 538 44<9.57884 260.164>
VStem: 8.6 252.9<538.205 582> 94 118<2.6647 408.973>
LayerCount: 2
Back
SplineSet
441.138 538.574 m 2
 44.165 538.574 l 2
 36.2549 538.574 34.8389 546.387 36.292 553.223 c 0
 38.7832 564.941 51.748 582.52 62.2949 582.52 c 2
 459.268 582.52 l 2
 468.057 582.52 469.912 574.707 468.459 567.871 c 0
 465.968 556.152 452.562 538.574 441.138 538.574 c 2
EndSplineSet
Fore
SplineSet
377.918 535 m 2
 131.317 535 l 2
 121.418 535 119.73 544 121.644 553 c 0
 124.194 565 139.245 585 150.945 585 c 2
 399.346 585 l 2
 408.346 585 410.032 576 408.332 568 c 0
 405.569 555 390.518 535 377.918 535 c 2
143.951 235 m 2
 159.893 310 170.221 368 171.36 411 c 1
 173.998 414 l 1
 214.636 417 279.187 429 306.312 439 c 1
 312.312 439 314.675 436 313.187 429 c 0
 292.221 368 281.293 326 265.352 251 c 2
 250.26 180 l 2
 234.105 104 226.115 57 222 0 c 1
 219.362 -3 l 1
 219.362 -3 187 0 153 0 c 0
 118 0 84.3623 -3 84.3623 -3 c 1
 84 0 l 1
 103.479 54 116.318 105 132.26 180 c 2
 143.951 235 l 2
EndSplineSet
Colour: ff00ff
EndChar

StartChar: Ibreve
Encoding: 300 300 64
Width: 331
VWidth: 999
Flags: HW
HStem: -3 21<96 170 170 244> 628 20<96 170 170 244> 692 52<70 226>
VStem: 13 28<765 803> 106 128<2.67992 642.32> 257 27<767 805>
LayerCount: 2
Fore
SplineSet
455.108 805 m 1
 434.017 734 362.089 692 296.089 692 c 0
 223.089 692 174.229 735 184.108 805 c 1
 212.108 805 l 1
 211.818 766 254.142 744 307.143 744 c 0
 356.143 744 412.818 766 428.108 805 c 1
 455.108 805 l 1
200.588 445 m 2
 216.529 520 228.983 588 233.099 645 c 1
 235.736 648 l 1
 235.736 648 271.099 645 305.099 645 c 0
 340.099 645 376.736 648 376.736 648 c 1
 377.099 645 l 1
 357.834 592 340.529 520 324.588 445 c 2
 272.512 200 l 2
 256.569 125 244.115 57 240 0 c 1
 237.362 -3 l 1
 237.362 -3 202 0 168 0 c 0
 133 0 96.3623 -3 96.3623 -3 c 1
 96 0 l 1
 115.479 54 132.569 125 148.512 200 c 2
 200.588 445 l 2
EndSplineSet
Position2: "'cpsp' Versalabstaende 1" dx=2 dy=0 dh=5 dv=0
Colour: ff00ff
EndChar

StartChar: ibreve
Encoding: 301 301 65
Width: 306
VWidth: 999
Flags: HW
HStem: -3 21<84 153 153 222> 419 20<200.5 216> 503 57<74.2712 197.508>
VStem: 14.9 23.4<609.805 641.769> 94 118<2.6647 408.973> 233.6 24.3<611.333 641.63>
LayerCount: 2
Fore
SplineSet
190.125 655 m 1
 180.446 601 210.645 561 267.344 561 c 0
 309.645 561 367.321 591 383.625 655 c 1
 409.236 640 l 1
 377.918 535 299.641 497 253.74 497 c 0
 180.841 497 146.319 559 157.236 640 c 1
 190.125 655 l 1
143.951 235 m 2
 159.893 310 170.221 368 171.36 411 c 1
 173.998 414 l 1
 214.636 417 279.187 429 306.312 439 c 1
 312.312 439 314.675 436 313.187 429 c 0
 292.221 368 281.293 326 265.352 251 c 2
 250.26 180 l 2
 234.105 104 226.115 57 222 0 c 1
 219.362 -3 l 1
 219.362 -3 187 0 153 0 c 0
 118 0 84.3623 -3 84.3623 -3 c 1
 84 0 l 1
 103.479 54 116.318 105 132.26 180 c 2
 143.951 235 l 2
EndSplineSet
Colour: ff00ff
EndChar

StartChar: Iogonek
Encoding: 302 302 66
Width: 331
VWidth: 999
Flags: HW
HStem: -225 39<73.1814 157.134> -3 21<96 170 170 244> -1 25<142.256 178.88> 628 20<96 170 170 244>
VStem: -1 60<-174.091 -75.5789> 106 128<2.67992 642.32>
LayerCount: 2
Fore
SplineSet
44.1748 -225 m 0
 -8.8252 -225 -42.2363 -194 -30.7578 -140 c 0
 -20.8105 -93.2002 30.3477 -36 96.29 -2.40039 c 1
 96 0 l 1
 115.479 54 132.569 125 148.512 200 c 2
 200.588 445 l 2
 216.529 520 228.983 588 233.099 645 c 1
 235.736 648 l 1
 235.736 648 271.099 645 305.099 645 c 0
 340.099 645 376.736 648 376.736 648 c 1
 377.099 645 l 1
 357.834 592 340.529 520 324.588 445 c 2
 272.512 200 l 2
 256.569 125 244.115 57 240 0 c 1
 237.362 -3 l 1
 237.362 -3 217.624 -1.2998 193.494 -0.5 c 1
 193.787 -1 l 1
 113.787 -1 42.8457 -76 32.0049 -127 c 0
 25.2031 -159 41.4648 -186 77.4648 -186 c 0
 107.465 -186 131.652 -171 155.116 -150 c 1
 168.416 -158 l 1
 134.426 -205 80.1748 -225 44.1748 -225 c 0
EndSplineSet
Position2: "'cpsp' Versalabstaende 1" dx=2 dy=0 dh=5 dv=0
Colour: ff80cc
EndChar

StartChar: iogonek
Encoding: 303 303 67
Width: 306
VWidth: 999
Flags: HW
HStem: -225 39<52.2133 135.045> -3 21<84 153 153 222> -1 25<119.395 156.6> 419 20<200.5 216> 531 138<103.092 202.908>
VStem: -23 60<-174.091 -75.5789> 84 138<550.092 649.908> 94 118<2.6647 408.973>
LayerCount: 2
Fore
SplineSet
22.1748 -225 m 0
 -31.8252 -225 -64.2363 -194 -52.7578 -140 c 0
 -42.2363 -90.5 13.5508 -29.4004 85.0586 3.09961 c 1
 103.903 56 116.616 106.4 132.26 180 c 2
 143.951 235 l 2
 159.893 310 170.221 368 171.36 411 c 1
 173.998 414 l 1
 214.636 417 279.187 429 306.312 439 c 1
 312.312 439 314.675 436 313.187 429 c 0
 292.221 368 281.293 326 265.352 251 c 2
 250.26 180 l 2
 234.105 104 226.115 57 222 0 c 1
 219.362 -3 l 1
 219.362 -3 197.209 -0.900391 170.357 -0.200195 c 1
 170.787 -1 l 1
 90.7871 -1 20.8457 -76 10.0049 -127 c 0
 3.20312 -159 19.4648 -186 55.4648 -186 c 0
 84.4648 -186 108.652 -171 132.116 -150 c 1
 146.416 -158 l 1
 112.426 -205 57.1748 -225 22.1748 -225 c 0
215.534 600 m 0
 223.186 636 258.35 665 294.35 665 c 0
 330.35 665 353.186 636 345.534 600 c 0
 337.882 564 302.718 535 266.718 535 c 0
 230.718 535 207.882 564 215.534 600 c 0
EndSplineSet
Colour: ff80cc
EndChar

StartChar: Idotaccent
Encoding: 304 304 68
Width: 331
VWidth: 999
Flags: HW
HStem: -3 21<96 170 170 244> 628 20<96 170 170 244> 711 138<115.092 214.908>
VStem: 96 138<730.092 829.908> 106 128<2.67992 642.32>
LayerCount: 2
Fore
SplineSet
265.794 780 m 0
 273.446 816 308.61 845 344.61 845 c 0
 380.61 845 403.446 816 395.794 780 c 0
 388.143 744 352.978 715 316.978 715 c 0
 280.978 715 258.143 744 265.794 780 c 0
200.588 445 m 2
 216.529 520 228.983 588 233.099 645 c 1
 235.736 648 l 1
 235.736 648 271.099 645 305.099 645 c 0
 340.099 645 376.736 648 376.736 648 c 1
 377.099 645 l 1
 357.834 592 340.529 520 324.588 445 c 2
 272.512 200 l 2
 256.569 125 244.115 57 240 0 c 1
 237.362 -3 l 1
 237.362 -3 202 0 168 0 c 0
 133 0 96.3623 -3 96.3623 -3 c 1
 96 0 l 1
 115.479 54 132.569 125 148.512 200 c 2
 200.588 445 l 2
EndSplineSet
Substitution2: "'c2sc' Versale nach Kapitaelchen 1" idotaccent.sc
Position2: "'cpsp' Versalabstaende 1" dx=2 dy=0 dh=5 dv=0
Colour: ff00ff
EndChar

StartChar: afii10057
Encoding: 1032 1032 69
Width: 385
VWidth: 999
Flags: HW
HStem: -10 60<57.8935 169.935> 628 20G<200 253 253 306>
VStem: 210 86<132.814 642.32>
AnchorPoint: "top_akzent" 423.32 806 basechar 0
AnchorPoint: "top_punkt" 404.679 723 basechar 0
LayerCount: 2
Back
SplineSet
228.05 94.2383 m 4
 186.861 0 134.236 -12.207 111.663 -12.207 c 4
 69.6709 -12.207 36.3281 7.8125 43.5938 41.9922 c 4
 48.1602 63.4766 61.9736 82.5195 86.876 82.5195 c 4
 104.454 82.5195 117.176 71.8691 117.893 56.1523 c 4
 118.581 41.0156 124.63 32.7148 134.395 32.7148 c 4
 145.343 32.7148 157.291 44.2939 169.148 65.4297 c 4
EndSplineSet
Fore
SplineSet
264.84 258 m 2
 304.588 445 l 2
 320.529 520 332.983 588 337.099 645 c 1
 339.736 648 l 1
 339.736 648 356.099 645 390.099 645 c 0
 425.099 645 442.736 648 442.736 648 c 1
 443.099 645 l 1
 423.834 592 406.529 520 390.588 445 c 2
 355.516 280 l 2
 331.178 165.5 314.517 135.1 247.028 66 c 0
 194.372 12.0996 135.874 -10 72.874 -10 c 0
 53.874 -10 36.7246 -6 29.7871 -1 c 1
 29.4248 2 l 1
 44.4639 21 62.1152 57 74.8545 84 c 1
 86.0674 85 l 1
 92.8164 65 107.628 50 136.628 50 c 0
 215.628 50 246.135 170 264.84 258 c 2
EndSplineSet
EndChar

StartChar: afii10061
Encoding: 1036 1036 70
Width: 632
VWidth: 999
Flags: HW
HStem: -4 21<443 478.5 586.5 596> -3 21<96 170 170 244> 312 45<187 249.712> 569 89<450.534 559.69> 628 20<96 170 170 244> 698 122
VStem: 106 128<2.67992 642.32> 288 201
LayerCount: 2
Fore
SplineSet
601.297 820 m 1
 652.243 768 l 1
 495.915 710 l 2
 473.002 701 459.364 698 450.364 698 c 0
 441.364 698 437.428 703 439.553 713 c 0
 441.041 720 444.104 725 459.017 734 c 2
 601.297 820 l 1
200.588 445 m 2
 216.529 520 228.983 588 233.099 645 c 1
 235.736 648 l 1
 235.736 648 271.099 645 305.099 645 c 0
 340.099 645 376.736 648 376.736 648 c 1
 377.099 645 l 1
 357.834 592 340.529 520 324.588 445 c 2
 307.541 364.8 l 1
 366.729 387.8 393.572 458.1 459.867 531 c 0
 516.367 593.1 588.862 658 666.862 658 c 0
 693.862 658 697.225 655 721.736 648 c 1
 725.461 642 l 1
 677.119 551 l 1
 664.481 548 l 1
 647.457 562 631.944 569 603.944 569 c 0
 580.944 569 540.906 550 494.703 502 c 0
 437.72 442.8 404.521 360 357.27 340 c 1
 356.632 337 l 1
 426.081 325 439.908 296.9 479.376 237 c 0
 543.415 139.8 530.918 89 596 0 c 1
 592.149 -4 l 1
 579.575 -2 541 0 516 0 c 0
 490 0 489.575 -2 466.149 -4 c 1
 434.517 73 423.869 117 406.922 169 c 0
 385.143 235.9 369.037 288.1 295.042 306 c 1
 272.512 200 l 2
 256.569 125 244.115 57 240 0 c 1
 237.362 -3 l 1
 237.362 -3 202 0 168 0 c 0
 133 0 96.3623 -3 96.3623 -3 c 1
 96 0 l 1
 115.479 54 132.569 125 148.512 200 c 2
 200.588 445 l 2
EndSplineSet
LCarets2: 1 0 
Colour: ff00ff
EndChar

StartChar: uni040D
Encoding: 1037 1037 71
Width: 700
VWidth: 999
Flags: HW
HStem: -3 21<96 170 170 244 502 576 576 650> 628 20<96 170 170 244 502 576 576 650>
VStem: 106 128<2.67992 642.32> 512 128<2.67992 642.32>
DStem2: 187 134 187 78 0.608002 0.793935<0 493.367>
LayerCount: 2
Fore
SplineSet
472.871 818 m 1
 576.017 734 l 2
 585.316 726 588.041 720 586.553 713 c 0
 584.428 703 578.364 698 568.364 698 c 0
 560.364 698 547.002 701 527.915 710 c 2
 387.307 773 l 1
 472.871 818 l 1
200.588 445 m 2
 216.529 520 228.983 588 233.099 645 c 1
 235.736 648 l 1
 235.736 648 271.099 645 305.099 645 c 0
 340.099 645 376.736 648 376.736 648 c 1
 377.099 645 l 1
 357.834 592 340.529 520 324.588 445 c 2
 272.512 200 l 2
 271.81 196.7 271.13 193.5 270.429 190.2 c 1
 627.875 555.5 l 1
 633.198 587.6 637.075 617.6 639.099 645 c 1
 641.736 648 l 1
 641.736 648 677.099 645 711.099 645 c 0
 746.099 645 782.736 648 782.736 648 c 1
 783.099 645 l 1
 763.834 592 746.529 520 730.588 445 c 2
 678.512 200 l 2
 662.569 125 650.115 57 646 0 c 1
 643.362 -3 l 1
 643.362 -3 608 0 574 0 c 0
 539 0 502.362 -3 502.362 -3 c 1
 502 0 l 1
 521.479 54 538.569 125 554.512 200 c 2
 606.588 445 l 2
 610.711 464.4 614.55 483.4 618.161 501.8 c 1
 259.295 135 l 1
 249.874 85.5 242.902 40 240 0 c 1
 237.362 -3 l 1
 237.362 -3 202 0 168 0 c 0
 133 0 96.3623 -3 96.3623 -3 c 1
 96 0 l 1
 115.479 54 132.569 125 148.512 200 c 2
 200.588 445 l 2
EndSplineSet
LCarets2: 1 0 
Colour: ff00ff
EndChar

StartChar: afii10062
Encoding: 1038 1038 72
Width: 580
VWidth: 999
Flags: HW
HStem: -22 67<133 228.079> 628 20<54.5 65.8588 152.5 165.28 462.421 482 552.006 555> 697 31<266.536 357.309>
VStem: 187 70<735.681 802.162> 366 70<734.774 802.125>
DStem2: 278.595 138.281 342 161 0.410131 0.912027<-105.377 13.9628 113.393 328.053>
LayerCount: 2
Fore
SplineSet
600.519 774 m 0
 589.466 722 522.152 697 459.152 697 c 0
 393.152 697 340.253 721 351.307 773 c 0
 355.982 795 369.896 804 396.896 804 c 0
 417.896 804 424.494 788 421.307 773 c 0
 420.881 771 418.818 766 418.605 765 c 0
 414.354 745 433.741 728 466.741 728 c 0
 496.741 728 524.717 742 529.394 764 c 0
 529.605 765 530.094 772 530.307 773 c 0
 533.494 788 545.896 804 568.896 804 c 0
 594.896 804 604.77 794 600.519 774 c 0
376.222 161 m 2
 305.399 54.0996 239.324 -22 149.324 -22 c 0
 107.324 -22 66.2129 1 73.0146 33 c 0
 78.9658 61 98.8545 84 130.854 84 c 0
 144.854 84 165.367 77 172.816 65 c 0
 177.903 56 190.565 45 204.565 45 c 0
 247.265 45 271.139 81.0996 307.996 138.3 c 1
 264.548 339.9 206.39 567.8 183.736 648 c 1
 200.099 645 226.099 645 243.099 645 c 0
 260.099 645 281.099 645 298.736 648 c 1
 300.96 618 324.022 470.1 374.745 242.5 c 1
 466.638 386.9 564.941 546.4 613.736 648 c 1
 625.099 645 652.099 645 663.099 645 c 0
 674.099 645 686.099 645 698.736 648 c 1
 376.222 161 l 2
EndSplineSet
LCarets2: 1 0 
Colour: ff00ff
EndChar

StartChar: afii10020
Encoding: 1043 1043 73
Width: 481
VWidth: 999
Flags: HW
HStem: -3 21<88 142 142 195> 591 54<189.662 412.584>
VStem: 99 86<2.67992 589.791>
LayerCount: 2
Fore
SplineSet
279.588 445 m 2
 227.512 200 l 2
 211.569 125 198.266 53 195 0 c 1
 193.362 -3 l 1
 193.362 -3 177 0 142 0 c 0
 108 0 89.3623 -3 89.3623 -3 c 1
 88 0 l 1
 108.115 57 125.569 125 141.512 200 c 2
 193.588 445 l 2
 209.529 520 222.621 591 226.099 645 c 1
 227.736 648 l 1
 227.736 648 245.099 645 279.099 645 c 2
 552.099 645 l 2
 573.099 645 596.312 646 612.736 648 c 1
 614.099 645 l 1
 610.123 631 608.061 626 605.935 616 c 0
 603.81 606 601.621 591 600.921 583 c 1
 598.07 579 l 1
 598.07 579 452.621 591 318.621 591 c 1
 306.52 567 283.201 462 279.588 445 c 2
EndSplineSet
Colour: ff00ff
EndChar

StartChar: afii10021
Encoding: 1044 1044 74
Width: 708
VWidth: 999
Flags: HW
HStem: 0 44<192.009 452.856> 601 44<276.411 452.674>
VStem: 39 36<-138 -59.5127> 461 86<60.1801 586.818> 570 36<-138 -59.5127>
LayerCount: 2
Fore
SplineSet
434.353 44 m 2
 452.353 44 460.628 50 465.541 59 c 0
 477.643 83 499.897 183 503.512 200 c 2
 555.588 445 l 2
 559.201 462 579.882 564 577.983 588 c 1
 572.896 597 569.746 601 554.746 601 c 2
 440.746 601 l 2
 413.746 601 401.621 591 394.307 566 c 0
 364.739 465 327.732 361 301.279 293 c 0
 254.41 176 208.367 77 203.903 56 c 0
 201.353 44 214.353 44 228.353 44 c 2
 434.353 44 l 2
178 0 m 2
 98 0 72.1836 -65 45.667 -138 c 1
 43.0293 -141 l 1
 11.0293 -141 l 1
 9.66699 -138 l 1
 29.3379 11 l 2
 31.4639 21 38.1641 29 63.8018 32 c 0
 84.4121 34.4004 104.802 32 121.99 47 c 0
 153.517 73 186.82 145 251.979 301 c 1
 298.211 415 332.104 518 345.495 581 c 0
 350.172 603 351.848 625 353.099 645 c 1
 354.736 648 l 1
 354.736 648 381.099 645 415.099 645 c 2
 641.099 645 l 2
 675.099 645 693.736 648 693.736 648 c 1
 694.099 645 l 1
 674.621 591 657.529 520 641.588 445 c 2
 589.512 200 l 2
 566.13 90 561.439 35 594.802 32 c 0
 619.334 29.7998 622.464 21 620.338 11 c 2
 576.667 -138 l 1
 574.029 -141 l 1
 542.029 -141 l 1
 540.667 -138 l 1
 545.184 -65 547 0 467 0 c 2
 178 0 l 2
EndSplineSet
EndChar

StartChar: afii10024
Encoding: 1046 1046 75
Width: 924
VWidth: 999
Flags: HW
HStem: -4 21G<35 44.5 147 181 743 777 879.5 889> -3 21<409 483 483 557> 312 45<364.57 424 500 559.43> 569 89<70.0289 172.306 751.694 853.971> 628 20<409 483 483 557>
VStem: 419 128<2.67992 642.32>
LayerCount: 2
Back
SplineSet
18.835 -0.976562 m 1xaa
 17.2979 0.976562 l 1x42
 21.2412 19.5312 l 2
 22.3828 24.9023 26.9121 27.832 30.8184 27.832 c 2
 39.6074 27.832 l 2
 72.3223 27.832 140.655 103.516 220.052 235.84 c 0
 256.323 296.293 295.418 358.398 357.43 358.398 c 1x92
 291.05 383.789 293.765 467.773 297.283 530.273 c 0
 299.116 559.57 286.478 587.402 265.969 587.402 c 0
 253.762 587.402 240.902 582.031 227.73 575.195 c 0
 215.047 568.359 201.595 562.5 189.876 562.5 c 0
 170.833 562.5 154.165 580.566 159.354 604.98 c 0
 164.336 628.418 183.582 652.344 230.945 652.344 c 0
 294.422 652.344 338.877 599.609 334.442 541.992 c 0
 329.727 485.352 325.5 428.711 371.873 396.484 c 0
 392.685 381.836 437.015 381.348 470.218 381.348 c 1
 461.085 338.379 l 1
 354.64 338.379 321.501 281.25 262.803 179.688 c 0
 199.827 71.7773 156.458 0.976562 83.9844 0 c 2
 18.835 -0.976562 l 1xaa
836.706 -0.976562 m 1x82
 770.508 0 l 2
 698.449 0.976562 685.123 71.4258 669.053 179.688 c 0
 654.197 279.785 645.167 338.379 538.722 338.379 c 1
 547.855 381.348 l 1xa2
 581.058 381.348 624.131 381.836 651.17 396.484 c 0
 711.242 428.711 732.56 485.352 751.923 541.992 c 0
 771.981 599.609 838.855 652.344 902.332 652.344 c 0
 949.695 652.344 958.77 628.418 953.787 604.98 c 0
 948.598 580.566 924.251 562.5 905.208 562.5 c 0
 893.489 562.5 882.527 568.359 872.749 575.195 c 0
 862.484 582.031 851.907 587.402 839.7 587.402 c 0
 819.192 587.402 794.722 559.57 784.1 530.273 c 0
 761.049 467.773 728.061 383.789 650.887 358.398 c 1
 712.898 358.398 725.088 296.111 736.164 235.84 c 0
 760.388 104.004 795.467 27.832 828.182 27.832 c 2
 836.971 27.832 l 2x9a
 840.877 27.832 844.16 24.9023 843.019 19.5312 c 2
 839.074 0.976562 l 1x42
 836.706 -0.976562 l 1x82
EndSplineSet
Fore
SplineSet
284.922 169 m 0
 247.869 117 219.517 73 157.149 -4 c 1
 135.575 -2 136 0 111 0 c 0
 88 0 50.5752 -2 37.1494 -4 c 1
 35 0 l 1
 133.918 89 142.758 140 244.376 237 c 0
 307.129 297 331.081 325 402.632 337 c 1
 403.27 340 l 1
 366.521 360 369.062 443 339.703 502 c 0
 315.806 550 285.944 569 263.944 569 c 0
 236.944 569 219.457 562 197.481 548 c 1
 187.119 551 l 1
 178.461 642 l 1
 184.736 648 l 1
 211.225 655 214.862 658 240.862 658 c 0
 314.862 658 356.946 593 384.867 531 c 0
 424.211 443.7 411.384 360.3 494.904 357.1 c 1
 513.588 445 l 2
 529.529 520 541.983 588 546.099 645 c 1
 548.736 648 l 1
 548.736 648 584.099 645 618.099 645 c 0
 653.099 645 689.736 648 689.736 648 c 1
 690.099 645 l 1
 670.834 592 653.529 520 637.588 445 c 2
 620.774 365.9 l 1
 675.476 389.9 702.006 459.2 764.867 531 c 0
 819.146 593 888.862 658 962.862 658 c 0
 988.862 658 991.225 655 1014.74 648 c 1
 1018.46 642 l 1
 971.119 551 l 1
 959.481 548 l 1
 943.457 562 928.944 569 901.944 569 c 0
 879.944 569 842.006 550 797.703 502 c 0
 743.263 443 710.521 360 665.27 340 c 1
 664.632 337 l 1
 731.081 325 743.129 297 780.376 237 c 0
 840.758 140 827.918 89 889 0 c 1
 885.149 -4 l 1
 872.575 -2 836 0 813 0 c 0
 788 0 787.575 -2 765.149 -4 c 1
 735.517 73 725.869 117 710.922 169 c 0
 690.993 235.2 676.025 287.1 607.936 305.5 c 1
 585.512 200 l 2
 569.569 125 557.115 57 553 0 c 1
 550.362 -3 l 1
 550.362 -3 515 0 481 0 c 0
 446 0 409.362 -3 409.362 -3 c 1
 409 0 l 1
 428.479 54 445.569 125 461.512 200 c 2
 485.232 311.6 l 1
 381.526 303.1 340.646 245.8 284.922 169 c 0
EndSplineSet
Colour: ff80cc
EndChar

StartChar: afii10025
Encoding: 1047 1047 76
Width: 542
VWidth: 999
Flags: HW
HStem: -12 37<172.536 324.196> 336 37<158.005 306.843> 469 21G<49 91> 624 34<165.85 309.892>
VStem: 49 30<470.533 513.383> 375 80<432.684 569.184> 405 92<100.605 254.446>
LayerCount: 2
Back
SplineSet
254.729 -12.207 m 4
 168.792 -12.207 118.794 19.043 92.7334 43.457 c 4
 70.3408 64.4531 55.8828 95.2148 61.5908 122.07 c 4
 67.0918 147.949 83.3164 164.551 101.383 164.551 c 4
 129.703 164.551 138.827 152.344 142.616 119.629 c 4
 150.9 48.3398 200.367 21.4844 272.145 21.4844 c 4
205.566 645.508 m 1
 149.575 471.68 l 1
 178.737 468.75 l 1
 195.195 511.719 250.974 606.445 302.731 606.445 c 2
EndSplineSet
Fore
SplineSet
253.313 25 m 0
 323.313 25 419.454 68 442.41 176 c 0
 453.25 227 437.419 336 320.419 336 c 2
 247.419 336 l 2
 236.419 336 230.907 343 233.245 354 c 0
 235.583 365 244.283 373 255.283 373 c 2
 302.283 373 l 2
 421.283 373 470.863 451 482.554 506 c 0
 496.795 573 443.636 624 381.636 624 c 0
 258.636 624 219.906 550 178.689 469 c 1
 149.114 471 l 1
 206.312 646 l 1
 293.312 646 330.862 658 390.862 658 c 0
 483.862 658 584.872 611 564.68 516 c 0
 547.887 437 494.26 387 416.521 360 c 1
 483.27 340 560.555 299 537.811 192 c 0
 505.715 41 360.449 -12 242.449 -12 c 0
 161.449 -12 119.039 19 93.1396 43 c 0
 70.6035 64 55.3428 91 61.082 118 c 0
 66.6084 144 82.0723 165 105.072 165 c 0
 133.072 165 140.309 152 144.507 120 c 0
 152.541 59 177.313 25 253.313 25 c 0
EndSplineSet
EndChar

StartChar: afii10026
Encoding: 1048 1048 77
Width: 700
VWidth: 999
Flags: HW
HStem: -3 21<96 170 170 244 502 576 576 650> 628 20<96 170 170 244 502 576 576 650>
VStem: 106 128<2.67992 642.32> 512 128<2.67992 642.32>
DStem2: 187 134 187 78 0.608002 0.793935<0 493.367>
LayerCount: 2
Fore
SplineSet
200.588 445 m 2
 216.529 520 228.983 588 233.099 645 c 1
 235.736 648 l 1
 235.736 648 271.099 645 305.099 645 c 0
 340.099 645 376.736 648 376.736 648 c 1
 377.099 645 l 1
 357.834 592 340.529 520 324.588 445 c 2
 272.512 200 l 2
 271.81 196.7 271.13 193.5 270.429 190.2 c 1
 627.875 555.5 l 1
 633.198 587.6 637.075 617.6 639.099 645 c 1
 641.736 648 l 1
 641.736 648 677.099 645 711.099 645 c 0
 746.099 645 782.736 648 782.736 648 c 1
 783.099 645 l 1
 763.834 592 746.529 520 730.588 445 c 2
 678.512 200 l 2
 662.569 125 650.115 57 646 0 c 1
 643.362 -3 l 1
 643.362 -3 608 0 574 0 c 0
 539 0 502.362 -3 502.362 -3 c 1
 502 0 l 1
 521.479 54 538.569 125 554.512 200 c 2
 606.588 445 l 2
 610.711 464.4 614.55 483.4 618.161 501.8 c 1
 259.295 135 l 1
 249.874 85.5 242.902 40 240 0 c 1
 237.362 -3 l 1
 237.362 -3 202 0 168 0 c 0
 133 0 96.3623 -3 96.3623 -3 c 1
 96 0 l 1
 115.479 54 132.569 125 148.512 200 c 2
 200.588 445 l 2
EndSplineSet
EndChar

StartChar: afii10027
Encoding: 1049 1049 78
Width: 700
VWidth: 999
Flags: HW
HStem: -3 21<96 170 170 244 502 576 576 650> 628 20<96 170 170 244 502 576 576 650> 697 31<305.536 396.309>
VStem: 106 128<2.67992 642.32> 226 70<735.681 802.162> 405 70<734.774 802.125> 512 128<2.67992 642.32>
DStem2: 187 134 187 78 0.608002 0.793935<0 493.367>
LayerCount: 2
Fore
SplineSet
639.519 774 m 0
 628.466 722 561.152 697 498.152 697 c 0
 432.152 697 379.253 721 390.307 773 c 0
 394.982 795 408.896 804 435.896 804 c 0
 456.896 804 463.494 788 460.307 773 c 0
 459.881 771 457.818 766 457.605 765 c 0
 453.354 745 472.741 728 505.741 728 c 0
 535.741 728 563.717 742 568.394 764 c 0
 568.605 765 569.094 772 569.307 773 c 0
 572.494 788 584.896 804 607.896 804 c 0
 633.896 804 643.77 794 639.519 774 c 0
200.588 445 m 2
 216.529 520 228.983 588 233.099 645 c 1
 235.736 648 l 1
 235.736 648 271.099 645 305.099 645 c 0
 340.099 645 376.736 648 376.736 648 c 1
 377.099 645 l 1
 357.834 592 340.529 520 324.588 445 c 2
 272.512 200 l 2
 271.81 196.7 271.13 193.5 270.429 190.2 c 1
 627.875 555.5 l 1
 633.198 587.6 637.075 617.6 639.099 645 c 1
 641.736 648 l 1
 641.736 648 677.099 645 711.099 645 c 0
 746.099 645 782.736 648 782.736 648 c 1
 783.099 645 l 1
 763.834 592 746.529 520 730.588 445 c 2
 678.512 200 l 2
 662.569 125 650.115 57 646 0 c 1
 643.362 -3 l 1
 643.362 -3 608 0 574 0 c 0
 539 0 502.362 -3 502.362 -3 c 1
 502 0 l 1
 521.479 54 538.569 125 554.512 200 c 2
 606.588 445 l 2
 610.711 464.4 614.55 483.4 618.161 501.8 c 1
 259.295 135 l 1
 249.874 85.5 242.902 40 240 0 c 1
 237.362 -3 l 1
 237.362 -3 202 0 168 0 c 0
 133 0 96.3623 -3 96.3623 -3 c 1
 96 0 l 1
 115.479 54 132.569 125 148.512 200 c 2
 200.588 445 l 2
EndSplineSet
LCarets2: 1 0 
Colour: ff00ff
EndChar

StartChar: afii10033
Encoding: 1055 1055 79
Width: 708
VWidth: 999
Flags: HW
HStem: -3 21<90 144 144 197 511 564 564 618> 601 44<195.326 512.674>
VStem: 101 86<2.67992 586.818> 521 86<2.67992 586.818>
LayerCount: 2
Fore
SplineSet
701.099 645 m 2
 735.099 645 753.736 648 753.736 648 c 1
 754.099 645 l 1
 734.621 591 717.529 520 701.588 445 c 2
 649.512 200 l 2
 633.569 125 622.115 57 618 0 c 1
 615.362 -3 l 1
 615.362 -3 598 0 564 0 c 0
 529 0 511.362 -3 511.362 -3 c 1
 511 0 l 1
 530.266 53 547.569 125 563.512 200 c 2
 615.588 445 l 2
 619.201 462 639.882 564 637.983 588 c 1
 632.896 597 629.746 601 614.746 601 c 2
 348.746 601 l 2
 333.746 601 328.896 597 319.983 588 c 1
 307.882 564 285.201 462 281.588 445 c 2
 229.512 200 l 2
 213.569 125 200.266 53 197 0 c 1
 195.362 -3 l 1
 195.362 -3 179 0 144 0 c 0
 110 0 91.3623 -3 91.3623 -3 c 1
 90 0 l 1
 110.115 57 127.569 125 143.512 200 c 2
 195.588 445 l 2
 211.529 520 224.621 591 228.099 645 c 1
 229.736 648 l 1
 229.736 648 247.099 645 281.099 645 c 2
 701.099 645 l 2
EndSplineSet
Colour: ff00ff
EndChar

StartChar: afii10034
Encoding: 1056 1056 80
Width: 563
VWidth: 999
Flags: HW
HStem: -3 21<93 165 165 239> 282 43<229.825 382.127> 609 43<199.753 387.631>
VStem: 103 126<2.67992 292 328.76 600.25> 420 139<404.457 553.964>
LayerCount: 2
Fore
SplineSet
335.095 565 m 2
 286.206 335 l 1
 297.719 328 338.081 325 363.081 325 c 0
 427.181 325 480.008 367 501.477 468 c 0
 526.771 587 483.447 609 424.447 609 c 0
 352.447 609 341.259 594 335.095 565 c 2
187.588 445 m 2
 203.529 520 215.983 588 220.099 645 c 1
 222.736 648 l 1
 222.736 648 258.099 645 292.099 645 c 0
 322.099 645 414.587 652 440.587 652 c 0
 511.687 652 564.289 642.6 594.36 618 c 0
 642.07 579 644.019 522.3 636.303 486 c 0
 618.235 401 526.516 280 344.516 280 c 0
 309.516 280 297.153 283 276.642 290 c 1
 257.512 200 l 2
 241.569 125 229.115 57 225 0 c 1
 222.362 -3 l 1
 222.362 -3 189 0 155 0 c 0
 120 0 83.3623 -3 83.3623 -3 c 1
 83 0 l 1
 102.479 54 119.569 125 135.512 200 c 2
 187.588 445 l 2
EndSplineSet
Colour: ff00ff
EndChar

StartChar: afii10035
Encoding: 1057 1057 81
Width: 671
VWidth: 999
Flags: HW
HStem: -10 60<292.337 479.108> 602 56<291.317 481.844>
VStem: 37 145<196.877 427.375>
LayerCount: 2
Back
SplineSet
711.914 645.508 m 5
 694.009 471.68 l 5
 663.601 468.75 l 5
 665.41 511.719 649.899 606.445 598.142 606.445 c 6
EndSplineSet
Fore
SplineSet
525.862 658 m 0
 647.862 658 734.297 613 734.297 613 c 1
 735.659 610 l 1
 713.381 560.7 702.468 531 688.027 480 c 1
 677.814 479 l 1
 654.244 561 589.959 602 499.959 602 c 0
 417.959 602 294.143 537 250.994 334 c 0
 221.023 193 248.628 50 391.628 50 c 0
 484.628 50 533.241 67 623.545 139 c 1
 640.318 105 l 1
 537.826 18 449.074 -10 359.874 -10 c 0
 144.874 -10 69.7334 154 103.955 315 c 0
 127.315 424.9 193.118 522.3 285.133 584 c 0
 358.006 632.8 434.862 658 525.862 658 c 0
EndSplineSet
Colour: ff00ff
EndChar

StartChar: afii10036
Encoding: 1058 1058 82
Width: 582
VWidth: 999
Flags: HW
HStem: -3 21<217 291 291 365> 577 68<17.7551 222.338 359.662 564.245>
VStem: 227 128<2.67992 575.82>
LayerCount: 2
Fore
SplineSet
321.675 436 m 2
 325.288 453 345.544 553 343.646 577 c 1
 209.646 577 137.095 565 137.095 565 c 1
 135.944 569 l 1
 141.133 584 148.147 617 152.099 645 c 1
 154.736 648 l 1
 170.312 646 193.099 645 214.099 645 c 2
 642.099 645 l 2
 663.099 645 686.312 646 702.736 648 c 1
 704.099 645 l 1
 696.147 617 689.133 584 687.944 569 c 1
 685.095 565 l 1
 685.095 565 617.646 577 483.646 577 c 1
 471.544 553 449.288 453 445.675 436 c 2
 395.512 200 l 2
 379.569 125 367.115 57 363 0 c 1
 360.362 -3 l 1
 360.362 -3 325 0 291 0 c 0
 256 0 219.362 -3 219.362 -3 c 1
 219 0 l 1
 238.479 54 255.569 125 271.512 200 c 2
 321.675 436 l 2
EndSplineSet
Colour: ff00ff
EndChar

StartChar: afii10037
Encoding: 1059 1059 83
Width: 580
VWidth: 999
Flags: HW
HStem: -22 67<133 228.079> 628 20G<54.5 65.8588 152.5 165.28 462.421 482 552.006 555>
DStem2: 278.595 138.281 342 161 0.410131 0.912027<-105.377 13.9628 113.393 328.053>
LayerCount: 2
Fore
SplineSet
376.222 161 m 2
 305.399 54.0996 239.324 -22 149.324 -22 c 0
 107.324 -22 66.2129 1 73.0146 33 c 0
 78.9658 61 98.8545 84 130.854 84 c 0
 144.854 84 165.367 77 172.816 65 c 0
 177.903 56 190.565 45 204.565 45 c 0
 247.265 45 271.139 81.0996 307.996 138.3 c 1
 264.548 339.9 206.39 567.8 183.736 648 c 1
 200.099 645 226.099 645 243.099 645 c 0
 260.099 645 281.099 645 298.736 648 c 1
 300.96 618 324.022 470.1 374.745 242.5 c 1
 466.638 386.9 564.941 546.4 613.736 648 c 1
 625.099 645 652.099 645 663.099 645 c 0
 674.099 645 686.099 645 698.736 648 c 1
 376.222 161 l 2
EndSplineSet
EndChar

StartChar: afii10039
Encoding: 1061 1061 84
Width: 613
VWidth: 999
Flags: HW
HStem: -2 28<4 61 169 190 398 420 570 617> 586 27<411 444 538 597>
DStem2: 122 99 155 73 0.593199 0.805056<-35.2356 230.04 328.87 586.289> 191 543 249 326 0.578967 -0.815351<-35.4928 216.477 291.97 559.314>
LayerCount: 2
Fore
SplineSet
585.362 -3 m 1
 568 0 525 0 507 0 c 0
 489 0 446 0 427.362 -3 c 1
 398.249 91.5 372.858 168.7 339.118 257.9 c 1
 269.08 176.8 196.454 88.7002 127.362 -3 c 1
 117 0 98 0 86 0 c 0
 75 0 34 0 22.3623 -3 c 1
 313.855 323 l 1
 175.736 648 l 1
 192.099 645 235.099 645 252.099 645 c 0
 269.099 645 312.099 645 330.736 648 c 1
 345.28 594.1 369.327 529.4 409.608 429.1 c 1
 492.221 520.9 524.861 559.2 591.736 648 c 1
 602.099 645 643.099 645 654.099 645 c 0
 665.099 645 685.099 645 696.736 648 c 1
 434.902 366.5 l 1
 585.362 -3 l 1
EndSplineSet
Colour: ff00ff
EndChar

StartChar: afii10040
Encoding: 1062 1062 85
Width: 639
VWidth: 999
Flags: HW
HStem: 0 44<183.144 451.533> 628 20G<78 132 132 185 448 501 501 555>
VStem: 89 86<60.1801 642.32> 458 86<46.9378 642.32> 566 36<-138 -59.6869>
LayerCount: 2
Back
SplineSet
436.495 36.6211 m 2
 472.139 36.6211 478.671 51.2695 485.521 83.4961 c 10
564.635 76.6602 m 18
 559.342 51.7578 570.369 27.832 595.433 27.832 c 0
 620.066 27.832 621.801 16.585 620.312 7.8125 c 2
 595.109 -140.625 l 1
 568.254 -140.625 l 1
 568.795 -70.3125 540.558 2.44141 463.41 2.44141 c 2
759 644.204 m 25
 558.76 -297.852 l 25
EndSplineSet
Fore
SplineSet
586.512 200 m 2
 563.13 90 557.64 35 590.802 32 c 0
 615.234 29.7998 618.4 20.7002 616.338 11 c 2
 572.667 -138 l 1
 570.029 -141 l 1
 538.029 -141 l 1
 536.667 -138 l 1
 541.199 -65.4004 542.7 0 463 0 c 2
 132 0 l 2
 98 0 79.3623 -3 79.3623 -3 c 1
 79 0 l 1
 98.4785 54 115.569 125 131.512 200 c 2
 183.588 445 l 2
 199.529 520 210.983 588 215.099 645 c 1
 217.736 648 l 1
 217.736 648 235.099 645 269.099 645 c 0
 304.099 645 321.736 648 321.736 648 c 1
 322.099 645 l 1
 302.834 592 285.529 520 269.588 445 c 2
 217.512 200 l 2
 213.897 183 193.643 83 195.541 59 c 0
 196.628 50 202.353 44 220.353 44 c 2
 431.353 44 l 2
 449.353 44 457.628 50 462.541 59 c 0
 474.643 83 496.897 183 500.512 200 c 2
 552.588 445 l 2
 568.529 520 581.834 592 585.099 645 c 1
 586.736 648 l 1
 586.736 648 603.099 645 638.099 645 c 0
 672.099 645 690.736 648 690.736 648 c 1
 692.099 645 l 1
 671.983 588 654.529 520 638.588 445 c 2
 586.512 200 l 2
EndSplineSet
EndChar

StartChar: afii10041
Encoding: 1063 1063 86
Width: 633
VWidth: 999
Flags: HW
HStem: -3 21<436 510 510 584> 244 64<213.903 364.049> 628 20G<84 137 137 190 436 510 510 584>
VStem: 94 86<340.66 642.32> 446 128<2.67992 642.32>
LayerCount: 2
Back
SplineSet
400.91 2.44141 m 6x78
 400.91 2.44141 203.643 3.44141 77.1787 2.44141 c 20x78
 -31.458 -0.976562 l 5
 -33.4834 0.976562 l 5
 -29.9551 17.5781 l 6
 -28.71 23.4375 -23.625 27.832 -18.9863 27.832 c 6
 7.38086 27.832 l 6xb8
 40.3027 28.8086 48.4883 35.1562 56.8955 74.707 c 14
 162.551 571.777 l 6
 170.854 610.84 166.203 617.676 132.756 617.676 c 6
 102.971 617.676 l 6
 99.5527 617.676 97.9111 619.141 98.6377 622.559 c 6
 103.308 644.531 l 5
 105.676 646.484 l 5
 213.659 644.531 l 4
 331.263 646.484 l 5
 332.835 644.692 l 5
 328.233 623.047 l 6
 327.507 619.629 325.139 617.676 321.721 617.676 c 6
 291.937 617.676 l 6
 259.709 617.676 251.628 611.816 243.117 571.777 c 6
 139.33 83.4961 l 22
 130.508 41.9922 137.179 36.6211 168.429 36.6211 c 6
 380.831 36.6211 l 6x78
 416.475 36.6211 423.007 51.2695 429.856 83.4961 c 14
 533.644 571.777 l 6
 540.391 603.516 541.795 617.061 504.338 617.676 c 6
 474.553 617.676 l 6
 471.135 617.676 469.493 619.141 470.22 622.559 c 6
 474.839 644.287 l 5
 477.746 646.484 l 5
 584.753 644.531 l 4
 700.892 646.484 l 5
 703.354 644.287 l 5
 698.839 623.047 l 6
 698.112 619.629 695.744 617.676 691.838 617.676 c 6
 662.541 617.676 l 6
 625.8 617.065 621.372 605.469 614.211 571.777 c 6
 508.971 76.6602 l 22
 502.432 45.8984 501.033 27.832 534.236 27.832 c 6
 550.838 27.832 l 6xb8
 558.162 27.832 570.277 20.5078 567.578 7.8125 c 6
 535.805 -142.822 l 5
 523.109 -142.822 517.249 -142.822 508.46 -142.822 c 5
 509.002 -72.5098 478.058 2.44141 400.91 2.44141 c 6x78
EndSplineSet
Fore
SplineSet
274.588 445 m 2
 268.636 417 l 2
 251.206 335 285.468 308 357.468 308 c 0
 385.968 308 449.297 311.9 521.032 353 c 1
 540.588 445 l 2
 556.529 520 568.983 588 573.099 645 c 1
 575.736 648 l 1
 575.736 648 611.099 645 645.099 645 c 0
 680.099 645 716.736 648 716.736 648 c 1
 717.099 645 l 1
 697.834 592 680.529 520 664.588 445 c 2
 612.512 200 l 2
 596.569 125 584.115 57 580 0 c 1
 577.362 -3 l 1
 577.362 -3 542 0 508 0 c 0
 473 0 436.362 -3 436.362 -3 c 1
 436 0 l 1
 455.479 54 472.569 125 488.512 200 c 2
 511.659 308.9 l 1
 429.259 259.5 359.063 244 301.864 244 c 0
 187.864 244 162.656 323 183.699 422 c 2
 188.588 445 l 2
 204.529 520 216.983 588 221.099 645 c 1
 223.736 648 l 1
 223.736 648 240.099 645 274.099 645 c 0
 309.099 645 326.736 648 326.736 648 c 1
 327.099 645 l 1
 307.834 592 290.529 520 274.588 445 c 2
EndSplineSet
EndChar

StartChar: afii10042
Encoding: 1064 1064 87
Width: 960
VWidth: 999
Flags: HW
HStem: 0 44<197.144 430.533 531.144 766.533> 628 20G<92 146 146 199 426 480 480 533 763 816 816 870>
VStem: 103 86<60.1801 642.32> 437 86<60.1801 642.32> 773 86<47.6754 642.32>
LayerCount: 2
Fore
SplineSet
901.512 200 m 2
 885.869 125 873.115 57 869 0 c 1
 866.362 -3 l 1
 866.362 -3 850 0 816 0 c 2
 147 0 l 2
 112 0 93.3623 -3 93.3623 -3 c 1
 93 0 l 1
 112.479 54 129.569 125 145.512 200 c 2
 197.588 445 l 2
 213.529 520 224.983 588 229.099 645 c 1
 231.736 648 l 1
 231.736 648 249.099 645 283.099 645 c 0
 318.099 645 335.736 648 335.736 648 c 1
 336.099 645 l 1
 316.834 592 299.529 520 283.588 445 c 2
 231.512 200 l 2
 227.897 183 207.643 83 209.541 59 c 0
 210.628 50 216.353 44 234.353 44 c 2
 410.353 44 l 2
 428.353 44 436.628 50 441.541 59 c 0
 453.643 83 475.897 183 479.512 200 c 2
 531.588 445 l 2
 547.529 520 558.983 588 563.099 645 c 1
 565.736 648 l 1
 565.736 648 583.099 645 617.099 645 c 0
 652.099 645 669.736 648 669.736 648 c 1
 670.099 645 l 1
 650.834 592 633.529 520 617.588 445 c 2
 565.512 200 l 2
 561.897 183 541.643 83 543.541 59 c 0
 544.628 50 550.353 44 568.353 44 c 2
 746.353 44 l 2
 764.353 44 772.628 50 777.541 59 c 0
 789.643 83 811.897 183 815.512 200 c 2
 867.588 445 l 2
 883.529 520 896.834 592 900.099 645 c 1
 901.736 648 l 1
 901.736 648 918.099 645 953.099 645 c 0
 987.099 645 1005.74 648 1005.74 648 c 1
 1007.1 645 l 1
 986.983 588 969.529 520 953.588 445 c 2
 901.512 200 l 2
EndSplineSet
EndChar

StartChar: afii10043
Encoding: 1065 1065 88
Width: 948
VWidth: 999
Flags: HW
HStem: 0 44<197.144 430.533 531.144 766.533> 628 20G<92 146 146 199 426 480 480 533 763 816 816 870>
VStem: 103 86<60.1801 642.32> 437 86<60.1801 642.32> 773 86<46.9378 642.32> 881 36<-138 -59.6869>
LayerCount: 2
Back
SplineSet
740.206 36.6211 m 6
 775.85 36.6211 782.382 51.2695 789.231 83.4961 c 14
868.346 76.6602 m 22
 863.053 51.7578 874.08 27.832 899.144 27.832 c 4
 923.777 27.832 925.513 16.585 924.023 7.8125 c 6
 898.82 -140.625 l 5
 871.964 -140.625 l 5
 872.506 -70.3125 844.269 2.44141 767.121 2.44141 c 6
EndSplineSet
Fore
SplineSet
147 0 m 2
 112 0 93.3623 -3 93.3623 -3 c 1
 93 0 l 1
 112.479 54 129.569 125 145.512 200 c 2
 197.588 445 l 2
 213.529 520 224.983 588 229.099 645 c 1
 231.736 648 l 1
 231.736 648 249.099 645 283.099 645 c 0
 318.099 645 335.736 648 335.736 648 c 1
 336.099 645 l 1
 316.834 592 299.529 520 283.588 445 c 2
 231.512 200 l 2
 227.897 183 207.643 83 209.541 59 c 0
 210.628 50 216.353 44 234.353 44 c 2
 410.353 44 l 2
 428.353 44 436.628 50 441.541 59 c 0
 453.643 83 475.897 183 479.512 200 c 2
 531.588 445 l 2
 547.529 520 558.983 588 563.099 645 c 1
 565.736 648 l 1
 565.736 648 583.099 645 617.099 645 c 0
 652.099 645 669.736 648 669.736 648 c 1
 670.099 645 l 1
 650.834 592 633.529 520 617.588 445 c 2
 565.512 200 l 2
 561.897 183 541.643 83 543.541 59 c 0
 544.628 50 550.353 44 568.353 44 c 2
 746.353 44 l 2
 764.353 44 772.628 50 777.541 59 c 0
 789.643 83 811.897 183 815.512 200 c 2
 867.588 445 l 2
 883.529 520 896.834 592 900.099 645 c 1
 901.736 648 l 1
 901.736 648 918.099 645 953.099 645 c 0
 987.099 645 1005.74 648 1005.74 648 c 1
 1007.1 645 l 1
 986.983 588 969.529 520 953.588 445 c 2
 901.512 200 l 2
 878.13 90 872.739 35 905.802 32 c 0
 930.234 29.7998 933.4 20.7002 931.338 11 c 2
 887.667 -138 l 1
 885.029 -141 l 1
 853.029 -141 l 1
 851.667 -138 l 1
 856.199 -65.4004 857.7 0 778 0 c 2
 147 0 l 2
EndSplineSet
EndChar

StartChar: afii10044
Encoding: 1066 1066 89
Width: 717
VWidth: 999
Flags: HW
HStem: -2 35<330.629 502.725> 329 44<348 522.728> 569 21G<50 254> 581 64<52.7551 257.32>
VStem: 262 86<37.7419 329 373 578.197> 587 94<103.061 266.903>
LayerCount: 2
Back
SplineSet
178.467 645.508 m 5
 125.894 471.68 l 5
 155.056 468.75 l 5
 171.514 511.719 223.875 606.445 275.633 606.445 c 6
EndSplineSet
Fore
SplineSet
417.931 329 m 1
 365.854 84 l 2
 358.841 51 357.015 33 412.015 33 c 0
 564.015 33 612.72 121 625.897 183 c 0
 638.651 243 630.931 329 502.931 329 c 2
 417.931 329 l 1
439.099 645 m 2
 477.099 645 494.736 648 494.736 648 c 1
 495.099 645 l 1
 475.834 592 460.63 520 442.588 445 c 1
 427.283 373 l 1
 485.283 373 l 2
 731.283 373 738.815 272 719.897 183 c 0
 684.4 16 523.575 -2 402.575 -2 c 0
 366.575 -2 336 0 307 0 c 0
 273 0 252.362 -3 252.362 -3 c 1
 252 0 l 1
 271.479 54 288.569 125 304.512 200 c 2
 356.588 445 l 2
 360.001 462 379.394 557 377.495 581 c 1
 243.495 581 172.944 569 172.944 569 c 1
 171.795 573 l 1
 176.983 588 183.147 617 187.099 645 c 1
 189.736 648 l 1
 205.312 646 228.099 645 249.099 645 c 2
 439.099 645 l 2
EndSplineSet
EndChar

StartChar: afii10045
Encoding: 1067 1067 90
Width: 786
VWidth: 999
Flags: HW
HStem: -2 21<588 662 662 736> -2 35<171.629 343.725> 329 44<189 363.728> 628 20<92 146 146 199> 629 20<588 662 662 736>
VStem: 103 86<37.7419 329 373 642.32> 428 94<103.061 266.903> 598 128<3.67992 643.32>
LayerCount: 2
Back
SplineSet
720.139 599.271 m 22
 722.15 608.74 723.301 615.552 723.59 619.692 c 4
 724.166 627.983 721.82 634.341 716.548 638.779 c 4
 713.392 642.031 705.458 643.662 692.728 643.662 c 6
 664.857 644.106 l 6
 661.669 644.404 660.353 645.884 660.918 648.545 c 6
 664.221 664.082 l 5
 766.733 661.865 l 4
 874.627 664.082 l 5
 871.514 649.434 l 6
 870.822 646.182 868.666 644.404 865.054 644.106 c 6
 837.439 643.662 l 6
 824.711 643.662 816.082 642.031 811.544 638.779 c 4
 803.604 633.452 798.552 627.095 796.388 619.692 c 4
 794.412 613.179 792.668 606.377 791.158 599.271 c 14
 683.503 92.7939 l 6
 681.993 85.6914 680.845 78.8857 680.052 72.375 c 4
 679.07 64.9766 681.419 58.6133 687.094 53.2871 c 4
 690.312 50.3281 698.248 48.7002 710.914 48.4043 c 6
 738.34 47.9609 l 6
 741.889 47.9609 743.32 46.333 742.628 43.0771 c 6
 739.421 27.9854 l 5
 632.471 30.2051 l 4
 529.015 27.9854 l 5
 532.316 43.5215 l 6
 532.945 46.4805 534.892 47.9609 538.144 47.9609 c 6
 566.201 48.4043 l 6
 578.994 48.7002 587.621 50.3281 592.098 53.2871 c 4
 599.257 57.7266 604.307 64.0889 607.254 72.375 c 4
 608.721 76.5176 610.47 83.3242 612.482 92.7939 c 6
 720.139 599.271 l 22
324.695 597.5 m 14
 279.784 386.207 l 21
 333.051 386.207 l 6
 411.183 386.207 466.853 377.328 500.064 359.572 c 4
 561.737 326.725 585.024 274.789 569.928 203.767 c 4
 557.474 145.173 525.328 99.748 473.492 67.4922 c 4
 432.571 42.042 387.696 29.3174 338.868 29.3174 c 6
 63.2109 29.3174 l 5
 66.5137 44.8535 l 6
 67.1309 47.7607 69.0732 49.2402 72.3398 49.293 c 6
 100.398 49.7363 l 6
 113.042 49.9365 121.675 51.5645 126.296 54.6191 c 4
 133.452 59.0586 138.506 65.4199 141.449 73.707 c 4
 142.922 77.8477 144.664 84.6533 146.677 94.125 c 14
 253.673 597.5 l 22
 255.685 606.968 256.838 613.779 257.125 617.92 c 4
 257.638 625.273 255.291 631.636 250.086 637.007 c 4
 247.13 640.054 239.19 641.68 226.265 641.89 c 6
 198.395 642.334 l 6
 195.149 642.378 193.837 643.862 194.455 646.771 c 6
 197.757 662.305 l 5
 300.268 660.088 l 4
 408.162 662.305 l 5
 405.05 647.661 l 6
 404.307 644.165 402.151 642.388 398.59 642.334 c 6
 370.974 641.89 l 6
 357.957 641.68 349.324 640.054 345.078 637.007 c 4
 337.141 631.68 332.087 625.317 329.924 617.92 c 4
 327.947 611.406 326.205 604.6 324.695 597.5 c 14
273.084 354.689 m 13
 210.812 61.7207 l 21
 249.719 54.0273 288.7 52.252 327.756 56.3945 c 4
 375.348 61.7207 414.199 80.2168 444.308 111.881 c 4
 467.096 135.555 482.578 166.628 490.755 205.099 c 4
 498.24 240.313 495.385 272.126 482.188 300.535 c 4
 465.301 336.639 424.747 354.689 360.531 354.689 c 6
 273.084 354.689 l 13
EndSplineSet
Fore
SplineSet
692.8 446 m 2
 708.742 521 721.195 589 725.312 646 c 1
 727.949 649 l 1
 727.949 649 763.312 646 797.312 646 c 0
 832.312 646 868.949 649 868.949 649 c 1
 869.312 646 l 1
 850.046 593 832.742 521 816.8 446 c 2
 764.724 201 l 2
 748.782 126 736.328 58 732.213 1 c 1
 729.575 -2 l 1
 729.575 -2 694.213 1 660.213 1 c 0
 625.213 1 588.575 -2 588.575 -2 c 1
 588.213 1 l 1
 607.69 55 624.782 126 640.724 201 c 2
 692.8 446 l 2
148 0 m 0
 114 0 93.3623 -3 93.3623 -3 c 1
 93 0 l 1
 112.479 54 129.569 125 145.512 200 c 2
 197.588 445 l 2
 213.529 520 224.983 588 229.099 645 c 1
 231.736 648 l 1
 231.736 648 249.099 645 283.099 645 c 0
 318.099 645 335.736 648 335.736 648 c 1
 336.099 645 l 1
 316.834 592 299.529 520 283.588 445 c 2
 268.283 373 l 1
 326.283 373 l 2
 572.283 373 579.815 272 560.897 183 c 0
 525.4 16 364.575 -2 243.575 -2 c 0
 207.575 -2 177 0 148 0 c 0
258.931 329 m 1
 206.854 84 l 2
 199.841 51 198.015 33 253.015 33 c 0
 405.015 33 453.72 121 466.897 183 c 0
 479.651 243 471.931 329 343.931 329 c 2
 258.931 329 l 1
EndSplineSet
Colour: ff00ff
EndChar

StartChar: afii10046
Encoding: 1068 1068 91
Width: 558
VWidth: 999
Flags: HW
HStem: -2 35<171.629 343.725> 329 44<189 363.728> 628 20G<92 146 146 199>
VStem: 103 86<37.7419 329 373 642.32> 428 94<103.061 266.903>
LayerCount: 2
Fore
SplineSet
148 0 m 0
 114 0 93.3623 -3 93.3623 -3 c 1
 93 0 l 1
 112.479 54 129.569 125 145.512 200 c 2
 197.588 445 l 2
 213.529 520 224.983 588 229.099 645 c 1
 231.736 648 l 1
 231.736 648 249.099 645 283.099 645 c 0
 318.099 645 335.736 648 335.736 648 c 1
 336.099 645 l 1
 316.834 592 299.529 520 283.588 445 c 2
 268.283 373 l 1
 326.283 373 l 2
 572.283 373 579.815 272 560.897 183 c 0
 525.4 16 364.575 -2 243.575 -2 c 0
 207.575 -2 177 0 148 0 c 0
258.931 329 m 1
 206.854 84 l 2
 199.841 51 198.015 33 253.015 33 c 0
 405.015 33 453.72 121 466.897 183 c 0
 479.651 243 471.931 329 343.931 329 c 2
 258.931 329 l 1
EndSplineSet
EndChar

StartChar: afii10047
Encoding: 1069 1069 92
Width: 604
VWidth: 999
Flags: HMW
HStem: -12 34<194 359> 273 56<309 422> 311 49<155 284> 621 37<189 346>
VStem: 472 89<186 307 344 460>
LayerCount: 2
Back
SplineSet
418.61 657.715 m 0x9c
 579.255 657.715 672.082 545.41 625.066 324.219 c 0
 586.562 143.066 431.487 -12.207 261.565 -12.207 c 0
 175.565 -12.207 124.165 19.043 98.1045 43.457 c 0
 75.7803 64.3711 62.835 91.1641 68.5732 118.164 c 0
 74.0742 144.043 95.0352 164.551 117.984 164.551 c 0
 146.305 164.551 156.876 152.379 160.682 119.629 c 0
 168.966 48.3398 212.087 21.4844 283.863 21.4844 c 0
 411.305 21.4844 505.321 190.43 530.938 301.758 c 1x9c
 326.184 296.391 l 2xac
 310.415 296.02 287.542 292.479 268.034 292.479 c 0
 244.46 292.479 225.798 297.648 230.512 319.824 c 0
 235.798 344.693 254.848 350.412 277.146 350.412 c 0xcc
 295.126 350.412 315.218 346.693 331.908 346.297 c 2xac
 539.24 340.82 l 1
 580.709 563.477 481.627 621.094 402.525 621.094 c 0
 308.287 621.094 212.342 539.551 168.195 453.613 c 1
 138.96 458.496 l 1
 159.624 509.766 179.074 558.179 193.729 612.793 c 1
 252.073 616.211 313.63 657.715 418.61 657.715 c 0x9c
EndSplineSet
Fore
SplineSet
537.255 307 m 1
 475.028 273 431.028 273 418.028 273 c 0
 356.028 273 321.105 311 262.105 311 c 0
 224.105 311 204.704 295 196.704 295 c 0
 192.704 295 188.342 298 190.255 307 c 0
 195.568 332 264.521 360 323.521 360 c 0
 389.521 360 411.931 329 469.931 329 c 0
 498.931 329 523.206 335 544.119 344 c 1
 577.906 550 483.998 621 402.998 621 c 0
 307.998 621 212.78 540 168.501 454 c 1
 139.351 458 l 1
 161.616 511 179.606 558 193.297 613 c 1
 251.935 616 313.862 658 418.862 658 c 0
 583.862 658 677.906 550 631.781 333 c 0
 585.019 113 442.449 -12 272.449 -12 c 0
 186.449 -12 137.039 19 111.14 43 c 0
 88.6035 64 74.1934 95 79.9316 122 c 0
 85.458 148 101.072 165 119.072 165 c 0
 148.072 165 157.309 152 160.507 120 c 0
 169.203 48 218.464 21 290.464 21 c 0
 417.464 21 506.922 169 537.255 307 c 1
EndSplineSet
EndChar

StartChar: afii10048
Encoding: 1070 1070 93
Width: 905
VWidth: 999
Flags: HW
HStem: -12 39<517.224 661.561> -3 21<96 170 170 244> 302 44<187 285> 619 39<495.321 644.165> 628 20<96 170 170 244>
VStem: 106 128<2.67992 642.32> 285 96<193.326 302 346 446.919> 770 96<190.805 458.298>
LayerCount: 2
Fore
SplineSet
693.572 619 m 0
 609.572 619 495.143 537 450.506 327 c 0
 409.695 135 489.739 27 597.739 27 c 0
 700.739 27 797.845 131 835.893 310 c 0
 880.104 518 818.572 619 693.572 619 c 0
200.588 445 m 2
 216.529 520 228.983 588 233.099 645 c 1
 235.736 648 l 1
 235.736 648 271.099 645 305.099 645 c 0
 340.099 645 376.736 648 376.736 648 c 1
 377.099 645 l 1
 357.834 592 340.529 520 324.588 445 c 2
 303.545 346 l 1
 359.545 346 l 1
 410.592 525 556.862 658 712.862 658 c 0
 880.862 658 978.018 527 935.931 329 c 0
 893.42 129 749.449 -12 571.449 -12 c 0
 413.449 -12 309.956 108 349.192 302 c 1
 294.192 302 l 1
 272.512 200 l 2
 256.569 125 244.115 57 240 0 c 1
 237.362 -3 l 1
 237.362 -3 202 0 168 0 c 0
 133 0 96.3623 -3 96.3623 -3 c 1
 96 0 l 1
 115.479 54 132.569 125 148.512 200 c 2
 200.588 445 l 2
EndSplineSet
EndChar

StartChar: afii10049
Encoding: 1071 1071 94
Width: 561
VWidth: 999
Flags: HW
HStem: -3 21G<0 12 112.5 127.5 370 423 423 476> 286 44<273.038 380> 613 39<216.656 397.701>
VStem: 71 97<391.218 564.52> 380 86<2.67992 286 330 603.161>
LayerCount: 2
Back
SplineSet
456.299 322.754 m 21
 349.854 322.754 326.487 281.738 268.663 179.688 c 4
 206.841 70.3125 163.312 1.07129 91.3086 0 c 6
 25.6709 -0.976562 l 5xa2
 24.6221 0.976562 l 5x62
 28.5654 19.5312 l 6
 29.707 24.9023 33.748 27.832 37.6543 27.832 c 6xb2
 46.9316 27.832 l 6
 79.6465 27.832 146.795 102.539 226.888 235.84 c 4
 263.683 296.387 292.097 342.773 354.108 342.773 c 5
 337.506 350.424 158.893 351.723 191.197 504.395 c 5
 203.548 562.5 255.091 646.484 441.125 646.484 c 4
 476.281 646.484 534.46 644.531 567.176 644.531 c 4
 598.913 644.531 696.009 646.484 696.009 646.484 c 5
 691.338 624.512 l 6
 690.508 620.605 688.054 617.676 682.562 617.676 c 6
 652.775 617.676 l 6
 611.271 617.676 597.483 607.939 590.212 573.73 c 6
 483.415 71.2891 l 6
 476.876 40.5273 489.313 27.832 528.865 27.832 c 6
 555.231 27.832 l 6
 559.627 27.832 562.91 24.9023 561.769 19.5312 c 6
 557.824 0.976562 l 5
 555.456 -0.976562 l 5
 555.456 -0.976562 468.958 0.976562 429.896 0.976562 c 4
 394.251 0.976562 300.573 -0.976562 300.573 -0.976562 c 5
 299.035 0.976562 l 5
 302.979 19.5312 l 6
 304.121 24.9023 307.674 27.832 312.557 27.832 c 6
 338.924 27.832 l 6
 379.938 27.832 396.932 43.457 402.848 71.2891 c 6
 456.299 322.754 l 21
509.956 575.195 m 6
 465.432 365.723 l 5
 387.796 365.723 l 6
 304.788 365.723 249.975 417.969 267.93 502.441 c 4
 287.546 594.727 370.665 611.328 426.816 611.328 c 4x36
 513.243 611.328 516.91 607.91 509.956 575.195 c 6
EndSplineSet
Fore
SplineSet
427.297 613 m 0
 366.297 613 294.684 596 269.602 478 c 0
 243.032 353 305.144 330 402.144 330 c 2
 450.144 330 l 1
 500.944 569 l 2
 507.108 598 498.297 613 427.297 613 c 0
282.967 300 m 1
 263.851 305.1 250.269 311.3 238.593 318 c 0
 190.332 345 155.385 397 172.814 479 c 0
 183.442 529 209.157 570 252.384 604 c 0
 309.949 649 373.587 652 436.587 652 c 0
 461.587 652 530.099 645 560.099 645 c 0
 594.099 645 611.736 648 611.736 648 c 1
 613.099 645 l 1
 592.983 588 576.529 520 560.588 445 c 2
 508.512 200 l 2
 492.569 125 479.479 54 476 0 c 1
 474.362 -3 l 1
 474.362 -3 458 0 423 0 c 0
 389 0 371.362 -3 371.362 -3 c 1
 370 0 l 1
 390.115 57 406.569 125 422.512 200 c 2
 440.791 286 l 1
 415.892 286 394.119 286.6 375.031 287.6 c 1
 339.538 254.7 302.179 214.9 266.41 176 c 0
 200.185 103.9 139.589 31 121.362 -3 c 1
 103 0 73 0 54 0 c 0
 34 0 22 0 1.3623 -3 c 1
 0 0 l 1
 62.1523 56.7002 201.291 215.9 282.967 300 c 1
EndSplineSet
EndChar

StartChar: afii10089
Encoding: 1095 1095 95
Width: 510
VWidth: 999
Flags: HW
HStem: -3 21<323 373 373 423> 137 44<162.252 301.419> 412 20G<57 107 107 157 323 373 373 423>
VStem: 68 80<195.691 426.366> 333 80<2.66468 426.335>
LayerCount: 2
Back
SplineSet
755.603 430.664 m 5
 757.142 428.711 l 5
 753.197 410.156 l 6
 752.056 404.785 748.503 401.855 743.62 401.855 c 6
 717.253 401.855 l 6
 676.237 401.855 159.636 401.855 120.085 401.855 c 6
 93.7178 401.855 l 6
 89.3232 401.855 86.04 404.785 87.1816 410.156 c 6
 91.125 428.711 l 5
 93.4932 430.664 l 5
 755.603 430.664 l 5
-30.9443 428.711 m 5
 876.281 428.711 l 5
-56.9209 0.976562 m 5
 990.441 0.976562 l 5
747.615 27.832 m 6
 773.981 27.832 l 6
 778.377 27.832 781.66 24.9023 780.519 19.5312 c 6
 776.574 0.976562 l 5
 774.206 -0.976562 l 5
 9.06934 -0.976562 l 5
 7.53223 0.976562 l 5
 11.4756 19.5312 l 6
 12.6172 24.9023 16.1699 27.832 21.0527 27.832 c 6
 47.4199 27.832 l 6
 88.4355 27.832 708.063 27.832 747.615 27.832 c 6
EndSplineSet
Fore
SplineSet
129.854 291 m 0
 145.902 366.5 144.921 376 148.187 429 c 1
 149.824 432 l 1
 149.824 432 163.187 429 198.187 429 c 0
 232.187 429 246.824 432 246.824 432 c 1
 248.187 429 l 1
 228.071 372 226.221 368 210.279 293 c 0
 193.699 215 193.473 181 255.473 181 c 0
 303.473 181 342.417 192.5 380.4 223 c 1
 386.139 250 l 2
 401.23 321 411.709 375 414.187 429 c 1
 415.824 432 l 1
 415.824 432 429.187 429 464.187 429 c 0
 498.187 429 512.824 432 512.824 432 c 1
 514.187 429 l 1
 493.071 372 483.081 325 466.139 250 c 1
 451.048 179 l 2
 435.105 104 426.115 57 423 0 c 1
 420.362 -3 l 1
 420.362 -3 407 0 373 0 c 0
 338 0 323.362 -3 323.362 -3 c 1
 323 0 l 1
 343.457 53.9004 355.276 104.8 370.941 178.5 c 1
 326.89 150.5 292.12 137 233.12 137 c 0
 135.12 137 107.323 185 129.854 291 c 0
EndSplineSet
EndChar

StartChar: afii10090
Encoding: 1096 1096 96
Width: 807
VWidth: 999
Flags: HW
HStem: 0 41<185.326 354.674 451.326 622.533> 412 20G<87 137 137 187 353 403 403 453 619 670 670 720>
VStem: 97 80<55.1837 426.335> 363 80<55.1837 426.335> 629 80<43.5547 426.335>
CounterMasks: 1 38
LayerCount: 2
Fore
SplineSet
751.512 200 m 2
 735.676 125.5 722.479 54 719 0 c 1
 717.362 -3 l 1
 717.362 -3 700 0 666 0 c 2
 140 0 l 2
 106 0 87.3623 -3 87.3623 -3 c 1
 87 0 l 1
 106.479 54 123.569 125 139.512 200 c 2
 150.139 250 l 2
 166.081 325 175.071 372 178.187 429 c 1
 180.824 432 l 1
 180.824 432 194.187 429 228.187 429 c 0
 263.187 429 277.824 432 277.824 432 c 1
 278.187 429 l 1
 257.709 375 245.868 324 230.139 250 c 2
 219.512 200 l 2
 215.897 183 194.579 78 196.479 54 c 1
 201.565 45 204.715 41 219.715 41 c 2
 337.715 41 l 2
 352.715 41 357.565 45 366.479 54 c 1
 378.579 78 401.897 183 405.512 200 c 2
 416.139 250 l 2
 432.081 325 441.071 372 444.187 429 c 1
 446.824 432 l 1
 446.824 432 460.187 429 494.187 429 c 0
 529.187 429 543.824 432 543.824 432 c 1
 544.187 429 l 1
 523.709 375 511.868 324 496.139 250 c 2
 485.512 200 l 2
 481.897 183 460.579 78 462.479 54 c 1
 467.565 45 470.715 41 485.715 41 c 2
 617.715 41 l 2
 632.715 41 623.565 45 632.479 54 c 1
 644.579 78 667.897 183 671.512 200 c 2
 681.927 249 l 2
 698.081 325 706.571 372 710.187 429 c 1
 712.824 432 l 1
 712.824 432 726.887 429 761.187 429 c 0
 796.187 429 810.824 432 810.824 432 c 1
 811.187 429 l 1
 791.315 375.5 777.89 324.1 761.927 249 c 2
 751.512 200 l 2
EndSplineSet
EndChar

StartChar: afii10091
Encoding: 1097 1097 97
Width: 813
VWidth: 999
Flags: HW
HStem: 0 41<185.326 354.674 451.326 622.533> 412 20G<87 137 137 187 353 403 403 453 619 670 670 720>
VStem: 97 80<55.1837 426.335> 363 80<55.1837 426.335> 629 80<41.465 426.335> 731 36<-125 -51.0881>
LayerCount: 2
Back
SplineSet
502.84 31.7383 m 6
 470.125 31.7383 469.613 45.4102 475.944 75.1953 c 14
400.719 72.7539 m 22
 395.84 49.8047 376.521 27.832 353.084 27.832 c 4
 330.135 27.832 323.944 17.0898 322.284 9.27734 c 6
 287.157 -128.418 l 5
 312.059 -128.418 l 5
 339.047 -63.4766 393.896 3.90625 465.186 3.90625 c 6
609.139 35.6445 m 6
 641.854 35.6445 648.178 49.3164 654.509 79.1016 c 14
727.866 72.7539 m 22
 722.988 49.8047 732.967 27.832 756.404 27.832 c 4
 779.354 27.832 780.977 17.0898 779.316 9.27734 c 6
 755.907 -128.418 l 5
 731.005 -128.418 l 5
 731.625 -63.4766 705.42 3.90625 634.131 3.90625 c 6
EndSplineSet
Fore
SplineSet
140 0 m 2
 106 0 87.3623 -3 87.3623 -3 c 1
 87 0 l 1
 106.479 54 123.569 125 139.512 200 c 2
 150.139 250 l 2
 166.081 325 175.071 372 178.187 429 c 1
 180.824 432 l 1
 180.824 432 194.187 429 228.187 429 c 0
 263.187 429 277.824 432 277.824 432 c 1
 278.187 429 l 1
 257.709 375 245.868 324 230.139 250 c 2
 219.512 200 l 2
 215.897 183 194.579 78 196.479 54 c 1
 201.565 45 204.715 41 219.715 41 c 2
 337.715 41 l 2
 352.715 41 357.565 45 366.479 54 c 1
 378.579 78 401.897 183 405.512 200 c 2
 416.139 250 l 2
 432.081 325 441.071 372 444.187 429 c 1
 446.824 432 l 1
 446.824 432 460.187 429 494.187 429 c 0
 529.187 429 543.824 432 543.824 432 c 1
 544.187 429 l 1
 523.709 375 511.868 324 496.139 250 c 2
 485.512 200 l 2
 481.897 183 460.579 78 462.479 54 c 1
 467.565 45 470.715 41 485.715 41 c 2
 617.715 41 l 2
 632.715 41 623.565 45 632.479 54 c 1
 644.579 78 667.897 183 671.512 200 c 2
 681.927 249 l 2
 698.081 325 706.571 372 710.187 429 c 1
 712.824 432 l 1
 712.824 432 726.887 429 761.187 429 c 0
 796.187 429 810.824 432 810.824 432 c 1
 811.187 429 l 1
 791.315 375.5 777.89 324.1 761.927 249 c 2
 751.512 200 l 2
 728.13 90 722.739 35 755.802 32 c 0
 780.234 29.7998 783.4 20.7002 781.338 11 c 2
 740.431 -125 l 1
 737.793 -128 l 1
 705.793 -128 l 1
 704.431 -125 l 1
 708.962 -52.4004 707.7 0 628 0 c 2
 140 0 l 2
EndSplineSet
EndChar

StartChar: afii10092
Encoding: 1098 1098 98
Width: 539
VWidth: 999
Flags: HW
HStem: -2 36<257.183 402.245> 219 37<273 402.262> 374 55<34.7075 190>
VStem: 193 80<40.3429 219 256 372.311> 428 80<60.92 197.087>
LayerCount: 2
Back
SplineSet
129.419 429.688 m 9
 85.4219 277.832 l 25
 111.759 275.391 l 17
 136.109 332.52 162.724 391.113 220.341 391.113 c 10
EndSplineSet
Fore
SplineSet
454.782 126 m 0
 466.048 179 457.55 219 386.55 219 c 2
 319.55 219 l 1
 289.792 79 l 2
 282.353 44 297.227 34 343.227 34 c 0
 393.227 34 437.353 44 454.782 126 c 0
246.139 250 m 2
 261.23 321 269.496 374 269.496 374 c 1
 144.496 374 111.158 363 111.158 363 c 1
 109.796 366 l 1
 114.771 380 119.66 403 123.187 429 c 1
 125.612 431 l 1
 140.399 430 161.187 429 180.187 429 c 2
 324.187 429 l 2
 358.187 429 372.824 432 372.824 432 c 1
 374.187 429 l 1
 353.071 372 343.994 334 328.052 259 c 2
 327.414 256 l 1
 384.414 256 l 2
 480.414 256 556.888 230 536.908 136 c 0
 519.053 52 445.575 -2 334.575 -2 c 0
 294.775 -2 272.8 0 233 0 c 0
 198 0 183.362 -3 183.362 -3 c 1
 183 0 l 1
 203.479 54 215.318 105 231.048 179 c 2
 246.139 250 l 2
EndSplineSet
EndChar

StartChar: afii10093
Encoding: 1099 1099 99
Width: 681
VWidth: 999
Flags: HW
HStem: -3 21<496 546 546 596> -2 36<165.183 310.245> 219 37<181 310.262> 412 20<91 141 141 191 496 546 546 596>
VStem: 101 80<40.3429 219 256 426.342> 336 80<60.92 197.087> 506 80<2.66468 426.335>
LayerCount: 2
Fore
SplineSet
559.139 250 m 2
 574.23 321 584.709 375 587.187 429 c 1
 588.824 432 l 1
 588.824 432 602.187 429 637.187 429 c 0
 671.187 429 685.824 432 685.824 432 c 1
 687.187 429 l 1
 666.071 372 656.081 325 639.139 250 c 1
 624.048 179 l 2
 608.105 104 599.115 57 596 0 c 1
 593.362 -3 l 1
 593.362 -3 580 0 546 0 c 0
 511 0 496.362 -3 496.362 -3 c 1
 496 0 l 1
 516.479 54 528.318 105 544.048 179 c 2
 559.139 250 l 2
362.782 126 m 0
 374.048 179 365.55 219 294.55 219 c 2
 227.55 219 l 1
 197.792 79 l 2
 190.353 44 205.227 34 251.227 34 c 0
 301.227 34 345.353 44 362.782 126 c 0
236.052 259 m 2
 235.414 256 l 1
 292.414 256 l 2
 388.414 256 464.888 230 444.907 136 c 0
 427.053 52 353.575 -2 242.575 -2 c 0
 202.774 -2 180.8 0 141 0 c 0
 106 0 91.3623 -3 91.3623 -3 c 1
 91 0 l 1
 111.479 54 123.318 105 139.048 179 c 2
 154.139 250 l 2
 169.23 321 179.709 375 182.187 429 c 1
 183.824 432 l 1
 183.824 432 197.187 429 232.187 429 c 0
 266.187 429 280.824 432 280.824 432 c 1
 282.187 429 l 1
 261.071 372 251.994 334 236.052 259 c 2
EndSplineSet
Colour: ff00ff
EndChar

StartChar: afii10094
Encoding: 1100 1100 100
Width: 447
VWidth: 999
Flags: HW
HStem: -2 36<165.183 310.245> 219 37<181 310.262> 412 20G<91 141 141 191>
VStem: 101 80<40.3429 219 256 426.342> 336 80<60.92 197.087>
LayerCount: 2
Back
SplineSet
256.637 357.422 m 6
 262.656 385.742 276.231 401.367 308.946 401.367 c 6
 327.989 401.367 l 6
 332.383 401.367 336.913 404.297 338.055 409.668 c 6
 341.999 428.223 l 5
 340.46 430.176 l 5
 340.46 430.176 271.686 428.223 232.624 428.223 c 4
 196.979 428.223 129.522 430.176 129.522 430.176 c 5
 127.154 428.223 l 5
 123.21 409.668 l 6
 122.068 404.297 124.376 401.367 129.259 401.367 c 6
 148.302 401.367 l 6
 181.993 401.367 187.949 385.742 181.93 357.422 c 6
 128.998 108.398 l 2
 117.685 55.1758 107.132 46.875 93.46 46.875 c 0
 80.2764 46.875 68.8691 48.3398 52.5049 51.7578 c 1
 41.8105 24.4141 l 1
 103.085 13.8271 113.981 9.0332 139.678 -4.45605 c 0
 149.085 -9.39453 155.618 -12.6953 162.828 -12.6953 c 2
 177.966 -12.6953 l 1
 256.637 357.422 l 6
EndSplineSet
Fore
SplineSet
362.782 126 m 0
 374.048 179 365.55 219 294.55 219 c 2
 227.55 219 l 1
 197.792 79 l 2
 190.353 44 205.227 34 251.227 34 c 0
 301.227 34 345.353 44 362.782 126 c 0
236.052 259 m 2
 235.414 256 l 1
 292.414 256 l 2
 388.414 256 464.888 230 444.907 136 c 0
 427.053 52 353.575 -2 242.575 -2 c 0
 202.774 -2 180.8 0 141 0 c 0
 106 0 91.3623 -3 91.3623 -3 c 1
 91 0 l 1
 111.479 54 123.318 105 139.048 179 c 2
 154.139 250 l 2
 169.23 321 179.709 375 182.187 429 c 1
 183.824 432 l 1
 183.824 432 197.187 429 232.187 429 c 0
 266.187 429 280.824 432 280.824 432 c 1
 282.187 429 l 1
 261.071 372 251.994 334 236.052 259 c 2
EndSplineSet
EndChar

StartChar: afii10095
Encoding: 1101 1101 101
Width: 434
VWidth: 999
Flags: HMW
HStem: -10 31<133.489 237.744> 180 49<160.832 302.074> 207 41<92.6331 188.46> 408 31<122.738 236.146>
VStem: 314 77<116.594 208 230.421 318.818>
LayerCount: 2
Back
SplineSet
219.26 390.625 m 6
 188.987 390.625 156.992 377.93 120.689 294.434 c 5
 95.2559 298.828 l 5
 159.376 451.172 l 5
 181.88 446.777 l 5
 179.498 432.129 183.323 429.688 199.243 429.688 c 6
353.124 207.447 m 1
 247.589 204.59 l 2
 235.87 204.59 218.646 201.66 203.997 201.66 c 0
 186.419 201.66 172.601 205.566 176.129 222.168 c 0
 180.177 241.211 194.191 245.117 210.792 245.117 c 0
 224.464 245.117 239.57 242.676 252.163 242.188 c 2
 358.104 239.663 l 1
 378.049 375 315.802 410.645 269.414 410.645 c 0
 188.848 410.645 154.836 354.004 126.561 287.598 c 1
 101.615 291.992 l 1
 116.975 336.016 131.286 387.496 145.19 441.865 c 1
 157.893 441.895 l 1
 167.414 441.895 168.933 430.664 176.501 430.664 c 1
 207.264 430.664 226.252 441.895 286.311 441.895 c 0
 409.357 441.895 456.006 330.566 432.55 220.215 c 0
 399.131 62.9883 269.378 -12.207 180.511 -12.207 c 0
 89.6904 -12.207 41.8105 24.4141 54.5762 84.4727 c 0
 57.4824 98.1445 72.9062 113.281 90.9727 113.281 c 0
 101.715 113.281 126.275 109.375 124.101 76.1719 c 0
 121.895 42.4912 135.78 18.5547 186.561 18.5547 c 0
 238.22 18.5547 318.118 58.5938 353.124 207.447 c 1
EndSplineSet
Fore
SplineSet
363.163 236 m 1
 371.68 309 358.723 408 268.723 408 c 0
 188.723 408 155.607 351 128.642 290 c 1
 102.491 294 l 1
 117.844 338 128.071 372 141.762 427 c 1
 211.762 427 214.312 439 285.312 439 c 0
 408.312 439 462.206 335 438.825 225 c 0
 405.454 68 281.874 -10 175.874 -10 c 0
 93.874 -10 44.2266 34 55.2803 86 c 0
 58.2559 100 73.4443 115 91.4443 115 c 0
 102.444 115 123.594 111 121.579 78 c 0
 120.353 44 146.464 21 189.464 21 c 0
 283.464 21 341.633 130 358.212 208 c 1
 333.661 196 297.26 180 266.26 180 c 0
 222.26 180 198.999 207 163.999 207 c 0
 151.999 207 140.937 202 132.937 202 c 0
 126.937 202 127.85 211 128.699 215 c 0
 131.888 230 180.714 248 223.714 248 c 0
 268.714 248 281.676 229 319.676 229 c 0
 335.676 229 350.101 231 363.163 236 c 1
EndSplineSet
EndChar

StartChar: afii10096
Encoding: 1102 1102 102
Width: 686
VWidth: 999
Flags: HW
HStem: -10 40<417.354 526.87> -3 21<83 133 133 183> 198 39<171 268> 401 38<398.927 505.267> 412 20<83 133 133 183>
VStem: 93 80<2.66468 426.335> 268 85<110.436 198 237 323.327> 564 85<107.458 329.038>
LayerCount: 2
Fore
SplineSet
534.235 401 m 0
 460.235 401 419.53 313 401.038 226 c 0
 384.671 149 387.377 30 481.377 30 c 0
 522.377 30 575.266 53 603.323 185 c 0
 634.356 331 612.235 401 534.235 401 c 0
146.139 250 m 2
 161.23 321 171.709 375 174.187 429 c 1
 175.824 432 l 1
 175.824 432 189.187 429 224.187 429 c 0
 258.187 429 272.824 432 272.824 432 c 1
 274.187 429 l 1
 253.071 372 243.081 325 226.139 250 c 1
 223.376 237 l 1
 319.376 237 l 1
 354.67 356 437.312 439 552.312 439 c 0
 696.312 439 717.23 321 695.125 217 c 0
 673.869 117 594.874 -10 455.874 -10 c 0
 327.874 -10 290.618 97 310.086 198 c 1
 215.086 198 l 1
 211.048 179 l 2
 195.105 104 186.115 57 183 0 c 1
 180.362 -3 l 1
 180.362 -3 167 0 133 0 c 0
 98 0 83.3623 -3 83.3623 -3 c 1
 83 0 l 1
 103.479 54 115.318 105 131.048 179 c 2
 146.139 250 l 2
EndSplineSet
EndChar

StartChar: afii10097
Encoding: 1103 1103 103
Width: 429
VWidth: 999
Flags: HW
HStem: -3 30<10 25> 195 35<206.934 268> 204 26<157.163 165> 402 30<151.259 285.062>
VStem: 38 85<253.842 371.816> 268 80<2.65817 195 230 398.777>
LayerCount: 2
Back
SplineSet
339.388 243.652 m 1xe8
 332.33 210.449 l 1
 248.834 210.449 222.672 172.363 188.037 112.793 c 4
 164.286 72.2656 122.767 0.976562 77.6367 0 c 6
 12.4873 -0.976562 l 5
 10.4619 0.976562 l 5
 14.4053 19.5312 l 6
 15.9619 26.8555 22.0293 27.832 26.4238 27.832 c 6
 33.748 27.832 l 6
 66.9512 27.832 122.492 119.141 144.644 156.738 c 4
 173.09 205.566 212.708 226.562 261.048 226.562 c 1
 223.158 234.375 211.752 274.902 207.807 318.359 c 0
 204.476 348.633 195.474 370.605 185.709 370.605 c 0
 177.896 370.605 172.006 368.164 166.677 363.77 c 0
 160.061 357.91 147.127 354.492 138.338 354.492 c 0
 121.248 354.492 107.614 373.047 111.869 393.066 c 0
 117.059 417.48 131.079 437.5 168.188 437.5 c 0
 211.157 437.5 228.55 383.789 234.803 337.402 c 0
 242.015 281.738 260.286 243.652 321.321 243.652 c 2
 339.388 243.652 l 1xe8
EndSplineSet
Fore
SplineSet
316.888 230 m 1
 345.796 366 l 2
 352.598 398 338.447 402 299.447 402 c 0
 225.447 402 201.221 368 191.23 321 c 0
 180.603 271 194.888 230 251.888 230 c 2
 316.888 230 l 1
401.352 251 m 2
 385.835 178 l 2
 370.956 108 360.479 54 358 0 c 1
 356.362 -3 l 1
 356.362 -3 343 0 308 0 c 0
 274 0 259.362 -3 259.362 -3 c 1
 258 0 l 1
 279.115 57 288.193 95 303.922 169 c 2
 309.448 195 l 1
 284.448 195 l 2
 244.448 195 209.82 145 176.854 84 c 0
 154.14 43 118.213 1 83 0 c 2
 9.3623 -3 l 1
 7 0 l 1
 11.0391 19 l 2
 12.5264 26 18.7393 27 22.7393 27 c 2
 30.9512 28 l 2
 58.5889 31 106.83 98 128.907 136 c 0
 153.622 177 179.086 198 208.361 204 c 1
 153.361 204 88.8008 239 103.893 310 c 0
 110.057 339 147.824 432 308.824 432 c 0
 345.824 432 363.187 429 399.187 429 c 0
 434.187 429 448.824 432 448.824 432 c 1
 449.187 429 l 1
 428.709 375 416.868 324 401.352 251 c 2
EndSplineSet
EndChar

StartChar: uni04AE
Encoding: 1198 1198 104
Width: 633
VWidth: 999
Flags: HW
HStem: -3 21<242.42 247 376 381.566> 628 20<24.5 36 163.5 199.5 475.375 507 545.5 599.5>
VStem: 246 130<41.9429 329>
LayerCount: 2
Fore
SplineSet
437.006 285.6 m 1
 416.842 186.5 389.443 44.9004 383.362 -3 c 1
 368 0 326 0 311 0 c 0
 296 0 255 0 238.362 -3 c 1
 255.859 52.5 283.528 177.5 304.475 275.1 c 1
 280.212 340.2 180.983 588 153.736 648 c 1
 170.099 645 214.099 645 231.099 645 c 0
 248.099 645 292.099 645 309.736 648 c 1
 339.345 548.3 375.421 458.8 413.189 357.5 c 1
 486.909 445.1 570.542 549.7 638.736 648 c 1
 650.099 645 688.099 645 701.099 645 c 0
 713.099 645 730.099 645 743.736 648 c 1
 583.82 463.5 494.989 365.5 437.006 285.6 c 1
EndSplineSet
Colour: ff00ff
EndChar

StartChar: uni04C0
Encoding: 1216 1216 105
Width: 331
VWidth: 999
Flags: HW
HStem: -3 21<96 170 170 244> 628 20<96 170 170 244>
VStem: 106 128<2.67992 642.32>
LayerCount: 2
Fore
SplineSet
200.588 445 m 2
 216.529 520 228.983 588 233.099 645 c 1
 235.736 648 l 1
 235.736 648 271.099 645 305.099 645 c 0
 340.099 645 376.736 648 376.736 648 c 1
 377.099 645 l 1
 357.834 592 340.529 520 324.588 445 c 2
 272.512 200 l 2
 256.569 125 244.115 57 240 0 c 1
 237.362 -3 l 1
 237.362 -3 202 0 168 0 c 0
 133 0 96.3623 -3 96.3623 -3 c 1
 96 0 l 1
 115.479 54 132.569 125 148.512 200 c 2
 200.588 445 l 2
EndSplineSet
Colour: ff00ff
EndChar

StartChar: uni04D0
Encoding: 1232 1232 106
Width: 669
VWidth: 999
Flags: HW
HStem: -3 21<24 68.5 113 136.444 500.087 513.5 632 648.5> 221 53<210.237 444.333> 638 20<265 429> 698 31<285.536 376.309>
VStem: 206 70<736.681 803.162> 385 70<735.774 803.125>
LayerCount: 2
Fore
SplineSet
619.731 775 m 0
 608.679 723 541.364 698 478.364 698 c 0
 412.364 698 359.466 722 370.519 774 c 0
 375.195 796 389.108 805 416.108 805 c 0
 437.108 805 443.707 789 440.519 774 c 0
 440.094 772 438.031 767 437.818 766 c 0
 433.567 746 452.954 729 485.954 729 c 0
 515.954 729 543.93 743 548.605 765 c 0
 548.818 766 549.307 773 549.519 774 c 0
 552.707 789 565.108 805 588.108 805 c 0
 614.108 805 623.982 795 619.731 775 c 0
423.836 499.8 m 1
 280.244 275.9 l 1
 311.859 275.5 355.341 274 384.24 274 c 0
 407.94 274 439.447 274.5 467.975 275.1 c 1
 456.842 339.4 442.483 414.4 423.836 499.8 c 1
244.893 219.2 m 1
 192.916 135.1 146.746 56.2002 118.362 -3 c 1
 107 0 85 0 74 0 c 0
 63 0 30 0 17.3623 -3 c 1
 165.337 218 309.675 436 452.862 658 c 1
 522.862 658 l 1
 568.312 439 627.83 98 656.362 -3 c 1
 640 0 593 0 576 0 c 0
 559 0 522 0 504.362 -3 c 1
 502.975 18.7002 497.217 93.7002 477.198 219.7 c 1
 444.647 220.4 410.075 221 377.975 221 c 0
 342.275 221 283.084 220.1 244.893 219.2 c 1
EndSplineSet
LCarets2: 1 0 
Colour: ff00ff
EndChar

StartChar: uni04D1
Encoding: 1233 1233 107
Width: 476
VWidth: 999
Flags: HW
HStem: -10 60<134 255.262 367.5 464.115> 385 54<171.557 288.207> 489 31<171.971 246.548>
VStem: 42 119<59.5392 158.158> 88 73<526.553 605.612> 257 73<526.548 606.379> 311 118<89.0564 219 268.049 360.659>
DStem2: 218 247 231 198 0.972082 0.234641<-58.6762 83.8337>
LayerCount: 2
Fore
SplineSet
452.646 577 m 0
 440.954 522 375.94 489 311.94 489 c 0
 246.94 489 198.954 522 210.433 576 c 0
 214.259 594 233.447 609 256.447 609 c 0
 278.447 609 287.471 595 284.07 579 c 0
 283.433 576 283.008 574 281.37 571 c 0
 279.732 568 279.095 565 278.669 563 c 0
 273.993 541 289.529 520 319.529 520 c 0
 348.529 520 373.78 540 378.457 562 c 0
 379.095 565 379.732 568 379.37 571 c 0
 378.795 573 379.22 575 379.857 578 c 0
 383.471 595 403.447 609 421.447 609 c 0
 445.447 609 456.684 596 452.646 577 c 0
338.188 222 m 1
 253.724 201 l 2
 194.799 186.3 184.671 149 175.743 107 c 0
 170.005 80 180.628 50 210.628 50 c 0
 238.628 50 263.966 61 291.854 84 c 0
 300.464 91.0996 313.656 116 316.42 129 c 2
 338.188 222 l 1
414.005 80 m 0
 406.99 47 427.353 44 467.353 44 c 1
 472.29 39 473.438 31.7002 472.889 23 c 1
 438 0 405.975 -10 366.874 -10 c 0
 323.874 -10 301.401 16 300.203 48 c 1
 298.203 48 l 1
 238.638 3 197.975 -10 158.874 -10 c 0
 88.874 -10 40.1641 29 54.8301 98 c 0
 69.2842 166 150.208 226.8 251.139 250 c 2
 342.603 271 l 2
 345.815 272 349.666 276 351.153 283 c 0
 367.542 360.1 347.834 385 303.834 385 c 0
 258.834 385 216.945 362 174.042 306 c 1
 151.255 307 l 1
 147.196 382 l 1
 151.047 386 l 1
 179.511 407 252.312 439 324.312 439 c 0
 372.412 439 420.168 427.5 445.831 399.1 c 0
 468.16 374.3 472.652 337.1 459.878 277 c 0
 457.54 266 420.169 109 414.005 80 c 0
EndSplineSet
LCarets2: 1 0 
Colour: ff00ff
EndChar

StartChar: uni04D2
Encoding: 1234 1234 108
Width: 669
VWidth: 999
Flags: HW
HStem: -3 21<24 68.5 113 136.444 500.087 513.5 632 648.5> 221 53<210.237 444.333> 638 20<265 429> 712 92<210.347 287.653 370.347 447.653>
VStem: 203 92<719.347 796.653> 363 92<719.347 796.653>
LayerCount: 2
Fore
SplineSet
540.692 756 m 0
 547.494 788 577.809 813 609.809 813 c 0
 639.809 813 660.494 788 653.692 756 c 0
 647.316 726 615.79 700 585.79 700 c 0
 553.79 700 534.316 726 540.692 756 c 0
350.692 756 m 0
 357.494 788 388.809 813 418.809 813 c 0
 450.809 813 470.494 788 463.692 756 c 0
 457.316 726 426.79 700 394.79 700 c 0
 364.79 700 344.316 726 350.692 756 c 0
423.836 499.8 m 1
 280.244 275.9 l 1
 311.859 275.5 355.341 274 384.24 274 c 0
 407.94 274 439.447 274.5 467.975 275.1 c 1
 456.842 339.4 442.483 414.4 423.836 499.8 c 1
244.893 219.2 m 1
 192.916 135.1 146.746 56.2002 118.362 -3 c 1
 107 0 85 0 74 0 c 0
 63 0 30 0 17.3623 -3 c 1
 165.337 218 309.675 436 452.862 658 c 1
 522.862 658 l 1
 568.312 439 627.83 98 656.362 -3 c 1
 640 0 593 0 576 0 c 0
 559 0 522 0 504.362 -3 c 1
 502.975 18.7002 497.217 93.7002 477.198 219.7 c 1
 444.647 220.4 410.075 221 377.975 221 c 0
 342.275 221 283.084 220.1 244.893 219.2 c 1
EndSplineSet
LCarets2: 1 0 
Colour: ff00ff
EndChar

StartChar: uni04D3
Encoding: 1235 1235 109
Width: 476
VWidth: 999
Flags: HW
HStem: -10 60<134 255.262 367.5 464.115> 385 54<171.557 288.207> 527 92<94.3474 171.653 254.347 331.653>
VStem: 42 119<59.5392 158.158> 87 92<534.347 611.653> 247 92<534.347 611.653> 311 118<89.0564 219 268.049 360.659>
DStem2: 218 247 231 198 0.972082 0.234641<-58.6762 83.8337>
LayerCount: 2
Fore
SplineSet
396.37 571 m 0
 403.172 603 433.485 628 465.485 628 c 0
 495.485 628 516.172 603 509.37 571 c 0
 502.993 541 471.467 515 441.467 515 c 0
 409.467 515 389.993 541 396.37 571 c 0
206.37 571 m 0
 213.172 603 244.485 628 274.485 628 c 0
 306.485 628 326.172 603 319.37 571 c 0
 312.993 541 282.467 515 250.467 515 c 0
 220.467 515 199.993 541 206.37 571 c 0
338.188 222 m 1
 253.724 201 l 2
 194.799 186.3 184.671 149 175.743 107 c 0
 170.005 80 180.628 50 210.628 50 c 0
 238.628 50 263.966 61 291.854 84 c 0
 300.464 91.0996 313.656 116 316.42 129 c 2
 338.188 222 l 1
414.005 80 m 0
 406.99 47 427.353 44 467.353 44 c 1
 472.29 39 473.438 31.7002 472.889 23 c 1
 438 0 405.975 -10 366.874 -10 c 0
 323.874 -10 301.401 16 300.203 48 c 1
 298.203 48 l 1
 238.638 3 197.975 -10 158.874 -10 c 0
 88.874 -10 40.1641 29 54.8301 98 c 0
 69.2842 166 150.208 226.8 251.139 250 c 2
 342.603 271 l 2
 345.815 272 349.666 276 351.153 283 c 0
 367.542 360.1 347.834 385 303.834 385 c 0
 258.834 385 216.945 362 174.042 306 c 1
 151.255 307 l 1
 147.196 382 l 1
 151.047 386 l 1
 179.511 407 252.312 439 324.312 439 c 0
 372.412 439 420.168 427.5 445.831 399.1 c 0
 468.16 374.3 472.652 337.1 459.878 277 c 0
 457.54 266 420.169 109 414.005 80 c 0
EndSplineSet
LCarets2: 1 0 
Colour: ff00ff
EndChar

StartChar: uni04D4
Encoding: 1236 1236 110
Width: 802
VWidth: 999
Flags: HW
HStem: -2 29<4 35 167 201 342 374> 0 39<514.23 740.226> 266 39<271 429> 329 34<512 654.005> 605 40<517.062 711.984> 618 28<296 333>
VStem: 429 83<40.8651 266 305 329 363 597.745> 671 33<247 312.081 407 445>
DStem2: 102.87 85 148 68 0.46188 0.886943<-25.6807 228.955 272.783 581.116>
LayerCount: 2
Fore
SplineSet
281.197 278.5 m 1
 207.117 171.8 140.188 69.0996 97.3623 -3 c 1
 86 0 64 0 53 0 c 0
 42 0 30 0 17.3623 -3 c 1
 166.512 200 308.148 410 503.248 645.7 c 1
 503.362 645.3 l 1
 505.736 648 l 1
 505.736 648 522.099 645 556.099 645 c 0
 586.099 645 769.099 645 769.099 645 c 2
 790.099 645 813.312 646 829.736 648 c 1
 831.099 645 l 1
 827.123 631 824.21 622 822.51 614 c 0
 820.597 605 819.684 596 818.983 588 c 1
 816.133 584 l 1
 816.133 584 741.022 594.3 635.322 594.3 c 0
 559.822 594.3 543.609 585.3 540.35 545.5 c 1
 539.586 475.1 540.133 402.4 541.481 333 c 1
 653.624 333.2 709.365 338.1 767.907 343 c 1
 770.27 340 l 1
 766.356 331 763.23 321 761.317 312 c 0
 759.404 303 758.279 293 758.366 284 c 1
 754.729 281 l 1
 694.746 287.2 597.105 290.3 542.333 290.9 c 1
 544.49 199.9 547.848 116.9 551.36 55.7998 c 1
 651.884 59.2002 766.028 66 766.028 66 c 2
 767.179 62 l 1
 764.479 54 760.29 39 758.164 29 c 0
 756.039 19 755.976 14 754 0 c 1
 751.362 -3 l 1
 735.787 -1 713 0 692 0 c 2
 555 0 l 1
 553.5 0 l 1
 500 0 l 2
 483 0 467 0 449.362 -3 c 1
 456.95 32.7002 461.533 117.3 465.288 279.4 c 1
 443.173 279.8 420.815 280 399.516 280 c 0
 368.216 280 318.667 279.3 281.197 278.5 c 1
466.217 324.7 m 1
 469.898 533.5 l 1
 467.898 533.5 l 1
 417.995 469.5 365.013 397.6 314.229 325.7 c 1
 343.702 325.1 379.068 324 403.868 324 c 0
 421.769 324 444.032 324.3 466.217 324.7 c 1
EndSplineSet
Colour: ff00ff
EndChar

StartChar: uni04D5
Encoding: 1237 1237 111
Width: 687
VWidth: 999
Flags: HW
HStem: -10 50<135.407 255.127 438.656 562.972> 218 40<209.155 296 375 554.771> 394 45<146.355 264.956 426.84 534.254>
VStem: 39 82<54.0916 159.063> 296 78<112.964 215> 562 84<266.765 365.2>
LayerCount: 2
Fore
SplineSet
341.699 215 m 1
 206.149 203 154.371 157 143.531 106 c 0
 133.966 61 153.502 40 200.502 40 c 0
 236.502 40 283.966 61 306.256 100 c 0
 316.46 117.9 331.072 165 341.699 215 c 1
429.84 258 m 1
 571.54 266 614.076 245 627.042 306 c 0
 633.844 338 620.747 394 572.747 394 c 0
 509.747 394 455.907 343 429.84 258 c 1
285.747 394 m 0
 241.247 394 189.395 350 153.83 305 c 1
 141.042 306 l 1
 139.283 373 l 1
 143.134 377 l 1
 171.991 397.5 231.812 439 304.312 439 c 0
 328.312 439 403.675 436 426.434 369 c 1
 468.998 414 526.312 439 583.312 439 c 0
 697.312 439 718.907 343 711.68 309 c 0
 705.112 278.1 693.989 254 670.376 237 c 1
 630.488 217.3 557.41 225.4 420.337 218 c 1
 397.807 112 432.353 44 507.353 44 c 0
 561.353 44 607.367 77 644.807 112 c 1
 658.854 84 l 1
 618.377 30 547.874 -10 481.874 -10 c 0
 390.874 -10 367.227 34 352.541 59 c 1
 297.188 15 242.874 -10 187.874 -10 c 0
 82.874 -10 46.0146 33 60.4678 101 c 0
 78.1104 184 177.651 243 350.202 255 c 1
 368.897 348.6 358.547 394 285.747 394 c 0
EndSplineSet
Colour: ff00ff
EndChar

StartChar: uni04D6
Encoding: 1238 1238 112
Width: 564
VWidth: 999
Flags: HW
HStem: 0 63<228.662 460.105> 316 51<224 440.426> 575 21<232 506> 587 58<228.662 453.27> 698 31<228.536 319.309>
VStem: 96 128<64.202 316 367 585.479> 149 70<736.681 803.162> 328 70<735.774 803.125>
LayerCount: 2
Fore
SplineSet
562.731 775 m 0
 551.679 723 484.364 698 421.364 698 c 0
 355.364 698 302.466 722 313.519 774 c 0
 318.195 796 332.108 805 359.108 805 c 0
 380.108 805 386.707 789 383.519 774 c 0
 383.094 772 381.031 767 380.818 766 c 0
 376.567 746 395.954 729 428.954 729 c 0
 458.954 729 486.93 743 491.605 765 c 0
 491.818 766 492.307 773 492.519 774 c 0
 495.707 789 508.108 805 531.108 805 c 0
 557.108 805 566.982 795 562.731 775 c 0
262.512 200 m 2
 258.897 183 239.492 87 241.391 63 c 1
 375.391 63 529.941 75 529.941 75 c 1
 531.092 71 l 1
 528.391 63 523.777 46 521.652 36 c 0
 519.526 26 517.976 14 516 0 c 1
 513.362 -3 l 1
 497.787 -1 475 0 454 0 c 2
 160 0 l 2
 125 0 86.3623 -3 86.3623 -3 c 1
 86 0 l 1
 105.479 54 122.569 125 138.512 200 c 2
 190.588 445 l 2
 206.529 520 218.983 588 223.099 645 c 1
 225.736 648 l 1
 225.736 648 263.099 645 297.099 645 c 0
 327.099 645 581.099 645 581.099 645 c 2
 602.099 645 625.312 646 641.736 648 c 1
 643.099 645 l 1
 639.123 631 635.36 618 633.659 610 c 0
 631.746 601 629.771 587 629.07 579 c 1
 626.22 575 l 1
 626.22 575 486.771 587 352.771 587 c 1
 340.669 563 318.201 462 314.588 445 c 2
 298.008 367 l 1
 416.008 367 467.071 372 527.134 377 c 1
 529.496 374 l 1
 525.583 365 521.607 351 519.694 342 c 0
 517.781 333 515.593 318 515.68 309 c 1
 512.042 306 l 1
 444.53 313 335.168 316 287.168 316 c 1
 262.512 200 l 2
EndSplineSet
LCarets2: 1 0 
Colour: ff00ff
EndChar

StartChar: uni04D7
Encoding: 1239 1239 113
Width: 459
VWidth: 999
Flags: HW
HStem: -10 68<217.975 371.091> 243 44<161 327.997> 390 49<203.391 308.5> 489 31<184.971 259.548>
VStem: 32 126<127.31 243 287 299.028> 101 73<526.553 605.612> 270 73<526.548 606.379> 328 127<254.5 342.567>
LayerCount: 2
Fore
SplineSet
465.646 577 m 0
 453.954 522 388.94 489 324.94 489 c 0
 259.94 489 211.954 522 223.433 576 c 0
 227.259 594 246.447 609 269.447 609 c 0
 291.447 609 300.471 595 297.07 579 c 0
 296.433 576 296.008 574 294.37 571 c 0
 292.732 568 292.095 565 291.669 563 c 0
 286.993 541 302.529 520 332.529 520 c 0
 361.529 520 386.78 540 391.457 562 c 0
 392.095 565 392.732 568 392.37 571 c 0
 391.795 573 392.22 575 392.857 578 c 0
 396.471 595 416.447 609 434.447 609 c 0
 458.447 609 469.684 596 465.646 577 c 0
210.878 277 m 1
 344.878 277 l 2
 354.878 277 362.066 292 363.979 301 c 0
 379.071 372 355.897 390 319.897 390 c 0
 289.197 390 238.07 364 210.878 277 c 1
421.743 107 m 1
 433.828 99.4004 437.492 87 434.304 72 c 1
 385.251 20 308.874 -10 236.874 -10 c 0
 87.874 -10 53.3428 91 76.2988 199 c 0
 108.607 351 236.312 439 331.312 439 c 0
 463.312 439 495.545 346 475.139 250 c 0
 472.801 239 464.525 233 453.525 233 c 2
 199.525 233 l 1
 168.28 86 214.328 58 271.328 58 c 0
 326.328 58 378.666 69 421.743 107 c 1
EndSplineSet
LCarets2: 1 0 
Colour: ff00ff
EndChar

StartChar: uni04D8
Encoding: 1240 1240 114
Width: 644
VWidth: 999
Flags: HW
HStem: -12 34<246.269 393.278> 216 44<122 511> 624 34<207.892 368.818>
VStem: 521 90<221.919 443.038>
LayerCount: 2
Fore
SplineSet
208.167 523 m 1
 190.269 547 l 1
 284.998 621 339.862 658 449.862 658 c 0
 664.862 658 714.09 485 680.293 326 c 0
 638.845 131 506.449 -12 313.449 -12 c 0
 121.449 -12 78.082 118 97.2646 260 c 1
 575.265 260 l 1
 578.603 271 581.153 283 584.129 297 c 0
 623.665 483 561.636 624 426.636 624 c 0
 333.636 624 272.22 575 208.167 523 c 1
167.912 216 m 1
 171.28 86 229.676 22 327.676 22 c 0
 433.676 22 517.656 116 556.912 216 c 1
 167.912 216 l 1
EndSplineSet
Colour: ff00ff
EndChar

StartChar: afii10846
Encoding: 1241 1241 115
Width: 459
VWidth: 999
Flags: HW
HStem: -11 49<115.5 220.609> 141 44<96.003 263> 370 68<52.909 206.025>
VStem: -31 127<85.433 173.5> 266 126<128.972 141 185 300.69>
LayerCount: 2
Fore
SplineSet
308.096 151 m 1
 174.096 151 l 2
 164.096 151 156.907 136 154.995 127 c 0
 139.903 56 163.077 38 199.077 38 c 0
 229.777 38 280.903 64 308.096 151 c 1
97.2305 321 m 1
 85.1465 328.6 81.4814 341 84.6699 356 c 1
 133.723 408 210.1 438 282.1 438 c 0
 431.1 438 465.632 337 442.676 229 c 0
 410.367 77 282.662 -11 187.662 -11 c 0
 55.6621 -11 23.4297 82 43.835 178 c 0
 46.1729 189 54.4482 195 65.4482 195 c 2
 319.448 195 l 1
 350.694 342 304.646 370 247.646 370 c 0
 192.646 370 140.308 359 97.2305 321 c 1
EndSplineSet
Colour: ff00ff
EndChar

StartChar: uni04DA
Encoding: 1242 1242 116
Width: 644
VWidth: 999
Flags: HW
HStem: -12 34<246.269 393.278> 216 44<122 511> 624 34<207.892 368.818> 706 90<192.481 269.519 382.301 458.653>
VStem: 186 90<712.481 789.519> 375 91<713.347 789.699> 521 90<221.919 443.038>
LayerCount: 2
Fore
SplineSet
534.843 752 m 0
 539.944 776 565.407 797 589.407 797 c 0
 614.407 797 630.944 776 625.843 752 c 0
 620.528 727 595.064 706 570.064 706 c 0
 546.064 706 529.528 727 534.843 752 c 0
345.63 751 m 0
 350.944 776 375.195 796 400.195 796 c 0
 425.195 796 440.944 776 435.63 751 c 0
 430.316 726 406.064 706 381.064 706 c 0
 356.064 706 340.316 726 345.63 751 c 0
208.167 523 m 1
 190.269 547 l 1
 284.998 621 339.862 658 449.862 658 c 0
 664.862 658 714.09 485 680.293 326 c 0
 638.845 131 506.449 -12 313.449 -12 c 0
 121.449 -12 78.082 118 97.2646 260 c 1
 575.265 260 l 1
 578.603 271 581.153 283 584.129 297 c 0
 623.665 483 561.636 624 426.636 624 c 0
 333.636 624 272.22 575 208.167 523 c 1
167.912 216 m 1
 171.28 86 229.676 22 327.676 22 c 0
 433.676 22 517.656 116 556.912 216 c 1
 167.912 216 l 1
EndSplineSet
LCarets2: 1 0 
Colour: ff00ff
EndChar

StartChar: uni04DB
Encoding: 1243 1243 117
Width: 459
VWidth: 999
Flags: HW
HStem: -11 49<115.5 220.609> 141 44<96.003 263> 370 68<52.909 206.025> 527 92<92.3474 169.653 252.347 329.653>
VStem: -31 127<85.433 173.5> 85 92<534.347 611.653> 245 92<534.347 611.653> 266 126<128.972 141 185 300.69>
LayerCount: 2
Back
SplineSet
40.4707 617.676 m 5
 659.611 617.676 l 5
 640.307 526.855 l 5
 21.166 526.855 l 5
 40.4707 617.676 l 5
EndSplineSet
Fore
SplineSet
383.37 571 m 0
 390.172 603 420.485 628 452.485 628 c 0
 482.485 628 503.172 603 496.37 571 c 0
 489.993 541 458.467 515 428.467 515 c 0
 396.467 515 376.993 541 383.37 571 c 0
193.37 571 m 0
 200.172 603 231.485 628 261.485 628 c 0
 293.485 628 313.172 603 306.37 571 c 0
 299.993 541 269.467 515 237.467 515 c 0
 207.467 515 186.993 541 193.37 571 c 0
308.096 151 m 1
 174.096 151 l 2
 164.096 151 156.907 136 154.995 127 c 0
 139.903 56 163.077 38 199.077 38 c 0
 229.777 38 280.903 64 308.096 151 c 1
97.2305 321 m 1
 85.1465 328.6 81.4814 341 84.6699 356 c 1
 133.723 408 210.1 438 282.1 438 c 0
 431.1 438 465.632 337 442.676 229 c 0
 410.367 77 282.662 -11 187.662 -11 c 0
 55.6621 -11 23.4297 82 43.835 178 c 0
 46.1729 189 54.4482 195 65.4482 195 c 2
 319.448 195 l 1
 350.694 342 304.646 370 247.646 370 c 0
 192.646 370 140.308 359 97.2305 321 c 1
EndSplineSet
LCarets2: 1 0 
Colour: ff00ff
EndChar

StartChar: uni04E0
Encoding: 1248 1248 118
Width: 608
VWidth: 999
Flags: HW
HStem: -211 37<215 357> 605 39<141 167 167 446>
VStem: 475 89<-42 146>
DStem2: 250 252 367 288 0.48636 0.873758<88.8042 404.592>
LayerCount: 2
Fore
SplineSet
304.099 645 m 2
 659.099 645 l 2
 680.099 645 685.823 639 684.123 631 c 0
 681.998 621 672.597 605 660.408 590 c 2
 428.216 288 l 1
 556.478 261 598.435 162 574.841 51 c 0
 545.295 -88 387.15 -211 227.15 -211 c 0
 147.15 -211 4.58984 -176 18.6191 -110 c 0
 23.5078 -87 39.2471 -60 73.2471 -60 c 0
 100.247 -60 125.271 -74 133.807 -95 c 0
 155.392 -144 199.016 -174 254.016 -174 c 0
 341.016 -174 463.734 -53 483.928 42 c 0
 517.724 201 414.202 255 345.202 255 c 0
 329.202 255 318.202 255 303.564 252 c 1
 574.597 605 l 1
 325.597 605 l 1
 251.384 604 204.742 521 191.39 477 c 1
 165.814 479 l 1
 226.775 667 l 1
 248.713 662 280.099 645 304.099 645 c 2
EndSplineSet
Colour: ff00ff
EndChar

StartChar: uni04E1
Encoding: 1249 1249 119
Width: 416
VWidth: 999
Flags: HW
HStem: -235 35<149 244> 103 34<216 268> 395 34<107 295>
VStem: 40 27<303 337> 312 81<-120 61>
DStem2: 127 107 216 137 0.505072 0.863077<70.4402 332.658>
LayerCount: 2
Fore
SplineSet
149.743 107 m 1
 378.96 395 l 1
 233.96 395 l 2
 203.96 395 165.496 374 129.979 301 c 1
 104.617 304 l 1
 123.032 353 138.385 397 148.95 442 c 1
 173.95 442 l 1
 174.675 436 182.187 429 197.187 429 c 2
 400.187 429 l 2
 429.187 429 466.462 435 468.462 435 c 0
 475.462 435 481.037 433 480.187 429 c 0
 479.337 425 470.998 414 449.26 387 c 2
 245.12 137 l 1
 341.12 137 410.854 84 388.324 -22 c 0
 363.029 -141 258.049 -235 135.049 -235 c 0
 50.0488 -235 5.01562 -174 11.8174 -142 c 0
 15.6426 -124 29.4688 -106 51.4688 -106 c 0
 74.4688 -106 85.3438 -116 88.2422 -140 c 0
 91.5654 -162 110.488 -200 150.488 -200 c 0
 200.488 -200 280.967 -146 303.923 -38 c 0
 325.391 63 302.894 103 224.894 103 c 0
 213.894 103 182.405 96 163.556 92 c 1
 149.743 107 l 1
EndSplineSet
Colour: ff00ff
EndChar

StartChar: uni04E6
Encoding: 1254 1254 120
Width: 759
VWidth: 999
Flags: HW
HStem: -10 53<307.847 481.169> 605 53<285.311 463.989> 706 90<218.481 295.519 408.301 484.653>
VStem: 42 141<188.284 438.592> 212 90<712.481 789.519> 401 91<713.347 789.699> 576 141<199.265 456.948>
LayerCount: 2
Fore
SplineSet
560.843 752 m 0
 565.944 776 591.407 797 615.407 797 c 0
 640.407 797 656.944 776 651.843 752 c 0
 646.528 727 621.064 706 596.064 706 c 0
 572.064 706 555.528 727 560.843 752 c 0
371.63 751 m 0
 376.944 776 401.195 796 426.195 796 c 0
 451.195 796 466.944 776 461.63 751 c 0
 456.316 726 432.064 706 407.064 706 c 0
 382.064 706 366.316 726 371.63 751 c 0
492.597 605 m 0
 396.597 605 297.143 537 252.506 327 c 0
 211.695 135 287.14 43 407.14 43 c 0
 521.14 43 603.845 131 641.893 310 c 0
 686.104 518 633.597 605 492.597 605 c 0
786.931 329 m 0
 744.42 129 589.975 -10 375.874 -10 c 0
 177.874 -10 67.9316 122 107.893 310 c 0
 149.554 506 313.862 658 516.862 658 c 0
 729.862 658 829.018 527 786.931 329 c 0
EndSplineSet
LCarets2: 1 0 
Colour: ff00ff
EndChar

StartChar: uni04E7
Encoding: 1255 1255 121
Width: 528
VWidth: 999
Flags: HW
HStem: -10 50<216.893 336.152> 389 50<201.272 329.488> 528 92<135.347 212.653 295.347 372.653>
VStem: 36 128<111.605 310.233> 128 92<535.347 612.653> 288 92<535.347 612.653> 374 128<119.272 316.433>
LayerCount: 2
Back
SplineSet
625.353 502.441 m 5
 606.507 549.316 578.562 594.727 551.885 632.324 c 5
 575.195 645.508 l 5
 608.135 616.699 634.964 591.309 661.463 555.176 c 5
 706.668 593.262 745.757 618.652 788.574 645.508 c 5
 804.814 632.324 l 5
 761.74 592.773 714.209 548.34 675.156 502.441 c 5
 625.353 502.441 l 5
-64.9111 647.949 m 5
 -73.8555 596.68 -36.083 556.152 24.4639 556.152 c 4
 70.3623 556.152 136.264 585.938 151.886 647.949 c 5
 175.347 634.277 l 5
 144.201 533.691 62.125 499.023 12.3203 499.023 c 4
 -65.3164 499.023 -103.851 556.641 -94.6719 634.277 c 5
 -64.9111 647.949 l 5
289.062 645.508 m 5
 307.907 598.633 335.395 555.664 362.529 515.625 c 5
 339.219 502.441 l 5
 306.279 531.25 277.882 556.152 251.871 592.285 c 5
 206.666 554.199 168.658 529.297 125.84 502.441 c 5
 109.111 515.625 l 5
 152.674 555.176 200.205 599.609 239.258 645.508 c 5
 289.062 645.508 l 5
50.5742 664.062 m 5
 669.227 664.062 l 5
 634.51 500.732 l 5
 15.8574 500.732 l 5
 50.5742 664.062 l 5
587.129 662.598 m 21
 590.857 664.062 597.413 665.039 602.297 665.039 c 4
 630.295 665.039 640.439 654.214 647.228 646.704 c 4
 649.092 644.639 650.765 642.856 652.489 641.602 c 5
 652.648 630.859 l 5
 514.758 521.973 l 6
 496.02 507.324 488.146 502.441 481.797 502.441 c 4
 473.985 502.441 468.325 507.974 469.71 514.487 c 4
 470.852 519.858 472.513 527.246 480.865 537.109 c 6
 587.129 662.598 l 21
40.4033 616.211 m 5
 659.056 616.211 l 5
 639.803 525.635 l 5
 21.1514 525.635 l 5
 40.4033 616.211 l 5
209.218 570.801 m 4
 214.511 595.703 239.378 616.211 264.28 616.211 c 4
 289.183 616.211 305.332 595.703 300.038 570.801 c 4
 294.745 545.898 269.878 525.391 244.977 525.391 c 4
 220.073 525.391 203.925 545.898 209.218 570.801 c 4
369.862 570.801 m 4
 375.155 595.703 400.022 616.211 424.925 616.211 c 4
 449.828 616.211 465.976 595.703 460.683 570.801 c 4
 455.39 545.898 430.523 525.391 405.62 525.391 c 4
 380.719 525.391 364.569 545.898 369.862 570.801 c 4
EndSplineSet
Fore
SplineSet
79.5742 205 m 0
 108.694 342 216.312 439 359.312 439 c 0
 528.312 439 559.593 318 537.487 214 c 0
 514.743 107 414.874 -10 261.874 -10 c 0
 112.874 -10 56.1934 95 79.5742 205 c 0
341.685 389 m 0
 255.685 389 230.955 315 212.463 228 c 0
 196.096 151 182.502 40 286.502 40 c 0
 331.502 40 379.304 72 403.748 187 c 0
 433.293 326 426.685 389 341.685 389 c 0
426.582 572 m 0
 433.384 604 463.698 629 495.698 629 c 0
 525.698 629 546.384 604 539.582 572 c 0
 533.206 542 501.679 516 471.679 516 c 0
 439.679 516 420.206 542 426.582 572 c 0
236.582 572 m 0
 243.384 604 274.698 629 304.698 629 c 0
 336.698 629 356.384 604 349.582 572 c 0
 343.206 542 312.679 516 280.679 516 c 0
 250.679 516 230.206 542 236.582 572 c 0
EndSplineSet
LCarets2: 1 0 
Colour: ff00ff
EndChar

StartChar: uni04E8
Encoding: 1256 1256 122
Width: 759
VWidth: 999
Flags: HW
HStem: -10 53<307.847 481.169> 266 57<387.324 534.392> 312 58<177.336 340.102> 605 53<285.311 463.989>
VStem: 42 141<188.284 438.592> 100 15<267.333 271.234> 576 141<199.265 456.948>
LayerCount: 2
Back
SplineSet
655.388 296.875 m 5
 170.524 296.875 l 5
 182.46 353.027 l 5
 665.858 353.027 l 5
 655.388 296.875 l 5
EndSplineSet
Fore
SplineSet
786.931 329 m 0
 744.42 129 589.975 -10 375.874 -10 c 0
 177.874 -10 67.9316 122 107.893 310 c 0
 149.554 506 313.862 658 516.862 658 c 0
 729.862 658 829.018 527 786.931 329 c 0
643.231 316.3 m 1
 593.006 277.6 540.44 266 502.54 266 c 0
 410.54 266 396.317 312 321.317 312 c 0
 303.218 312 275.692 310 247.947 303.2 c 1
 218.18 127.4 292.24 43 407.14 43 c 0
 521.14 43 603.845 131 641.893 310 c 0
 642.339 312.1 642.785 314.2 643.231 316.3 c 1
650.887 358.9 m 1
 676.916 531.7 621.997 605 492.597 605 c 0
 400.396 605 305.091 542.4 258.135 351.6 c 1
 292.392 364.1 327.646 370 351.646 370 c 0
 449.646 370 469.656 323 532.656 323 c 0
 564.355 323 613.434 335.6 650.887 358.9 c 1
EndSplineSet
Colour: ff00ff
EndChar

StartChar: uni04E9
Encoding: 1257 1257 123
Width: 528
VWidth: 999
Flags: HMW
HStem: -12 36<202 328> 179 49<204 349> 207 42<118 238> 409 33<183 304>
VStem: 44 79<124 320> 377 79<113 318>
AnchorPoint: "unten_punkt" 223.257 -107 basechar 0
AnchorPoint: "top_punkt" 361.906 550 basechar 0
AnchorPoint: "top_akzent" 373.099 645 basechar 0
LayerCount: 2
Fore
SplineSet
79.5742 205 m 0
 108.694 342 216.312 439 359.312 439 c 0
 528.312 439 559.593 318 537.487 214 c 0
 514.743 107 414.874 -10 261.874 -10 c 0
 112.874 -10 56.1934 95 79.5742 205 c 0
413.51 238.1 m 1
 430.209 341.6 415.484 389 341.685 389 c 0
 260.585 389 233.977 323.1 215.666 242.6 c 1
 233.095 246.5 251.127 249 265.927 249 c 0
 310.927 249 328.676 229 366.676 229 c 0
 382.476 229 399.269 233.2 413.51 238.1 c 1
408.182 208.8 m 1
 382.434 195.4 344.048 179 312.048 179 c 0
 269.947 179 242.244 205.8 208.299 207 c 1
 194.621 132.3 191.702 40 286.502 40 c 0
 331.502 40 379.304 72 403.748 187 c 0
 405.342 194.5 406.794 201.8 408.182 208.8 c 1
EndSplineSet
Colour: ff80cc
EndChar

StartChar: uni04EA
Encoding: 1258 1258 124
Width: 759
VWidth: 999
Flags: HW
HStem: -10 53<307.847 481.169> 266 57<387.324 534.392> 312 58<177.336 340.102> 605 53<285.311 463.989> 708 90<215.481 292.519 405.301 481.653>
VStem: 42 141<188.284 438.592> 100 15<267.333 271.234> 209 90<714.481 791.519> 398 91<715.347 791.699> 576 141<199.265 456.948>
LayerCount: 2
Fore
SplineSet
558.268 754 m 0
 563.369 778 588.833 799 612.833 799 c 0
 637.833 799 654.369 778 649.268 754 c 0
 643.954 729 618.49 708 593.49 708 c 0
 569.49 708 552.954 729 558.268 754 c 0
369.055 753 m 0
 374.369 778 398.62 798 423.62 798 c 0
 448.62 798 464.369 778 459.055 753 c 0
 453.741 728 429.49 708 404.49 708 c 0
 379.49 708 363.741 728 369.055 753 c 0
786.931 329 m 0
 744.42 129 589.975 -10 375.874 -10 c 0
 177.874 -10 67.9316 122 107.893 310 c 0
 149.554 506 313.862 658 516.862 658 c 0
 729.862 658 829.018 527 786.931 329 c 0
643.231 316.3 m 1
 593.006 277.6 540.44 266 502.54 266 c 0
 410.54 266 396.317 312 321.317 312 c 0
 303.218 312 275.692 310 247.947 303.2 c 1
 218.18 127.4 292.24 43 407.14 43 c 0
 521.14 43 603.845 131 641.893 310 c 0
 642.339 312.1 642.785 314.2 643.231 316.3 c 1
650.887 358.9 m 1
 676.916 531.7 621.997 605 492.597 605 c 0
 400.396 605 305.091 542.4 258.135 351.6 c 1
 292.392 364.1 327.646 370 351.646 370 c 0
 449.646 370 469.656 323 532.656 323 c 0
 564.355 323 613.434 335.6 650.887 358.9 c 1
EndSplineSet
LCarets2: 1 0 
Colour: ff00ff
EndChar

StartChar: uni04EB
Encoding: 1259 1259 125
Width: 528
VWidth: 999
Flags: HW
HStem: -12 36<202 328> 179 49<204 349> 207 42<118 238> 409 33<183 304> 527 92<137.347 214.653 297.347 374.653>
VStem: 44 79<124 320> 130 92<534.347 611.653> 290 92<534.347 611.653> 377 79<113 318>
LayerCount: 2
Back
SplineSet
40.4707 617.676 m 5
 659.611 617.676 l 5
 640.307 526.855 l 5
 21.166 526.855 l 5
 40.4707 617.676 l 5
EndSplineSet
Fore
SplineSet
79.5742 205 m 0
 108.694 342 216.312 439 359.312 439 c 0
 528.312 439 559.593 318 537.487 214 c 0
 514.743 107 414.874 -10 261.874 -10 c 0
 112.874 -10 56.1934 95 79.5742 205 c 0
428.37 571 m 0
 435.172 603 465.485 628 497.485 628 c 0
 527.485 628 548.172 603 541.37 571 c 0
 534.993 541 503.467 515 473.467 515 c 0
 441.467 515 421.993 541 428.37 571 c 0
238.37 571 m 0
 245.172 603 276.485 628 306.485 628 c 0
 338.485 628 358.172 603 351.37 571 c 0
 344.993 541 314.467 515 282.467 515 c 0
 252.467 515 231.993 541 238.37 571 c 0
413.51 238.1 m 1
 430.209 341.6 415.484 389 341.685 389 c 0
 260.585 389 233.977 323.1 215.666 242.6 c 1
 233.095 246.5 251.127 249 265.927 249 c 0
 310.927 249 328.676 229 366.676 229 c 0
 382.476 229 399.269 233.2 413.51 238.1 c 1
408.182 208.8 m 1
 382.434 195.4 344.048 179 312.048 179 c 0
 269.947 179 242.244 205.8 208.299 207 c 1
 194.621 132.3 191.702 40 286.502 40 c 0
 331.502 40 379.304 72 403.748 187 c 0
 405.342 194.5 406.794 201.8 408.182 208.8 c 1
EndSplineSet
LCarets2: 1 0 
Colour: ff00ff
EndChar

